<?xml version="1.0" encoding="UTF-8" ?>
<!DOCTYPE svg PUBLIC "-//W3C//DTD SVG 1.1//EN" "http://www.w3.org/Graphics/SVG/1.1/DTD/svg11.dtd">
<svg width="355pt" height="417pt" viewBox="0 0 355 417" version="1.1" xmlns="http://www.w3.org/2000/svg">
<g id="#000000ff">
</g>
<g id="#ffffffff">
<path fill="#ffffff" opacity="1.00" d=" M 149.83 12.24 C 153.17 9.65 156.49 6.53 160.98 6.34 C 169.33 4.87 178.82 11.08 178.94 19.96 C 179.10 39.81 178.96 59.66 179.01 79.51 C 174.23 79.51 169.45 79.49 164.68 79.52 C 162.81 75.71 158.26 73.00 154.14 75.17 C 148.89 77.41 148.65 85.64 153.69 88.26 C 157.75 90.85 162.72 88.21 164.63 84.25 C 169.42 84.25 174.22 84.25 179.01 84.25 C 179.01 101.83 179.01 119.42 179.01 137.01 C 174.19 137.00 169.36 137.04 164.54 136.97 C 162.87 133.48 158.94 130.85 155.01 132.34 C 149.19 133.94 148.22 142.82 153.53 145.68 C 157.59 148.35 162.77 145.81 164.68 141.75 C 169.46 141.75 174.23 141.75 179.01 141.75 C 179.00 150.00 179.02 158.26 179.00 166.52 C 180.68 166.97 182.35 167.46 184.00 168.01 C 183.84 152.34 184.14 136.66 183.73 120.99 C 190.75 120.99 197.77 121.00 204.79 120.98 C 200.85 124.26 196.80 127.42 192.97 130.83 C 192.87 146.55 192.95 162.27 192.93 177.98 C 191.36 178.01 189.79 178.04 188.23 178.09 C 188.57 179.66 189.01 181.22 189.53 182.74 C 195.77 182.75 202.01 182.74 208.25 182.75 C 208.26 188.79 208.24 194.83 208.27 200.87 C 207.54 200.99 206.08 201.24 205.34 201.37 C 205.10 202.04 204.60 203.39 204.35 204.06 C 205.71 205.27 207.08 206.49 208.44 207.71 C 213.03 207.54 218.59 208.87 222.18 205.17 C 227.03 200.29 231.78 195.27 235.73 189.62 C 239.91 183.63 244.85 178.16 250.39 173.43 C 256.25 169.81 263.27 164.30 270.42 167.96 C 269.23 169.47 267.96 170.91 266.69 172.34 C 272.96 168.55 280.24 167.14 287.10 164.79 C 292.03 163.33 296.84 161.26 302.03 160.90 C 312.44 159.51 322.32 154.36 332.96 154.78 C 326.44 162.19 316.06 163.09 307.89 167.72 C 316.64 167.07 325.29 164.57 334.11 165.15 C 335.31 164.94 337.73 166.70 335.65 167.53 C 327.53 173.01 317.12 172.23 308.59 176.73 C 316.10 176.92 323.80 176.48 331.10 178.54 C 332.45 179.05 334.70 179.73 333.86 181.61 C 329.03 184.22 323.35 184.51 317.98 184.50 C 311.84 184.25 305.91 186.14 299.82 186.51 C 307.19 187.50 314.73 188.47 321.62 191.43 C 323.59 192.36 326.23 193.45 326.29 196.02 C 326.18 197.43 324.64 197.96 323.53 198.40 C 316.97 200.24 310.65 195.89 304.09 196.84 C 300.20 197.15 296.41 195.92 292.59 195.40 C 299.59 198.49 307.02 201.02 313.08 205.83 C 314.47 206.80 315.34 208.32 315.64 209.97 C 314.64 212.34 311.62 212.25 309.54 211.61 C 304.54 210.49 300.40 206.74 295.15 206.55 C 291.68 206.15 288.89 203.84 285.88 202.30 C 291.66 208.52 302.71 209.97 304.86 219.27 C 303.59 220.28 302.26 221.20 300.93 222.11 C 298.65 221.58 296.41 220.94 294.20 220.20 C 296.09 222.39 297.27 225.06 297.16 227.99 C 294.48 229.56 291.38 230.43 288.67 228.36 C 290.33 231.35 290.55 234.78 289.21 237.94 C 287.64 238.28 286.00 239.18 284.39 238.55 C 282.71 237.16 281.34 235.44 279.84 233.87 C 281.18 236.98 282.77 240.56 281.00 243.86 C 280.25 246.01 277.42 245.34 275.67 245.21 C 276.79 248.33 274.41 251.39 271.12 251.26 C 270.64 253.47 268.92 253.42 267.13 252.68 C 267.30 254.84 267.11 259.00 263.86 257.18 C 263.93 258.77 263.64 260.27 263.00 261.68 C 262.26 261.44 260.78 260.97 260.04 260.73 C 259.97 262.38 259.86 264.04 259.71 265.70 C 259.13 265.83 257.96 266.08 257.37 266.20 C 257.36 268.40 255.88 270.12 253.78 268.41 C 253.91 270.64 253.80 273.08 251.70 274.39 L 250.90 272.82 C 249.62 273.95 248.25 274.63 246.89 273.17 C 246.36 275.05 246.83 278.64 243.78 277.98 C 242.87 279.45 241.58 280.54 239.76 280.47 C 239.26 282.59 236.57 285.57 234.89 282.61 C 234.53 284.59 232.61 288.90 230.39 285.94 C 229.84 287.66 228.70 289.03 227.11 289.90 C 225.73 288.19 223.87 287.06 222.17 285.74 C 220.05 283.17 219.83 279.62 217.83 276.98 C 213.48 269.09 210.27 260.65 207.77 251.99 C 207.61 253.08 207.30 255.24 207.14 256.32 C 205.85 254.85 204.57 253.38 203.39 251.83 L 202.61 253.46 C 198.61 250.11 197.55 244.51 195.48 239.92 C 194.62 244.62 192.67 249.15 192.76 254.00 C 193.30 258.52 195.32 262.66 196.34 267.07 C 198.33 275.51 200.44 284.20 199.15 292.93 C 197.77 302.05 196.05 311.13 193.86 320.10 C 191.89 326.21 192.94 332.69 193.24 338.96 C 194.17 352.51 187.45 365.31 188.81 378.88 C 190.08 383.91 192.37 388.72 192.61 393.98 C 193.50 397.23 190.17 399.29 188.29 401.40 C 186.61 401.55 184.92 402.20 183.23 401.79 C 181.84 397.71 181.76 393.28 181.99 389.01 C 182.23 384.90 180.57 380.94 181.06 376.82 C 180.21 376.43 179.37 376.04 178.54 375.63 C 177.53 375.32 176.52 374.99 175.52 374.65 C 174.35 373.36 172.97 372.27 171.77 371.01 C 169.08 366.07 171.57 360.07 169.20 355.05 C 167.68 350.31 164.29 346.57 161.81 342.34 C 159.00 337.69 157.49 332.37 156.55 327.06 C 155.00 315.08 153.98 303.04 153.34 290.98 C 153.01 282.99 156.10 275.48 157.77 267.81 C 158.78 262.76 161.18 258.05 161.57 252.89 C 161.72 247.83 160.11 242.96 159.23 238.04 C 157.44 243.24 155.10 248.31 151.78 252.72 C 151.48 252.34 150.89 251.57 150.59 251.18 C 149.18 252.55 147.77 253.91 146.36 255.28 C 146.29 253.82 146.22 252.37 146.16 250.92 C 142.86 260.24 139.12 269.47 133.72 277.78 C 132.67 280.57 131.37 283.26 129.50 285.61 C 129.00 285.60 128.01 285.59 127.51 285.58 C 127.01 286.29 126.01 287.71 125.52 288.42 C 123.96 287.56 122.75 286.30 121.99 284.69 C 119.07 286.51 118.06 282.72 117.44 280.67 C 117.02 281.09 116.19 281.91 115.77 282.33 C 114.40 281.35 113.11 280.24 112.69 278.53 C 110.90 278.27 109.41 277.44 108.69 275.72 C 105.51 276.49 106.08 272.88 105.70 270.88 C 104.48 272.14 103.29 272.09 102.13 270.74 C 98.61 273.16 98.55 267.89 98.73 265.65 C 96.74 267.95 95.25 265.77 95.14 263.54 C 94.58 263.43 93.47 263.20 92.91 263.09 C 92.78 261.33 92.69 259.57 92.62 257.82 C 91.68 258.35 90.74 258.88 89.80 259.42 C 89.21 257.63 88.97 255.77 88.82 253.92 C 88.35 254.27 87.40 254.99 86.93 255.35 C 85.84 253.64 85.67 251.64 85.69 249.66 C 83.04 250.91 80.89 248.45 78.71 247.29 C 76.89 246.18 77.74 243.88 77.96 242.22 C 76.12 242.81 74.06 242.92 72.54 241.52 C 70.41 237.91 72.34 233.83 74.08 230.54 C 71.42 232.48 69.01 237.13 65.20 234.86 C 61.56 232.65 63.23 227.74 64.98 224.80 C 62.13 226.18 58.53 226.54 56.26 223.89 C 55.51 220.76 58.00 218.20 59.82 215.98 C 57.64 216.82 55.38 217.50 53.05 217.74 C 51.18 217.56 49.89 216.06 48.50 214.99 C 51.08 205.81 61.99 204.46 68.35 198.86 C 64.63 200.18 61.29 202.93 57.14 202.68 C 50.64 203.57 44.38 209.68 37.65 206.19 C 38.11 204.62 38.35 202.80 39.82 201.81 C 45.93 196.81 53.71 194.74 60.84 191.69 C 56.89 191.92 52.96 193.12 49.00 192.42 C 43.51 191.58 38.30 194.65 32.81 193.91 C 30.77 193.65 28.31 193.22 27.35 191.14 C 27.42 189.10 29.16 187.75 30.90 187.07 C 39.32 183.37 48.66 183.16 57.58 181.52 C 54.08 181.57 50.51 182.18 47.09 181.15 C 38.06 178.29 27.69 181.17 19.39 175.72 C 21.55 172.63 25.66 172.70 29.01 172.21 C 34.93 171.48 40.86 172.38 46.73 172.51 C 37.68 167.22 26.07 167.91 17.77 161.14 C 18.23 159.41 20.41 159.71 21.78 159.59 C 30.36 159.95 38.75 161.98 47.21 163.29 C 39.10 158.19 28.43 157.10 22.07 149.31 C 30.20 149.19 37.89 152.48 45.61 154.65 C 51.00 156.68 56.93 156.56 62.25 158.83 C 70.79 162.11 79.80 164.27 87.93 168.55 C 87.02 167.32 86.14 166.05 85.30 164.77 C 89.15 162.74 93.62 163.99 97.30 165.78 C 102.42 168.33 107.13 171.79 110.74 176.25 C 117.03 182.48 120.98 190.55 126.93 197.05 C 129.30 199.67 131.53 202.46 134.26 204.74 C 136.98 206.96 140.75 206.41 144.02 206.54 C 148.56 207.29 150.95 202.36 155.09 201.38 C 152.58 200.54 154.22 197.29 153.68 195.40 C 159.09 197.87 165.27 198.07 170.93 196.31 C 170.64 194.69 170.28 193.09 169.91 191.49 C 165.18 193.02 159.74 193.19 155.33 190.64 C 154.07 189.80 154.14 187.92 152.95 186.99 C 151.15 185.44 149.43 183.76 148.53 181.52 C 153.05 180.88 156.25 175.45 153.36 171.51 C 150.81 167.24 143.70 168.27 142.33 173.01 C 140.91 176.34 144.27 179.02 144.13 182.31 C 144.31 185.52 146.67 187.89 148.83 190.01 C 141.81 191.70 133.69 190.84 128.27 185.69 C 123.81 181.96 122.51 175.30 124.86 170.05 C 127.29 163.82 133.53 160.71 138.63 157.03 C 137.97 155.75 137.59 154.07 136.01 153.61 C 130.12 156.19 124.80 160.41 121.41 165.93 C 117.39 163.64 113.46 160.02 113.08 155.13 C 112.49 152.22 113.90 149.49 114.73 146.79 C 112.27 143.97 109.11 141.55 107.80 137.91 C 106.18 134.23 106.55 130.10 107.50 126.30 C 113.92 127.83 120.60 127.18 126.73 124.84 C 130.51 128.33 137.38 126.97 138.94 121.89 C 141.15 116.59 135.46 110.44 130.01 112.31 C 126.25 113.14 124.65 117.03 124.32 120.50 C 118.58 122.52 112.05 123.10 106.38 120.52 C 98.13 116.99 91.67 108.23 92.59 99.02 C 93.15 92.10 97.66 85.98 103.44 82.37 C 105.33 81.12 107.48 80.30 109.28 78.92 C 110.18 77.46 108.68 75.93 108.30 74.53 C 104.05 66.45 108.61 55.46 117.11 52.39 C 120.60 50.91 124.44 51.14 128.12 51.50 C 128.87 54.90 131.23 58.38 135.05 58.48 C 140.91 59.35 145.39 51.87 141.90 47.12 C 139.24 42.62 132.61 42.90 129.48 46.73 C 124.57 45.99 119.52 46.20 114.82 47.88 C 112.39 43.74 112.27 38.19 115.23 34.28 C 118.71 30.17 124.06 28.20 129.22 27.29 C 132.25 26.96 134.38 29.37 137.00 30.34 C 138.40 29.81 138.86 28.35 139.53 27.16 C 135.84 22.22 128.59 21.05 123.31 24.03 C 125.44 17.99 130.61 13.26 136.90 11.93 C 141.16 10.70 145.56 11.61 149.83 12.24 M 144.00 26.07 C 144.11 30.70 147.66 34.18 151.18 36.70 C 152.37 35.96 153.28 34.97 153.90 33.73 C 152.56 31.25 149.89 29.63 149.01 26.88 C 148.27 23.71 150.54 21.12 152.10 18.65 C 151.23 17.70 150.55 16.37 149.18 16.10 C 145.66 17.94 144.03 22.26 144.00 26.07 M 108.70 81.25 C 109.98 85.22 114.28 86.91 117.90 88.12 C 122.63 89.23 128.25 89.19 132.23 86.05 C 131.48 84.97 131.20 83.42 129.92 82.80 C 126.70 83.23 123.48 84.46 120.22 83.64 C 116.77 83.09 114.06 80.78 111.21 78.97 C 110.58 79.54 109.33 80.68 108.70 81.25 M 126.55 135.94 C 122.26 137.04 118.44 139.95 116.49 143.95 C 115.95 145.71 117.71 146.59 119.02 147.12 C 121.05 146.25 121.96 143.99 123.69 142.71 C 126.26 140.52 129.77 140.47 132.84 139.51 C 134.30 138.20 133.79 135.76 131.95 135.13 C 130.13 135.19 128.32 135.49 126.55 135.94 M 170.31 328.65 C 174.34 334.48 174.02 341.73 175.12 348.43 C 180.04 352.64 177.35 359.77 180.22 364.90 C 181.01 366.63 181.46 368.49 181.87 370.35 C 181.79 362.19 180.39 354.13 179.98 346.00 C 179.55 340.92 181.68 335.91 180.57 330.87 C 179.66 325.97 179.08 320.99 179.25 316.00 C 179.39 306.15 176.93 296.27 178.63 286.47 C 177.88 286.39 176.37 286.25 175.61 286.17 C 175.10 300.46 170.01 314.39 170.31 328.65 Z" />
<path fill="#ffffff" opacity="1.00" d=" M 183.95 22.51 C 194.75 22.91 205.68 25.34 214.95 31.08 C 227.91 37.77 238.58 48.53 246.00 61.00 C 252.95 72.94 255.61 87.26 253.50 100.90 C 250.24 124.57 236.81 145.59 220.41 162.44 C 216.32 167.33 212.31 172.37 209.32 178.03 C 205.47 178.00 201.63 178.01 197.78 178.01 C 197.76 163.02 197.81 148.04 197.75 133.05 C 203.32 128.25 209.34 123.96 214.60 118.82 C 213.78 117.92 213.46 116.04 211.97 116.10 C 202.64 115.86 193.29 116.08 183.95 116.01 C 183.96 84.84 183.95 53.68 183.95 22.51 Z" />
<path fill="#ffffff" opacity="1.00" d=" M 133.49 49.49 C 135.72 46.73 139.95 49.98 137.86 52.86 C 135.57 55.34 131.74 52.46 133.49 49.49 Z" />
<path fill="#ffffff" opacity="1.00" d=" M 155.13 84.14 C 154.69 82.31 154.40 79.12 157.13 79.22 C 159.69 79.03 160.10 81.88 159.81 83.80 C 158.29 84.28 156.70 84.30 155.13 84.14 Z" />
<path fill="#ffffff" opacity="1.00" d=" M 130.20 117.35 C 133.02 115.21 136.39 119.35 133.56 121.49 C 130.82 123.77 127.85 119.54 130.20 117.35 Z" />
<path fill="#ffffff" opacity="1.00" d=" M 155.17 140.87 C 153.65 139.05 155.86 135.81 158.05 136.90 C 160.47 137.09 159.73 139.94 159.63 141.57 C 158.22 141.68 155.96 142.54 155.17 140.87 Z" />
<path fill="#ffffff" opacity="1.00" d=" M 147.67 173.74 C 149.68 172.85 150.42 176.58 148.12 176.26 C 146.52 176.85 146.27 173.66 147.67 173.74 Z" />
</g>
</svg>
