<?xml version="1.0" encoding="UTF-8" ?>
<!DOCTYPE svg PUBLIC "-//W3C//DTD SVG 1.1//EN" "http://www.w3.org/Graphics/SVG/1.1/DTD/svg11.dtd">
<svg width="500pt" height="500pt" viewBox="0 0 500 500" version="1.1" xmlns="http://www.w3.org/2000/svg">
<g id="#000000ff">
</g>
<g id="#ffffffff">
<path fill="#ffffff" opacity="1.00" d=" M 227.88 12.42 C 230.46 10.67 232.75 8.18 236.01 7.80 C 242.75 6.15 251.01 10.82 251.48 18.10 C 251.55 34.39 251.46 50.68 251.52 66.97 C 247.68 67.01 243.84 67.02 240.00 67.01 C 238.44 64.67 236.13 62.30 233.02 63.06 C 228.04 63.60 226.27 70.75 230.30 73.64 C 233.44 76.54 238.26 74.48 239.96 71.01 C 243.81 70.97 247.67 70.98 251.52 71.03 C 251.47 85.27 251.51 99.51 251.50 113.75 C 247.69 113.75 243.88 113.77 240.07 113.74 C 238.53 111.34 236.09 109.06 232.97 109.78 C 227.97 110.33 226.24 117.68 230.43 120.47 C 233.63 123.17 238.20 121.14 239.96 117.78 C 243.80 117.72 247.65 117.75 251.49 117.74 C 251.51 124.38 251.49 131.02 251.51 137.66 C 252.94 138.09 254.37 138.55 255.79 139.03 C 255.69 126.27 255.95 113.50 255.48 100.75 C 261.11 100.77 266.75 100.69 272.39 100.81 C 269.37 103.62 266.02 106.04 262.97 108.82 C 263.05 121.50 262.99 134.18 263.01 146.86 C 261.71 146.93 260.44 147.10 259.18 147.37 C 259.36 148.61 259.73 149.81 260.07 151.01 C 265.13 150.97 270.19 151.00 275.25 150.99 C 275.25 155.79 275.24 160.60 275.27 165.40 C 273.82 165.81 272.32 166.31 272.32 168.11 C 273.35 169.26 274.53 170.27 275.69 171.30 C 278.83 171.04 282.31 171.86 285.20 170.27 C 295.15 162.46 300.31 150.09 310.62 142.66 C 315.05 139.81 320.53 136.18 325.89 138.95 C 324.93 140.05 323.95 141.12 322.97 142.19 C 327.14 140.12 331.56 138.68 336.03 137.42 C 340.64 136.09 345.10 134.13 349.87 133.39 C 358.96 132.45 367.44 128.06 376.67 128.05 C 371.49 134.22 362.98 135.00 356.26 138.65 C 364.04 138.22 371.76 135.67 379.59 136.88 C 379.22 138.05 378.52 138.89 377.47 139.40 C 371.00 142.78 363.48 142.90 356.81 145.73 C 363.95 146.76 371.97 144.98 378.29 149.24 C 374.20 152.30 368.88 152.27 364.01 152.26 C 359.22 152.15 354.60 153.96 349.81 153.55 C 356.45 155.30 363.67 155.56 369.70 159.17 C 371.07 159.91 372.09 162.45 370.08 163.11 C 364.79 165.70 359.30 161.80 353.87 162.31 C 350.80 162.61 347.79 161.80 344.75 161.50 C 350.28 164.09 356.28 166.00 360.95 170.09 C 362.11 171.08 363.04 172.63 362.04 174.12 C 356.67 176.14 352.19 171.14 347.12 170.36 C 343.97 170.23 341.40 168.38 338.68 167.04 C 343.36 172.03 352.83 173.21 353.68 181.12 C 351.06 183.19 347.96 182.70 345.15 181.27 C 346.28 183.15 348.43 185.44 347.14 187.78 C 345.26 189.33 342.80 189.17 340.77 188.05 C 342.47 191.25 342.42 196.42 337.83 196.80 C 336.39 195.47 335.04 194.06 333.65 192.69 C 335.06 195.45 335.32 198.52 334.32 201.47 C 332.98 201.57 331.64 201.66 330.31 201.72 C 330.77 204.42 329.05 206.39 326.43 206.78 C 326.04 208.62 324.34 207.82 323.19 207.69 C 323.22 209.60 323.23 212.33 320.51 211.59 C 320.37 212.75 320.23 213.91 320.09 215.07 C 319.25 214.83 318.42 214.60 317.59 214.37 C 317.29 216.07 317.66 218.40 315.50 218.87 C 315.14 219.54 314.40 220.87 314.04 221.54 C 313.62 221.20 312.78 220.50 312.37 220.16 C 312.37 221.99 312.26 226.78 309.24 224.09 L 308.67 225.22 C 308.21 225.05 307.28 224.72 306.82 224.56 C 306.85 227.93 303.60 229.14 301.09 230.48 C 300.31 231.51 299.48 232.51 298.67 233.52 C 298.29 233.13 297.52 232.35 297.14 231.95 C 296.28 233.34 295.73 236.62 293.45 235.19 C 292.68 236.23 291.80 237.16 290.80 237.97 C 289.73 236.86 288.70 235.61 287.12 235.28 C 282.49 226.39 277.76 217.43 275.11 207.69 C 274.93 208.42 274.56 209.88 274.38 210.60 C 273.41 209.44 272.46 208.29 271.51 207.13 C 271.18 207.45 270.51 208.09 270.18 208.41 C 268.07 205.05 266.50 201.41 265.07 197.73 C 263.84 202.33 261.72 207.21 263.42 211.98 C 266.49 221.67 269.44 231.91 267.71 242.15 C 266.54 249.46 265.12 256.74 263.31 263.93 C 261.75 270.19 263.79 276.60 263.14 282.93 C 262.31 292.28 258.46 301.36 259.72 310.85 C 261.10 315.29 262.75 319.71 262.80 324.42 C 261.90 325.54 261.03 326.68 260.23 327.89 C 258.53 328.48 256.77 328.90 255.00 329.22 C 253.48 323.93 254.48 318.38 253.51 313.02 C 253.29 311.49 253.23 309.95 253.32 308.40 C 251.69 307.80 250.06 307.22 248.45 306.61 C 247.50 305.57 246.50 304.60 245.47 303.66 C 244.61 300.54 244.43 297.31 244.50 294.09 C 243.75 288.31 239.49 284.02 236.85 279.07 C 232.72 271.18 232.80 262.04 231.80 253.40 C 231.39 245.79 229.78 238.03 231.69 230.50 C 233.33 224.01 234.94 217.51 236.89 211.10 C 238.53 206.03 236.33 200.91 235.65 195.88 C 234.06 199.97 232.25 204.00 229.71 207.59 C 229.43 207.28 228.89 206.67 228.62 206.37 C 227.50 207.50 226.37 208.62 225.26 209.76 C 225.08 208.97 224.71 207.39 224.53 206.60 C 222.01 216.55 216.40 225.22 211.72 234.22 C 211.21 234.32 210.20 234.52 209.69 234.62 C 209.27 235.17 208.44 236.28 208.02 236.83 C 206.80 235.96 205.93 234.78 205.32 233.44 C 204.98 233.72 204.32 234.28 203.99 234.56 C 202.89 233.54 202.19 232.24 201.69 230.86 C 199.79 232.46 198.30 230.21 197.65 228.59 C 196.29 228.49 195.33 227.61 194.47 226.66 C 192.03 226.72 192.37 223.84 192.00 222.23 L 190.90 223.41 C 189.69 222.81 188.40 222.52 187.04 222.52 C 186.18 221.46 186.69 219.88 186.47 218.65 C 184.48 219.66 183.78 218.45 183.48 216.69 C 181.06 216.50 181.62 213.74 181.36 212.09 C 180.74 212.31 179.51 212.75 178.90 212.97 C 178.75 211.80 178.63 210.63 178.52 209.45 C 175.75 209.92 175.63 207.39 175.90 205.32 C 172.80 206.04 167.71 203.01 169.64 199.28 C 168.22 199.21 166.40 200.05 165.29 198.76 C 163.39 195.87 165.08 192.46 166.32 189.68 C 164.31 191.19 162.52 194.80 159.53 193.42 C 156.25 191.79 157.64 187.51 158.87 184.99 C 156.37 186.75 153.60 185.90 151.42 184.19 C 151.99 181.81 153.13 179.64 154.89 177.93 C 152.95 178.59 150.95 179.07 148.95 179.52 C 147.40 178.59 144.85 177.17 146.39 175.01 C 149.70 169.27 157.04 168.29 161.59 163.92 C 159.12 164.97 156.85 166.69 154.10 166.91 C 148.64 167.08 144.09 171.77 138.50 170.71 C 136.22 170.31 136.96 167.51 138.38 166.55 C 143.25 162.46 149.52 160.80 155.25 158.32 C 152.45 158.44 149.67 159.11 146.85 158.82 C 140.96 157.78 134.72 162.08 129.13 158.78 C 127.23 157.10 129.86 155.00 131.43 154.39 C 137.44 151.88 144.03 151.06 150.49 150.63 C 150.94 150.50 151.84 150.25 152.29 150.12 L 152.67 149.76 L 152.69 149.42 C 150.11 150.08 147.47 150.64 144.87 149.70 C 137.35 147.27 128.62 149.77 121.83 145.00 C 127.97 140.50 136.13 142.91 143.19 142.18 C 136.19 138.28 127.46 138.64 120.92 133.70 C 121.03 133.37 121.25 132.71 121.36 132.39 C 129.18 131.65 136.81 134.13 144.51 135.03 C 137.82 131.12 129.55 129.87 124.09 123.95 C 130.92 123.63 137.33 126.42 143.78 128.25 C 147.65 129.65 151.86 129.66 155.73 131.10 C 163.27 133.90 171.09 136.07 178.32 139.61 C 177.17 138.61 176.20 137.45 175.42 136.15 C 181.37 133.99 187.14 137.80 191.72 141.22 C 201.27 149.15 206.12 161.29 215.79 169.10 C 218.60 170.78 222.10 170.22 225.23 170.20 C 227.44 169.23 229.22 167.44 231.34 166.25 C 231.13 164.56 230.98 162.87 230.86 161.18 C 235.37 163.18 240.46 163.34 245.16 161.93 C 244.86 160.66 244.56 159.40 244.24 158.14 C 240.12 159.32 235.60 159.15 231.84 156.97 C 231.27 153.94 227.81 152.85 226.88 149.95 C 229.94 149.28 232.64 146.19 231.38 142.98 C 230.32 139.23 224.81 138.33 222.62 141.56 C 220.25 144.17 222.74 147.25 223.08 150.10 C 223.33 152.89 225.27 154.98 227.04 156.99 C 222.07 157.82 216.56 157.77 212.27 154.76 C 208.09 152.21 205.58 146.89 207.15 142.10 C 208.51 137.04 212.93 133.77 217.20 131.21 C 219.49 130.59 218.41 126.69 216.09 127.43 C 211.65 129.72 207.48 132.88 204.88 137.22 C 201.98 135.72 199.01 133.52 198.31 130.14 C 197.41 127.28 198.47 124.40 199.36 121.70 C 197.14 119.21 194.42 116.93 193.45 113.61 C 192.46 110.86 192.91 107.91 193.49 105.12 C 198.68 106.21 204.04 105.83 209.01 103.97 C 211.91 106.17 216.59 106.08 218.50 102.65 C 221.20 98.80 217.64 92.90 212.97 93.50 C 209.34 93.53 207.62 97.11 207.13 100.21 C 197.56 104.89 185.11 99.01 182.06 88.98 C 180.49 83.43 181.84 77.06 186.06 73.01 C 188.61 70.00 192.35 68.52 195.45 66.21 C 193.56 62.06 191.66 57.25 193.86 52.81 C 195.95 46.06 203.67 42.94 210.24 44.32 C 210.96 47.03 212.78 50.00 215.94 50.00 C 220.80 50.75 224.46 44.39 221.33 40.58 C 219.06 36.92 213.87 37.62 211.21 40.44 C 207.25 39.82 203.22 40.14 199.41 41.36 C 197.82 38.27 197.33 34.33 199.23 31.27 C 201.73 27.25 206.56 25.56 210.98 24.73 C 213.62 24.23 215.41 26.71 217.82 27.01 C 218.29 26.50 219.24 25.49 219.71 24.98 C 216.77 20.62 211.07 20.02 206.43 21.60 C 208.42 17.25 212.08 13.46 216.85 12.33 C 220.46 11.17 224.23 11.93 227.88 12.42 M 224.22 19.04 C 221.65 23.61 224.16 29.20 228.35 31.78 C 229.79 32.80 230.65 30.70 231.49 29.94 C 229.56 27.54 225.95 24.96 227.55 21.44 C 228.04 19.78 230.57 17.87 228.76 16.25 C 226.76 14.47 225.11 17.56 224.22 19.04 M 195.56 70.52 C 200.18 74.95 207.47 75.68 213.20 73.07 C 213.06 72.36 212.78 70.96 212.64 70.26 C 210.23 69.26 207.48 71.15 204.91 70.59 C 201.88 70.46 199.48 68.49 197.01 67.00 C 195.11 66.54 193.96 69.40 195.56 70.52 M 200.46 120.48 C 201.47 120.79 202.42 122.37 203.56 121.63 C 205.32 120.01 206.65 117.70 209.12 117.08 C 211.63 116.20 216.03 116.40 214.65 112.41 C 208.86 111.82 202.43 114.70 200.46 120.48 M 248.57 236.94 C 247.96 247.72 244.75 258.16 244.26 268.96 C 247.77 273.59 247.42 279.54 248.46 284.95 C 249.71 287.18 251.25 289.40 251.14 292.10 C 250.97 295.95 253.00 299.31 253.71 303.00 C 254.16 294.33 251.44 285.73 252.85 277.09 C 253.77 271.72 251.61 266.46 251.82 261.08 C 252.05 252.30 249.98 243.54 251.30 234.79 C 249.79 234.73 248.29 235.15 248.57 236.94 Z" />
<path fill="#ffffff" opacity="1.00" d=" M 255.76 20.76 C 267.68 20.68 278.92 25.79 288.51 32.52 C 301.31 42.20 311.52 56.65 312.49 73.07 C 313.58 91.46 305.56 109.19 294.55 123.50 C 288.35 131.25 281.07 138.25 276.26 147.02 C 273.09 147.00 269.92 147.00 266.75 147.01 C 266.74 134.92 266.77 122.83 266.73 110.74 C 271.34 106.80 276.26 103.22 280.61 98.99 C 280.20 98.45 279.38 97.37 278.97 96.83 C 271.24 96.62 263.49 96.82 255.76 96.75 C 255.79 71.42 255.76 46.09 255.76 20.76 Z" />
<path fill="#ffffff" opacity="1.00" d=" M 215.20 42.27 C 217.97 40.35 219.97 45.46 216.95 45.99 C 214.62 46.75 213.66 43.47 215.20 42.27 Z" />
<path fill="#ffffff" opacity="1.00" d=" M 232.37 67.39 C 235.00 65.77 236.77 68.52 235.77 70.92 C 233.38 71.47 230.94 70.00 232.37 67.39 Z" />
<path fill="#ffffff" opacity="1.00" d=" M 211.56 97.66 C 212.84 97.78 214.86 96.90 215.30 98.71 C 216.11 100.04 214.76 101.91 213.21 101.48 C 210.96 101.69 211.72 99.05 211.56 97.66 Z" />
<path fill="#ffffff" opacity="1.00" d=" M 233.57 113.64 C 236.34 112.78 237.05 118.03 234.17 117.65 C 231.68 118.27 231.04 113.91 233.57 113.64 Z" />
<path fill="#ffffff" opacity="1.00" d=" M 226.15 143.26 C 227.89 142.64 228.76 145.50 226.96 145.94 C 225.29 146.53 224.43 143.68 226.15 143.26 Z" />
<path fill="#ffffff" opacity="1.00" d=" M 361.53 337.76 C 368.62 336.18 377.11 337.21 382.16 342.93 C 386.33 347.92 386.86 354.80 386.94 361.03 C 386.85 367.45 386.17 374.67 381.44 379.51 C 375.40 385.39 365.66 385.91 358.15 382.85 C 352.49 380.53 349.21 374.70 348.48 368.84 C 347.51 361.86 347.48 354.50 349.83 347.79 C 351.59 342.64 356.31 338.94 361.53 337.76 M 363.38 346.56 C 359.71 348.00 358.71 352.34 358.29 355.85 C 357.92 361.17 357.58 366.90 359.91 371.85 C 362.09 376.47 368.58 376.79 372.59 374.59 C 376.09 371.95 376.52 367.13 376.76 363.10 C 376.82 358.27 376.97 352.99 374.27 348.77 C 371.85 345.43 366.94 345.39 363.38 346.56 Z" />
<path fill="#ffffff" opacity="1.00" d=" M 134.22 338.75 C 142.12 338.79 150.03 338.56 157.93 338.88 C 165.29 339.22 172.79 342.98 176.20 349.73 C 179.43 356.29 179.75 364.30 177.13 371.11 C 174.25 378.31 166.56 382.38 159.09 382.83 C 150.81 383.22 142.52 382.90 134.23 383.00 C 134.23 380.19 134.23 377.38 134.23 374.58 C 136.26 374.57 138.28 374.57 140.31 374.58 C 140.31 365.44 140.31 356.30 140.31 347.16 C 138.29 347.15 136.26 347.15 134.24 347.16 C 134.23 344.36 134.23 341.55 134.22 338.75 M 150.02 347.14 C 150.01 356.29 150.01 365.44 150.02 374.60 C 154.75 374.55 159.95 374.86 164.06 372.09 C 167.38 369.94 168.80 365.85 168.76 362.04 C 168.87 357.42 167.61 352.20 163.58 349.45 C 159.60 346.74 154.58 347.20 150.02 347.14 Z" />
<path fill="#ffffff" opacity="1.00" d=" M 187.56 338.73 C 199.00 338.73 210.44 338.73 221.89 338.73 C 223.44 343.36 224.98 348.00 226.55 352.63 C 223.90 353.54 221.25 354.44 218.60 355.35 C 217.66 352.62 216.74 349.89 215.81 347.16 C 211.65 347.15 207.49 347.16 203.33 347.16 C 203.33 350.24 203.33 353.32 203.33 356.41 C 207.41 356.40 211.50 356.40 215.58 356.41 C 215.58 359.18 215.58 361.96 215.58 364.73 C 211.50 364.74 207.43 364.74 203.35 364.73 C 203.32 368.01 203.32 371.29 203.33 374.58 C 208.16 374.57 212.99 374.57 217.83 374.59 C 218.71 372.13 219.59 369.67 220.47 367.22 C 223.10 368.14 225.73 369.07 228.36 370.00 C 226.86 374.33 225.34 378.66 223.84 383.00 C 211.72 383.00 199.60 383.00 187.48 383.00 C 187.48 380.19 187.48 377.38 187.48 374.58 C 189.51 374.57 191.53 374.57 193.56 374.58 C 193.58 365.44 193.61 356.30 193.64 347.16 C 191.61 347.15 189.58 347.15 187.56 347.15 C 187.56 344.35 187.56 341.54 187.56 338.73 Z" />
<path fill="#ffffff" opacity="1.00" d=" M 236.06 338.74 C 242.85 338.72 249.65 338.76 256.44 338.71 C 261.50 348.83 266.29 359.07 271.36 369.18 C 271.39 361.84 271.36 354.50 271.38 347.16 C 269.52 347.15 267.66 347.15 265.81 347.15 C 265.81 344.34 265.81 341.54 265.81 338.73 C 272.80 338.73 279.79 338.73 286.78 338.73 C 286.78 341.54 286.78 344.35 286.78 347.16 C 284.47 347.15 282.17 347.15 279.86 347.16 C 279.86 359.10 279.86 371.05 279.86 383.00 C 276.17 383.00 272.47 382.99 268.78 383.02 C 262.70 371.06 256.70 359.06 250.64 347.09 C 250.64 356.25 250.65 365.41 250.64 374.58 C 252.74 374.57 254.84 374.57 256.94 374.58 C 256.94 377.38 256.94 380.19 256.94 383.00 C 249.96 383.00 242.97 383.00 235.98 383.00 C 235.98 380.19 235.98 377.39 235.99 374.58 C 238.06 374.57 240.14 374.57 242.22 374.56 C 242.21 365.42 242.22 356.29 242.22 347.16 C 240.16 347.15 238.11 347.15 236.06 347.15 C 236.06 344.35 236.06 341.54 236.06 338.74 Z" />
<path fill="#ffffff" opacity="1.00" d=" M 294.48 338.73 C 301.98 338.78 309.49 338.63 316.99 338.80 C 323.96 338.95 331.25 341.79 335.25 347.74 C 339.61 354.31 340.12 363.05 337.65 370.43 C 334.96 378.11 326.87 382.48 319.06 382.85 C 310.87 383.19 302.67 382.91 294.48 383.00 C 294.48 380.19 294.48 377.38 294.48 374.58 C 296.51 374.57 298.53 374.57 300.56 374.58 C 300.56 365.44 300.56 356.30 300.56 347.16 C 298.53 347.15 296.51 347.15 294.48 347.15 C 294.48 344.34 294.48 341.54 294.48 338.73 M 310.27 347.14 C 310.27 356.30 310.25 365.45 310.28 374.61 C 314.75 374.54 319.57 374.84 323.60 372.53 C 327.00 370.70 328.82 366.83 328.97 363.08 C 329.25 358.31 328.27 352.81 324.23 349.76 C 320.26 346.71 314.98 347.20 310.27 347.14 Z" />
</g>
</svg>
