<?xml version="1.0" encoding="UTF-8" ?>
<!DOCTYPE svg PUBLIC "-//W3C//DTD SVG 1.1//EN" "http://www.w3.org/Graphics/SVG/1.1/DTD/svg11.dtd">
<svg width="1080pt" height="1080pt" viewBox="0 0 1080 1080" version="1.1" xmlns="http://www.w3.org/2000/svg">
<g id="#58544f60">
<path fill="#58544f" opacity="0.38" d=" M 589.01 358.11 C 592.16 356.83 595.93 357.33 599.25 357.83 C 600.41 359.01 601.05 360.60 601.44 362.19 L 601.45 362.24 C 599.69 360.62 598.02 358.80 595.83 357.78 C 591.41 356.91 588.02 360.39 584.91 362.91 C 583.55 363.63 582.50 364.82 582.22 366.36 C 575.29 370.86 569.86 377.92 568.39 386.16 C 568.04 389.71 570.79 392.52 572.40 395.43 C 574.67 399.77 577.86 403.51 581.92 406.29 C 583.19 407.46 584.37 408.75 585.56 410.03 C 582.79 408.12 579.71 406.79 576.73 405.28 C 573.63 401.10 570.88 396.64 567.77 392.46 C 566.88 387.20 566.73 381.28 569.80 376.64 C 574.10 368.54 582.54 364.20 589.01 358.11 Z" />
<path fill="#58544f" opacity="0.38" d=" M 665.09 507.76 C 668.14 508.26 670.08 510.81 672.17 512.84 C 674.51 515.29 677.44 517.46 678.36 520.90 C 674.22 516.24 669.58 512.07 665.09 507.76 Z" />
<path fill="#58544f" opacity="0.38" d=" M 432.42 524.33 C 435.69 524.09 438.96 523.82 442.24 523.72 C 442.85 523.82 444.06 524.02 444.67 524.12 C 450.75 527.25 457.78 526.20 464.32 525.66 C 464.79 525.70 465.74 525.77 466.21 525.80 C 463.30 527.10 460.07 526.56 456.99 526.59 C 452.77 526.45 448.42 527.14 444.36 525.67 C 440.65 524.30 436.67 524.55 432.80 524.71 C 432.92 529.27 432.54 533.84 430.93 538.14 C 429.44 547.38 432.54 557.18 429.00 566.13 C 427.94 571.91 429.25 577.87 428.42 583.69 C 428.22 584.01 427.82 584.63 427.61 584.95 C 428.21 581.19 428.28 577.37 427.82 573.61 C 428.21 569.39 428.26 565.14 428.94 560.95 C 430.11 557.61 430.31 554.06 429.88 550.56 C 430.37 544.35 430.03 538.09 431.05 531.92 C 431.59 529.40 431.99 526.86 432.42 524.33 Z" />
<path fill="#58544f" opacity="0.38" d=" M 331.58 730.22 C 331.42 728.18 333.71 727.76 335.12 727.06 C 334.22 729.13 333.16 731.15 332.56 733.34 C 331.85 735.30 333.73 736.85 334.54 738.47 C 336.90 741.71 338.21 745.53 340.04 749.07 C 339.71 749.60 339.05 750.67 338.72 751.20 L 338.09 751.35 C 337.35 747.46 336.02 743.60 333.33 740.62 C 330.53 737.91 331.41 733.70 331.58 730.22 Z" />
</g>
<g id="#141b3fae">
<path fill="#141b3f" opacity="0.68" d=" M 584.91 362.91 C 588.02 360.39 591.41 356.91 595.83 357.78 C 598.02 358.80 599.69 360.62 601.45 362.24 C 601.92 366.14 602.31 371.04 598.24 373.20 C 598.83 369.82 600.95 366.16 599.10 362.83 C 597.94 360.79 595.80 358.56 593.23 359.17 C 590.04 360.78 587.78 363.69 584.86 365.70 C 584.87 365.00 584.89 363.61 584.91 362.91 Z" />
</g>
<g id="#2d3667ff">
<path fill="#2d3667" opacity="1.00" d=" M 584.86 365.70 C 587.78 363.69 590.04 360.78 593.23 359.17 C 595.80 358.56 597.94 360.79 599.10 362.83 C 600.95 366.16 598.83 369.82 598.24 373.20 C 598.28 374.09 598.38 374.96 598.49 375.85 C 598.42 378.27 599.74 380.29 601.04 382.22 C 601.53 383.79 601.52 385.46 601.46 387.09 C 599.56 388.61 597.62 390.30 596.87 392.71 L 596.70 393.23 C 595.88 393.81 595.06 394.40 594.25 394.98 C 593.74 392.69 593.29 390.39 592.72 388.11 C 589.97 388.17 587.22 388.25 584.47 388.18 C 584.56 388.84 584.75 390.15 584.84 390.81 C 580.38 388.46 576.74 384.98 573.00 381.67 C 571.60 386.19 573.08 390.85 572.40 395.43 C 570.79 392.52 568.04 389.71 568.39 386.16 C 569.86 377.92 575.29 370.86 582.22 366.36 C 582.88 366.19 584.20 365.86 584.86 365.70 Z" />
<path fill="#2d3667" opacity="1.00" d=" M 336.16 724.63 C 339.06 726.35 342.01 728.00 344.99 729.58 C 345.35 729.78 346.08 730.18 346.44 730.38 C 346.16 734.12 345.75 737.94 346.47 741.67 C 347.02 744.35 349.59 745.81 351.43 747.57 C 352.84 748.87 354.27 750.16 355.68 751.48 C 350.79 750.84 345.85 750.71 340.93 750.59 C 340.71 750.21 340.26 749.45 340.04 749.07 C 338.21 745.53 336.90 741.71 334.54 738.47 C 333.73 736.85 331.85 735.30 332.56 733.34 C 333.16 731.15 334.22 729.13 335.12 727.06 L 335.47 726.29 C 335.64 725.87 335.99 725.04 336.16 724.63 Z" />
</g>
<g id="#ffb071ff">
<path fill="#ffb071" opacity="1.00" d=" M 601.45 362.24 L 601.44 362.19 C 602.99 366.06 602.13 370.31 599.86 373.69 C 599.51 374.23 598.83 375.31 598.49 375.85 C 598.38 374.96 598.28 374.09 598.24 373.20 C 602.31 371.04 601.92 366.14 601.45 362.24 Z" />
<path fill="#ffb071" opacity="1.00" d=" M 573.00 381.67 C 576.74 384.98 580.38 388.46 584.84 390.81 C 584.75 390.15 584.56 388.84 584.47 388.18 C 587.22 388.25 589.97 388.17 592.72 388.11 C 593.29 390.39 593.74 392.69 594.25 394.98 C 595.06 394.40 595.88 393.81 596.70 393.23 C 595.13 398.44 596.78 405.05 602.37 407.00 C 601.30 409.76 600.01 412.87 597.01 414.01 C 593.63 415.68 589.96 414.08 586.73 412.89 C 586.73 411.78 586.71 410.69 586.68 409.59 C 590.32 406.72 592.55 402.59 593.26 398.04 C 590.20 400.29 587.38 402.85 584.79 405.63 C 584.07 405.80 582.63 406.12 581.92 406.29 C 577.86 403.51 574.67 399.77 572.40 395.43 C 573.08 390.85 571.60 386.19 573.00 381.67 Z" />
<path fill="#ffb071" opacity="1.00" d=" M 693.65 423.21 C 697.05 421.88 700.72 422.30 704.29 422.23 C 705.04 424.05 706.69 425.74 706.65 427.78 C 704.57 431.33 700.78 433.36 697.65 435.87 L 697.21 436.20 L 696.52 435.75 C 694.56 434.27 692.18 433.62 689.83 433.09 C 689.73 432.16 689.63 431.24 689.54 430.32 C 691.29 428.86 693.16 427.55 694.91 426.07 C 690.75 424.65 686.32 424.21 682.05 425.36 C 685.79 424.04 689.88 424.51 693.65 423.21 Z" />
<path fill="#ffb071" opacity="1.00" d=" M 565.00 433.87 L 565.03 434.75 C 564.91 436.15 564.82 437.55 564.89 438.96 C 569.06 445.90 578.34 445.92 585.39 447.79 L 584.41 447.98 C 582.31 448.35 579.84 448.52 578.73 450.63 C 573.33 458.81 566.80 466.11 560.90 473.90 C 557.07 478.09 553.19 482.51 548.00 485.03 C 543.50 487.25 538.98 489.42 534.74 492.10 C 531.03 493.43 527.19 496.33 523.14 495.00 C 522.52 493.42 522.12 491.76 521.89 490.09 C 526.96 484.05 534.65 481.31 540.99 476.93 C 545.48 472.65 550.39 468.59 553.43 463.07 C 558.16 457.25 560.74 450.08 564.23 443.51 C 564.46 440.32 564.07 437.02 565.00 433.87 Z" />
<path fill="#ffb071" opacity="1.00" d=" M 407.35 455.33 C 408.65 452.41 409.07 448.44 412.18 446.82 C 416.02 446.92 419.65 448.39 423.42 448.99 C 423.50 449.55 423.67 450.67 423.75 451.24 C 423.76 451.90 423.79 453.24 423.80 453.91 C 423.39 457.90 423.44 461.91 423.03 465.90 C 422.76 468.65 420.29 470.34 418.44 472.10 C 413.66 470.78 408.74 470.18 403.89 469.26 C 407.72 473.05 412.26 476.01 417.22 478.11 C 417.12 480.76 417.16 483.41 417.26 486.07 C 410.28 486.10 404.47 482.18 398.85 478.55 C 401.31 475.00 401.17 470.52 401.91 466.44 C 402.74 462.80 402.46 459.06 402.11 455.38 C 403.85 455.36 405.60 455.35 407.35 455.33 Z" />
</g>
<g id="#73747886">
<path fill="#737478" opacity="0.53" d=" M 582.22 366.36 C 582.50 364.82 583.55 363.63 584.91 362.91 C 584.89 363.61 584.87 365.00 584.86 365.70 C 584.20 365.86 582.88 366.19 582.22 366.36 Z" />
</g>
<g id="#494a536a">
<path fill="#494a53" opacity="0.42" d=" M 599.86 373.69 C 602.48 378.92 603.75 385.15 601.93 390.83 C 600.62 392.82 598.77 394.36 597.41 396.30 C 597.24 399.50 599.29 402.44 601.75 404.33 C 603.88 406.62 606.62 403.69 609.08 403.52 C 612.80 403.24 616.92 402.70 620.33 404.60 C 618.80 404.70 617.27 404.75 615.75 404.73 C 611.17 404.40 606.77 405.97 602.37 407.00 C 596.78 405.05 595.13 398.44 596.70 393.23 L 596.87 392.71 C 599.04 391.44 600.78 389.56 601.46 387.09 C 601.52 385.46 601.53 383.79 601.04 382.22 C 600.48 379.99 599.61 377.85 598.49 375.85 C 598.83 375.31 599.51 374.23 599.86 373.69 Z" />
</g>
<g id="#0f173fb1">
<path fill="#0f173f" opacity="0.69" d=" M 601.04 382.22 C 599.74 380.29 598.42 378.27 598.49 375.85 C 599.61 377.85 600.48 379.99 601.04 382.22 Z" />
</g>
<g id="#0b1341c3">
<path fill="#0b1341" opacity="0.76" d=" M 596.87 392.71 C 597.62 390.30 599.56 388.61 601.46 387.09 C 600.78 389.56 599.04 391.44 596.87 392.71 Z" />
</g>
<g id="#f8934aff">
<path fill="#f8934a" opacity="1.00" d=" M 584.79 405.63 C 587.38 402.85 590.20 400.29 593.26 398.04 C 592.55 402.59 590.32 406.72 586.68 409.59 C 586.08 408.25 585.43 406.94 584.79 405.63 Z" />
</g>
<g id="#6298f5ff">
<path fill="#6298f5" opacity="1.00" d=" M 602.37 407.00 C 606.77 405.97 611.17 404.40 615.75 404.73 C 621.75 405.74 627.77 407.68 632.15 412.13 C 632.19 414.79 632.24 417.46 632.09 420.13 C 629.09 419.38 626.08 418.67 623.06 418.03 C 624.57 421.60 626.49 425.11 626.94 429.02 C 627.32 431.99 627.56 434.99 628.25 437.92 C 630.56 446.48 631.65 455.28 633.27 463.98 C 633.62 470.61 633.64 477.30 633.23 483.93 C 633.11 486.57 630.42 487.75 628.37 488.75 C 615.54 489.76 602.28 492.29 589.69 488.37 C 589.67 486.67 589.59 484.99 589.48 483.31 C 589.20 478.21 588.83 473.10 588.93 467.99 C 588.83 464.01 589.38 459.81 587.63 456.09 C 586.43 453.46 585.94 450.60 585.39 447.79 C 578.34 445.92 569.06 445.90 564.89 438.96 C 564.82 437.55 564.91 436.15 565.03 434.75 C 566.86 431.69 568.10 428.21 570.57 425.57 C 573.43 422.71 575.90 419.02 580.20 418.33 C 583.25 417.80 585.61 415.75 586.73 412.89 C 589.96 414.08 593.63 415.68 597.01 414.01 C 600.01 412.87 601.30 409.76 602.37 407.00 Z" />
<path fill="#6298f5" opacity="1.00" d=" M 742.92 588.34 C 749.64 589.13 756.42 588.72 763.17 588.81 C 763.98 594.17 763.71 599.60 763.67 605.00 C 763.67 650.00 763.67 695.00 763.67 739.99 C 763.80 754.71 763.36 769.43 763.93 784.13 C 735.59 784.31 707.24 783.88 678.90 784.35 C 678.50 763.90 678.83 743.45 678.73 723.00 C 678.98 678.38 678.64 633.75 678.96 589.14 C 700.26 588.00 721.62 589.53 742.92 588.34 Z" />
<path fill="#6298f5" opacity="1.00" d=" M 340.93 750.59 C 345.85 750.71 350.79 750.84 355.68 751.48 C 365.37 752.97 375.23 752.09 384.99 751.99 C 390.09 752.43 395.24 752.41 400.28 751.38 C 409.49 750.58 418.77 751.14 428.01 751.03 C 429.17 751.27 430.32 751.51 431.50 751.72 C 433.01 752.03 434.53 752.36 436.07 752.60 C 436.22 763.28 436.16 773.97 436.14 784.66 C 387.61 784.68 339.09 784.52 290.57 784.73 C 288.91 781.30 290.43 777.59 290.28 774.01 C 290.27 766.76 290.26 759.51 290.27 752.26 C 303.85 752.25 317.43 752.24 331.01 752.28 C 333.40 752.33 335.77 751.92 338.09 751.35 L 338.72 751.20 C 339.27 751.04 340.37 750.74 340.93 750.59 Z" />
</g>
<g id="#666e7e8d">
<path fill="#666e7e" opacity="0.55" d=" M 581.92 406.29 C 582.63 406.12 584.07 405.80 584.79 405.63 C 585.43 406.94 586.08 408.25 586.68 409.59 C 586.71 410.69 586.73 411.78 586.73 412.89 C 585.61 415.75 583.25 417.80 580.20 418.33 C 580.98 415.00 584.42 413.23 585.56 410.03 C 584.37 408.75 583.19 407.46 581.92 406.29 Z" />
</g>
<g id="#f9954cff">
<path fill="#f9954c" opacity="1.00" d=" M 632.15 412.13 C 636.05 415.91 641.31 417.54 646.38 419.06 C 652.19 422.16 658.50 424.34 664.93 425.66 C 670.63 425.64 676.39 426.12 682.05 425.36 C 686.32 424.21 690.75 424.65 694.91 426.07 C 693.16 427.55 691.29 428.86 689.54 430.32 C 689.63 431.24 689.73 432.16 689.83 433.09 C 684.78 435.20 679.58 437.43 674.02 437.47 C 667.58 437.48 661.04 437.89 654.73 436.39 C 646.13 434.47 637.43 433.07 628.91 430.85 C 630.25 427.37 631.61 423.85 632.09 420.13 C 632.24 417.46 632.19 414.79 632.15 412.13 Z" />
</g>
<g id="#417cdcff">
<path fill="#417cdc" opacity="1.00" d=" M 623.06 418.03 C 626.08 418.67 629.09 419.38 632.09 420.13 C 631.61 423.85 630.25 427.37 628.91 430.85 C 628.79 431.40 628.56 432.48 628.45 433.02 C 628.29 434.64 628.23 436.28 628.25 437.92 C 627.56 434.99 627.32 431.99 626.94 429.02 C 626.49 425.11 624.57 421.60 623.06 418.03 Z" />
</g>
<g id="#7c79757c">
<path fill="#7c7975" opacity="0.49" d=" M 704.29 422.23 C 708.76 422.83 708.31 428.25 707.45 431.51 C 704.90 434.08 701.34 435.96 697.65 435.87 C 700.78 433.36 704.57 431.33 706.65 427.78 C 706.69 425.74 705.04 424.05 704.29 422.23 Z" />
<path fill="#7c7975" opacity="0.49" d=" M 654.10 530.90 C 656.62 532.32 659.03 533.95 661.26 535.80 C 662.66 538.42 664.22 540.96 665.80 543.48 C 666.94 545.47 668.24 547.36 669.62 549.21 C 669.67 549.62 669.76 550.44 669.81 550.85 C 668.48 549.65 667.14 548.46 665.87 547.22 C 663.40 544.12 662.55 540.04 659.94 537.04 C 658.08 534.90 656.00 532.98 654.10 530.90 Z" />
<path fill="#7c7975" opacity="0.49" d=" M 582.72 539.79 L 583.47 540.59 C 583.20 544.89 582.72 549.17 581.99 553.42 C 581.17 548.90 581.17 544.16 582.72 539.79 Z" />
<path fill="#7c7975" opacity="0.49" d=" M 364.27 556.20 C 367.19 551.84 369.18 546.85 372.72 542.93 C 373.91 543.26 375.10 543.60 376.29 543.94 C 375.58 554.41 373.54 564.70 371.94 575.05 C 371.57 577.30 371.61 579.59 371.90 581.85 C 372.52 585.27 372.02 588.73 371.05 592.04 C 369.86 595.60 370.02 599.38 370.14 603.08 C 369.66 604.72 369.57 606.51 370.31 608.11 C 367.45 613.66 367.11 620.06 364.55 625.68 C 365.00 620.32 365.98 614.98 368.10 610.01 C 371.24 603.19 367.84 595.41 370.54 588.48 C 372.28 584.17 371.09 579.48 371.37 574.99 C 371.20 570.19 373.66 565.79 373.43 560.98 C 373.11 555.32 376.33 550.07 375.22 544.39 C 371.00 546.22 369.93 551.09 367.51 554.57 C 363.23 560.59 360.44 567.46 356.97 573.94 C 354.65 578.27 353.71 583.16 351.50 587.54 C 350.34 587.38 349.19 587.21 348.05 587.04 L 348.60 586.38 C 350.50 584.55 352.45 582.57 352.87 579.83 C 353.23 578.44 353.45 577.03 353.75 575.64 C 355.93 571.51 358.48 567.59 360.38 563.32 C 361.64 560.92 362.95 558.56 364.27 556.20 Z" />
<path fill="#7c7975" opacity="0.49" d=" M 382.79 665.07 C 385.00 665.87 386.47 667.64 387.24 669.82 C 387.69 671.99 388.20 674.15 388.56 676.35 C 388.59 680.55 388.20 684.79 388.79 688.98 C 390.42 697.72 391.61 706.54 393.58 715.22 C 394.70 722.37 397.13 729.28 397.69 736.53 C 396.09 733.45 395.05 730.14 394.33 726.76 C 391.91 714.21 389.16 701.71 387.48 689.05 C 388.05 681.40 386.72 673.90 384.79 666.53 C 383.48 668.02 382.23 669.59 381.33 671.38 C 376.54 680.82 372.38 690.63 366.53 699.49 C 362.62 707.19 357.77 714.35 353.90 722.07 C 351.27 727.32 345.57 731.63 346.32 738.05 C 346.43 741.82 349.49 744.57 351.43 747.57 C 349.59 745.81 347.02 744.35 346.47 741.67 C 345.75 737.94 346.16 734.12 346.44 730.38 C 352.30 722.92 356.25 714.24 361.16 706.17 C 368.72 692.67 376.75 679.34 382.79 665.07 Z" />
</g>
<g id="#540c097f">
<path fill="#540c09" opacity="0.50" d=" M 396.79 435.81 C 403.52 433.86 410.19 429.91 417.42 431.77 C 421.17 432.35 422.16 436.44 423.81 439.24 C 425.18 442.22 427.88 444.26 429.62 446.99 C 429.24 448.13 428.71 449.22 428.21 450.32 C 427.95 449.96 427.44 449.23 427.18 448.87 C 423.19 443.64 421.83 436.44 416.00 432.71 C 414.37 430.85 411.79 431.59 410.13 432.96 C 406.16 434.38 401.95 435.29 398.23 437.32 C 394.63 439.72 391.95 443.20 388.83 446.15 C 388.70 444.95 388.56 443.76 388.43 442.57 C 390.82 439.90 393.16 436.80 396.79 435.81 Z" />
<path fill="#540c09" opacity="0.50" d=" M 421.60 626.24 C 421.51 621.38 421.11 616.41 422.68 611.73 C 422.58 616.58 422.17 621.42 421.60 626.24 Z" />
<path fill="#540c09" opacity="0.50" d=" M 588.99 632.45 C 589.39 632.24 590.19 631.82 590.59 631.62 C 609.73 632.02 628.89 631.32 648.03 631.90 C 648.26 636.93 648.25 641.96 648.19 647.00 C 648.17 692.71 648.00 738.42 648.12 784.13 L 647.23 784.13 C 647.88 765.77 647.33 747.38 647.52 729.00 C 647.47 703.75 647.58 678.50 647.39 653.25 C 647.42 646.40 647.65 639.55 647.29 632.71 C 637.42 632.34 627.55 632.59 617.68 632.64 C 616.96 632.62 615.52 632.59 614.80 632.57 C 606.20 632.27 597.59 632.53 588.99 632.45 Z" />
</g>
<g id="#7f7c7780">
<path fill="#7f7c77" opacity="0.50" d=" M 628.45 433.02 C 628.56 432.48 628.79 431.40 628.91 430.85 C 637.43 433.07 646.13 434.47 654.73 436.39 C 661.04 437.89 667.58 437.48 674.02 437.47 C 679.58 437.43 684.78 435.20 689.83 433.09 C 692.18 433.62 694.56 434.27 696.52 435.75 C 693.35 435.62 690.07 434.89 687.01 436.08 C 683.15 437.56 679.17 438.91 674.97 438.50 C 667.19 438.08 659.20 439.48 651.61 437.23 C 644.41 435.91 637.27 434.40 630.08 433.07 C 630.01 437.95 630.88 442.73 632.21 447.41 C 632.24 451.75 633.38 455.89 634.40 460.06 C 634.64 468.72 634.45 477.40 634.46 486.07 L 633.63 485.50 C 633.50 481.32 634.27 477.18 634.16 473.01 C 633.99 459.48 630.70 446.28 628.45 433.02 Z" />
<path fill="#7f7c77" opacity="0.50" d=" M 578.73 450.63 C 579.84 448.52 582.31 448.35 584.41 447.98 C 580.19 453.27 575.14 457.98 571.90 464.00 C 570.10 467.68 566.37 469.85 564.34 473.37 C 560.81 479.41 555.22 484.07 548.75 486.69 C 544.12 488.55 539.98 492.39 534.74 492.10 C 538.98 489.42 543.50 487.25 548.00 485.03 C 553.19 482.51 557.07 478.09 560.90 473.90 C 566.80 466.11 573.33 458.81 578.73 450.63 Z" />
<path fill="#7f7c77" opacity="0.50" d=" M 505.61 503.04 C 505.78 503.48 506.12 504.35 506.29 504.79 C 508.86 504.28 511.43 503.76 514.04 503.49 C 511.61 506.05 507.79 506.02 504.99 507.97 C 498.62 512.22 491.51 515.13 484.77 518.71 C 478.94 521.92 472.46 523.63 466.21 525.80 C 465.74 525.77 464.79 525.70 464.32 525.66 L 463.28 525.06 L 464.28 524.66 C 469.61 522.75 475.15 521.31 480.08 518.42 C 485.02 516.53 489.82 514.27 494.31 511.46 C 498.49 509.44 504.16 508.05 505.61 503.04 Z" />
<path fill="#7f7c77" opacity="0.50" d=" M 617.46 522.51 C 620.27 521.43 623.34 520.72 626.28 521.81 C 624.33 521.85 622.35 521.84 620.51 522.52 C 618.02 524.94 616.86 528.36 615.45 531.46 C 612.08 541.20 606.72 550.05 602.36 559.35 C 599.83 565.16 595.10 569.53 591.90 574.93 C 589.36 578.44 588.43 582.73 586.65 586.61 C 582.40 595.06 579.58 604.14 575.76 612.79 C 574.82 614.76 574.58 616.94 574.12 619.05 C 573.88 619.45 573.38 620.23 573.14 620.62 C 572.83 618.79 572.68 616.92 572.81 615.07 C 574.38 612.41 575.82 609.67 576.86 606.77 C 579.25 600.11 582.20 593.66 584.35 586.92 C 584.58 586.43 585.03 585.45 585.26 584.96 C 586.64 582.03 587.93 579.06 589.27 576.11 C 592.24 570.12 596.80 565.17 600.17 559.44 C 604.50 553.14 607.78 546.19 610.42 539.04 C 613.19 533.72 615.22 528.06 617.46 522.51 Z" />
<path fill="#7f7c77" opacity="0.50" d=" M 665.87 547.22 C 667.14 548.46 668.48 549.65 669.81 550.85 C 670.36 551.20 671.44 551.90 671.99 552.25 C 672.82 553.59 673.69 554.92 674.52 556.29 C 675.26 557.90 676.42 559.26 677.82 560.36 C 679.28 562.34 680.81 564.29 682.50 566.09 C 683.94 567.86 685.42 569.60 686.91 571.33 C 688.04 573.03 689.26 574.67 690.63 576.20 L 690.48 577.01 C 689.54 580.42 688.78 583.89 688.24 587.40 C 685.17 587.69 682.10 587.85 679.05 588.21 L 678.96 589.14 C 678.64 633.75 678.98 678.38 678.73 723.00 C 678.83 743.45 678.50 763.90 678.90 784.35 L 678.12 784.10 C 678.63 737.40 677.89 690.70 678.06 644.00 C 678.20 625.16 677.79 606.31 678.28 587.48 C 681.23 587.54 684.20 587.53 687.16 587.39 C 687.75 584.58 688.52 581.83 689.36 579.09 C 687.24 576.06 685.56 572.69 682.99 570.01 C 679.06 566.24 676.41 561.43 672.92 557.29 C 670.88 553.71 667.41 551.09 665.87 547.22 Z" />
<path fill="#7f7c77" opacity="0.50" d=" M 427.65 574.48 L 427.82 573.61 C 428.28 577.37 428.21 581.19 427.61 584.95 C 426.56 587.87 426.49 590.97 426.44 594.05 C 426.37 596.81 424.45 599.15 424.53 601.94 C 424.35 606.21 425.06 610.62 423.72 614.77 C 421.29 621.87 423.29 629.46 422.29 636.75 C 421.83 639.19 420.42 641.40 420.45 643.94 C 420.38 650.31 420.72 656.68 420.48 663.04 C 420.45 666.14 418.53 668.85 418.49 671.95 C 418.33 678.16 418.84 684.40 418.37 690.61 C 418.33 691.96 417.49 693.07 416.83 694.21 C 416.83 692.68 416.85 691.17 416.88 689.67 C 417.35 686.55 417.50 683.39 417.45 680.24 C 417.50 674.68 417.89 669.12 418.67 663.61 C 419.38 660.21 419.51 656.73 419.50 653.27 C 419.93 647.36 420.38 641.46 420.75 635.56 C 421.00 634.01 421.22 632.46 421.36 630.91 C 421.46 629.34 421.53 627.79 421.60 626.24 C 422.17 621.42 422.58 616.58 422.68 611.73 C 423.71 606.24 423.18 600.59 424.46 595.14 C 424.58 594.62 424.80 593.59 424.92 593.07 C 425.94 589.23 426.42 585.28 426.60 581.32 C 426.92 579.03 427.25 576.75 427.65 574.48 Z" />
</g>
<g id="#7c1a15b7">
<path fill="#7c1a15" opacity="0.72" d=" M 410.13 432.96 C 411.79 431.59 414.37 430.85 416.00 432.71 C 414.10 433.36 412.08 433.17 410.13 432.96 Z" />
</g>
<g id="#b63b32ff">
<path fill="#b63b32" opacity="1.00" d=" M 398.23 437.32 C 401.95 435.29 406.16 434.38 410.13 432.96 C 412.08 433.17 414.10 433.36 416.00 432.71 C 421.83 436.44 423.19 443.64 427.18 448.87 C 425.92 448.75 424.66 448.79 423.42 448.99 C 419.65 448.39 416.02 446.92 412.18 446.82 C 409.07 448.44 408.65 452.41 407.35 455.33 C 405.60 455.35 403.85 455.36 402.11 455.38 C 402.46 459.06 402.74 462.80 401.91 466.44 L 401.18 466.04 C 396.37 461.24 392.42 455.65 389.34 449.61 C 389.12 448.46 388.95 447.30 388.83 446.15 C 391.95 443.20 394.63 439.72 398.23 437.32 Z" />
</g>
<g id="#1b3a75ff">
<path fill="#1b3a75" opacity="1.00" d=" M 628.45 433.02 C 630.70 446.28 633.99 459.48 634.16 473.01 C 634.27 477.18 633.50 481.32 633.63 485.50 C 633.78 488.08 636.13 489.53 638.01 490.91 C 641.90 493.54 645.96 495.92 649.76 498.70 C 644.46 502.03 641.20 507.50 637.00 511.98 C 634.40 514.77 632.20 517.93 630.62 521.41 C 626.77 520.46 622.95 519.40 619.17 518.20 C 622.17 511.03 624.61 503.65 627.35 496.38 C 628.29 493.95 628.41 491.32 628.37 488.75 C 630.42 487.75 633.11 486.57 633.23 483.93 C 633.64 477.30 633.62 470.61 633.27 463.98 C 631.65 455.28 630.56 446.48 628.25 437.92 C 628.23 436.28 628.29 434.64 628.45 433.02 Z" />
<path fill="#1b3a75" opacity="1.00" d=" M 378.56 507.07 C 379.42 506.76 380.30 506.51 381.18 506.24 C 378.20 517.07 377.29 528.29 376.52 539.46 C 375.21 540.57 373.93 541.71 372.72 542.93 C 369.18 546.85 367.19 551.84 364.27 556.20 C 362.74 558.44 361.48 560.84 360.38 563.32 C 358.48 567.59 355.93 571.51 353.75 575.64 C 351.48 574.69 349.24 573.69 347.08 572.52 C 349.65 566.68 350.20 560.25 351.16 554.02 C 353.31 546.56 355.45 538.98 359.57 532.33 C 359.76 532.06 360.12 531.54 360.30 531.28 C 361.79 529.31 363.24 527.32 364.66 525.30 C 365.15 524.60 365.67 523.92 366.20 523.26 C 367.76 521.34 369.26 519.37 370.72 517.38 C 371.01 517.02 371.57 516.31 371.85 515.96 C 373.64 513.85 375.20 511.57 376.64 509.22 C 377.04 508.59 377.51 508.03 378.06 507.54 L 378.56 507.07 Z" />
<path fill="#1b3a75" opacity="1.00" d=" M 407.05 518.08 C 414.69 521.04 422.91 521.44 430.98 522.23 C 431.04 525.46 431.05 528.69 431.05 531.92 C 427.88 535.63 429.03 540.82 428.89 545.29 C 418.58 539.29 411.55 528.90 407.05 518.08 Z" />
<path fill="#1b3a75" opacity="1.00" d=" M 424.92 593.07 C 424.80 589.08 424.16 584.81 426.60 581.32 C 426.42 585.28 425.94 589.23 424.92 593.07 Z" />
</g>
<g id="#826f6188">
<path fill="#826f61" opacity="0.53" d=" M 388.43 442.57 C 388.56 443.76 388.70 444.95 388.83 446.15 C 388.95 447.30 389.12 448.46 389.34 449.61 C 390.84 456.25 394.65 463.24 401.18 466.04 L 401.91 466.44 C 401.17 470.52 401.31 475.00 398.85 478.55 L 398.28 479.06 C 399.44 475.46 400.06 471.68 399.53 467.91 C 393.97 463.67 389.80 457.68 387.77 451.00 C 387.07 448.18 387.81 445.31 388.43 442.57 Z" />
</g>
<g id="#e5d6c3e6">
<path fill="#e5d6c3" opacity="0.90" d=" M 423.42 448.99 C 424.66 448.79 425.92 448.75 427.18 448.87 C 426.46 450.10 425.22 451.13 423.75 451.24 C 423.67 450.67 423.50 449.55 423.42 448.99 Z" />
</g>
<g id="#867f7686">
<path fill="#867f76" opacity="0.53" d=" M 427.18 448.87 C 427.44 449.23 427.95 449.96 428.21 450.32 C 427.20 451.93 425.89 453.81 423.80 453.91 C 423.79 453.24 423.76 451.90 423.75 451.24 C 425.22 451.13 426.46 450.10 427.18 448.87 Z" />
</g>
<g id="#85201ac3">
<path fill="#85201a" opacity="0.76" d=" M 389.34 449.61 C 392.42 455.65 396.37 461.24 401.18 466.04 C 394.65 463.24 390.84 456.25 389.34 449.61 Z" />
</g>
<g id="#a48265a5">
<path fill="#a48265" opacity="0.65" d=" M 423.03 465.90 C 423.44 461.91 423.39 457.90 423.80 453.91 C 424.78 458.56 424.52 463.38 424.21 468.09 C 423.81 471.70 420.30 473.58 418.65 476.56 C 418.18 479.76 418.51 483.02 418.29 486.25 L 417.26 486.07 C 417.16 483.41 417.12 480.76 417.22 478.11 C 417.50 476.08 417.94 474.08 418.44 472.10 C 420.29 470.34 422.76 468.65 423.03 465.90 Z" />
</g>
<g id="#8f939db1">
<path fill="#8f939d" opacity="0.69" d=" M 587.63 456.09 C 589.38 459.81 588.83 464.01 588.93 467.99 C 588.83 473.10 589.20 478.21 589.48 483.31 L 588.93 484.20 C 586.36 475.07 588.11 465.44 587.63 456.09 Z" />
</g>
<g id="#1a285182">
<path fill="#1a2851" opacity="0.51" d=" M 399.53 467.91 C 400.06 471.68 399.44 475.46 398.28 479.06 C 392.10 483.17 388.19 489.59 384.95 496.10 C 386.42 488.60 391.17 482.47 396.75 477.49 C 399.81 475.23 399.48 471.28 399.53 467.91 Z" />
</g>
<g id="#f9934aff">
<path fill="#f9934a" opacity="1.00" d=" M 403.89 469.26 C 408.74 470.18 413.66 470.78 418.44 472.10 C 417.94 474.08 417.50 476.08 417.22 478.11 C 412.26 476.01 407.72 473.05 403.89 469.26 Z" />
</g>
<g id="#3a3c4155">
<path fill="#3a3c41" opacity="0.33" d=" M 382.51 497.57 C 385.07 489.80 388.52 480.72 396.75 477.49 C 391.17 482.47 386.42 488.60 384.95 496.10 C 383.62 500.16 381.69 504.10 378.56 507.07 L 378.06 507.54 C 377.54 503.58 381.64 501.20 382.51 497.57 Z" />
</g>
<g id="#28489bff">
<path fill="#28489b" opacity="1.00" d=" M 398.28 479.06 L 398.85 478.55 C 404.47 482.18 410.28 486.10 417.26 486.07 L 418.29 486.25 L 418.47 486.94 C 419.16 491.47 423.54 493.82 427.23 495.71 C 437.98 500.40 449.06 504.30 460.25 507.79 C 463.51 508.87 466.95 508.12 470.15 507.21 C 481.08 503.81 492.68 502.95 503.36 498.64 C 504.21 500.04 504.94 501.52 505.61 503.04 C 504.16 508.05 498.49 509.44 494.31 511.46 C 488.87 511.97 484.16 514.98 480.08 518.42 C 475.15 521.31 469.61 522.75 464.28 524.66 C 460.12 524.33 455.96 524.32 451.80 524.30 C 449.42 524.21 447.04 524.20 444.67 524.12 C 444.06 524.02 442.85 523.82 442.24 523.72 C 438.50 523.08 434.74 522.60 430.98 522.23 C 422.91 521.44 414.69 521.04 407.05 518.08 C 411.55 528.90 418.58 539.29 428.89 545.29 C 429.02 547.33 429.27 549.37 429.51 551.42 C 429.11 554.21 429.03 557.03 428.97 559.85 C 425.71 564.03 427.04 569.66 427.65 574.48 C 427.25 576.75 426.92 579.03 426.60 581.32 C 424.16 584.81 424.80 589.08 424.92 593.07 C 424.80 593.59 424.58 594.62 424.46 595.14 C 420.73 594.69 416.97 594.68 413.22 594.66 C 406.14 594.43 398.99 593.83 392.21 591.71 C 385.21 589.55 378.65 586.20 372.44 582.36 C 371.68 577.08 373.01 571.95 374.04 566.83 C 374.14 559.11 377.08 551.72 376.29 543.94 C 376.34 542.44 376.43 540.95 376.52 539.46 C 377.29 528.29 378.20 517.07 381.18 506.24 C 380.30 506.51 379.42 506.76 378.56 507.07 C 381.69 504.10 383.62 500.16 384.95 496.10 C 388.19 489.59 392.10 483.17 398.28 479.06 Z" />
</g>
<g id="#0e1b4993">
<path fill="#0e1b49" opacity="0.58" d=" M 638.01 490.91 C 636.13 489.53 633.78 488.08 633.63 485.50 L 634.46 486.07 C 635.44 486.71 636.40 487.39 637.34 488.11 C 638.68 489.24 640.11 490.26 641.66 491.12 C 642.03 491.37 642.79 491.86 643.16 492.10 C 644.57 493.16 646.03 494.16 647.56 495.05 C 647.86 495.25 648.46 495.63 648.76 495.83 C 650.84 497.31 652.92 498.79 655.02 500.25 C 655.69 500.73 656.35 501.23 657.00 501.75 C 658.95 503.35 660.98 504.84 663.08 506.24 C 663.77 506.71 664.44 507.22 665.09 507.76 C 669.58 512.07 674.22 516.24 678.36 520.90 C 678.51 521.23 678.79 521.90 678.93 522.23 C 678.82 523.23 679.08 524.13 679.71 524.94 L 679.81 525.86 C 679.85 526.44 679.93 527.58 679.97 528.16 C 674.05 514.80 660.75 507.37 649.76 498.70 C 645.96 495.92 641.90 493.54 638.01 490.91 Z" />
</g>
<g id="#101f4777">
<path fill="#101f47" opacity="0.47" d=" M 418.47 486.94 C 422.60 489.65 426.08 493.33 430.66 495.31 C 441.33 499.63 452.07 503.84 463.17 506.95 C 468.60 506.73 473.67 503.98 479.11 503.47 C 487.09 502.62 494.61 499.72 502.19 497.31 C 502.48 497.64 503.06 498.30 503.36 498.64 C 492.68 502.95 481.08 503.81 470.15 507.21 C 466.95 508.12 463.51 508.87 460.25 507.79 C 449.06 504.30 437.98 500.40 427.23 495.71 C 423.54 493.82 419.16 491.47 418.47 486.94 Z" />
</g>
<g id="#2c3f90ff">
<path fill="#2c3f90" opacity="1.00" d=" M 589.69 488.37 C 602.28 492.29 615.54 489.76 628.37 488.75 C 628.41 491.32 628.29 493.95 627.35 496.38 C 624.61 503.65 622.17 511.03 619.17 518.20 C 618.59 519.63 618.02 521.07 617.46 522.51 C 615.22 528.06 613.19 533.72 610.42 539.04 C 605.81 545.13 602.56 552.21 600.17 559.44 C 596.80 565.17 592.24 570.12 589.27 576.11 C 587.66 578.93 586.52 581.98 585.26 584.96 C 585.03 585.45 584.58 586.43 584.35 586.92 C 582.52 589.39 580.90 592.05 579.91 594.98 C 577.59 601.70 574.15 608.04 572.81 615.07 C 571.81 617.73 570.14 620.04 568.34 622.22 C 567.12 621.41 565.92 620.57 564.75 619.72 C 565.23 613.13 564.85 606.49 564.83 599.89 C 566.92 597.88 567.01 594.88 567.51 592.22 C 568.12 588.76 568.56 585.28 568.96 581.79 C 570.05 578.47 571.11 575.14 572.07 571.77 C 572.70 568.97 574.80 566.90 576.40 564.62 C 578.28 562.27 580.32 559.94 581.31 557.05 C 581.62 555.85 581.77 554.62 581.99 553.42 C 582.72 549.17 583.20 544.89 583.47 540.59 C 584.05 534.33 583.05 527.95 584.89 521.83 C 585.24 523.15 585.54 524.50 585.85 525.85 C 586.56 521.60 586.02 517.28 586.46 513.03 C 588.17 508.56 588.26 503.73 589.75 499.21 C 591.00 495.67 589.64 491.98 589.69 488.37 Z" />
<path fill="#2c3f90" opacity="1.00" d=" M 637.00 511.98 C 641.20 507.50 644.46 502.03 649.76 498.70 C 660.75 507.37 674.05 514.80 679.97 528.16 C 682.20 538.44 687.17 547.81 690.19 557.84 C 692.21 563.51 693.53 569.50 696.58 574.75 C 695.72 575.97 694.83 577.18 693.90 578.36 C 692.79 577.65 691.69 576.95 690.63 576.20 C 689.26 574.67 688.04 573.03 686.91 571.33 C 686.10 569.07 684.71 567.15 682.50 566.09 C 680.81 564.29 679.28 562.34 677.82 560.36 C 678.18 558.26 676.91 555.90 674.52 556.29 C 673.69 554.92 672.82 553.59 671.99 552.25 C 672.10 550.73 671.17 549.36 669.62 549.21 C 668.24 547.36 666.94 545.47 665.80 543.48 C 664.90 539.71 663.72 535.80 660.72 533.13 C 652.46 525.63 640.88 524.48 630.62 521.41 C 632.20 517.93 634.40 514.77 637.00 511.98 Z" />
</g>
<g id="#2d31364d">
<path fill="#2d3136" opacity="0.30" d=" M 637.34 488.11 C 639.03 486.62 642.59 489.03 641.66 491.12 C 640.11 490.26 638.68 489.24 637.34 488.11 Z" />
</g>
<g id="#f9944bff">
<path fill="#f9944b" opacity="1.00" d=" M 507.34 492.78 C 512.21 492.04 517.32 492.21 521.89 490.09 C 522.12 491.76 522.52 493.42 523.14 495.00 L 523.32 495.49 L 522.31 495.91 C 518.77 497.42 516.18 500.39 514.04 503.49 C 511.43 503.76 508.86 504.28 506.29 504.79 C 506.12 504.35 505.78 503.48 505.61 503.04 C 504.94 501.52 504.21 500.04 503.36 498.64 C 503.06 498.30 502.48 497.64 502.19 497.31 C 503.87 495.77 505.39 493.99 507.34 492.78 Z" />
</g>
<g id="#3234384e">
<path fill="#323438" opacity="0.31" d=" M 643.16 492.10 C 644.85 490.63 648.57 492.90 647.56 495.05 C 646.03 494.16 644.57 493.16 643.16 492.10 Z" />
</g>
<g id="#8f684b91">
<path fill="#8f684b" opacity="0.57" d=" M 514.04 503.49 C 516.18 500.39 518.77 497.42 522.31 495.91 C 522.91 496.00 524.12 496.18 524.72 496.27 C 521.31 498.78 518.83 503.97 514.04 503.49 Z" />
</g>
<g id="#35373848">
<path fill="#353738" opacity="0.28" d=" M 648.76 495.83 C 651.84 495.36 653.79 497.79 655.02 500.25 C 652.92 498.79 650.84 497.31 648.76 495.83 Z" />
</g>
<g id="#34353848">
<path fill="#343538" opacity="0.28" d=" M 657.00 501.75 C 659.96 501.58 661.84 503.85 663.08 506.24 C 660.98 504.84 658.95 503.35 657.00 501.75 Z" />
</g>
<g id="#3334384e">
<path fill="#333438" opacity="0.31" d=" M 371.85 515.96 C 371.03 512.67 373.48 509.78 376.64 509.22 C 375.20 511.57 373.64 513.85 371.85 515.96 Z" />
</g>
<g id="#163484e1">
<path fill="#163484" opacity="0.88" d=" M 480.08 518.42 C 484.16 514.98 488.87 511.97 494.31 511.46 C 489.82 514.27 485.02 516.53 480.08 518.42 Z" />
</g>
<g id="#38393848">
<path fill="#383938" opacity="0.28" d=" M 366.20 523.26 C 365.19 520.21 367.83 517.63 370.72 517.38 C 369.26 519.37 367.76 521.34 366.20 523.26 Z" />
</g>
<g id="#82817e99">
<path fill="#82817e" opacity="0.60" d=" M 619.17 518.20 C 622.95 519.40 626.77 520.46 630.62 521.41 C 640.88 524.48 652.46 525.63 660.72 533.13 C 660.86 533.80 661.13 535.13 661.26 535.80 C 659.03 533.95 656.62 532.32 654.10 530.90 C 645.61 525.68 635.34 525.52 626.28 521.81 C 623.34 520.72 620.27 521.43 617.46 522.51 C 618.02 521.07 618.59 519.63 619.17 518.20 Z" />
</g>
<g id="#98989cc8">
<path fill="#98989c" opacity="0.78" d=" M 430.98 522.23 C 434.74 522.60 438.50 523.08 442.24 523.72 C 438.96 523.82 435.69 524.09 432.42 524.33 C 431.99 526.86 431.59 529.40 431.05 531.92 C 431.05 528.69 431.04 525.46 430.98 522.23 Z" />
</g>
<g id="#3b3a4158">
<path fill="#3b3a41" opacity="0.35" d=" M 678.93 522.23 C 680.68 522.68 680.94 523.59 679.71 524.94 C 679.08 524.13 678.82 523.23 678.93 522.23 Z" />
</g>
<g id="#b2b1a5c1">
<path fill="#b2b1a5" opacity="0.76" d=" M 444.67 524.12 C 447.04 524.20 449.42 524.21 451.80 524.30 C 455.62 524.59 459.45 524.88 463.28 525.06 L 464.32 525.66 C 457.78 526.20 450.75 527.25 444.67 524.12 Z" />
</g>
<g id="#6578adfd">
<path fill="#6578ad" opacity="1.00" d=" M 451.80 524.30 C 455.96 524.32 460.12 524.33 464.28 524.66 L 463.28 525.06 C 459.45 524.88 455.62 524.59 451.80 524.30 Z" />
</g>
<g id="#3b3b3a48">
<path fill="#3b3b3a" opacity="0.28" d=" M 360.30 531.28 C 359.02 528.26 361.92 525.76 364.66 525.30 C 363.24 527.32 361.79 529.31 360.30 531.28 Z" />
</g>
<g id="#252b446f">
<path fill="#252b44" opacity="0.44" d=" M 679.81 525.86 C 683.10 529.49 683.12 534.71 685.13 539.00 C 689.09 547.28 691.53 556.15 694.32 564.86 C 696.20 572.62 702.75 578.11 709.33 582.00 C 709.43 582.46 709.63 583.38 709.73 583.84 C 704.40 582.43 700.64 578.18 696.58 574.75 C 693.53 569.50 692.21 563.51 690.19 557.84 C 687.17 547.81 682.20 538.44 679.97 528.16 C 679.93 527.58 679.85 526.44 679.81 525.86 Z" />
</g>
<g id="#2c303b60">
<path fill="#2c303b" opacity="0.38" d=" M 356.24 534.34 C 356.84 533.00 358.22 532.50 359.57 532.33 C 355.45 538.98 353.31 546.56 351.16 554.02 C 349.34 558.96 348.16 564.10 347.17 569.27 L 347.15 568.08 C 346.54 561.69 348.90 555.62 350.53 549.57 C 352.41 544.49 353.51 539.06 356.24 534.34 Z" />
</g>
<g id="#0b2257be">
<path fill="#0b2257" opacity="0.75" d=" M 428.89 545.29 C 429.03 540.82 427.88 535.63 431.05 531.92 C 430.03 538.09 430.37 544.35 429.88 550.56 L 429.51 551.42 C 429.27 549.37 429.02 547.33 428.89 545.29 Z" />
</g>
<g id="#13256ece">
<path fill="#13256e" opacity="0.81" d=" M 660.72 533.13 C 663.72 535.80 664.90 539.71 665.80 543.48 C 664.22 540.96 662.66 538.42 661.26 535.80 C 661.13 535.13 660.86 533.80 660.72 533.13 Z" />
</g>
<g id="#11236ccc">
<path fill="#11236c" opacity="0.80" d=" M 600.17 559.44 C 602.56 552.21 605.81 545.13 610.42 539.04 C 607.78 546.19 604.50 553.14 600.17 559.44 Z" />
</g>
<g id="#cecec8eb">
<path fill="#cecec8" opacity="0.92" d=" M 372.72 542.93 C 373.93 541.71 375.21 540.57 376.52 539.46 C 376.43 540.95 376.34 542.44 376.29 543.94 C 375.10 543.60 373.91 543.26 372.72 542.93 Z" />
</g>
<g id="#0a1b62bc">
<path fill="#0a1b62" opacity="0.74" d=" M 669.62 549.21 C 671.17 549.36 672.10 550.73 671.99 552.25 C 671.44 551.90 670.36 551.20 669.81 550.85 C 669.76 550.44 669.67 549.62 669.62 549.21 Z" />
</g>
<g id="#5e6581b5">
<path fill="#5e6581" opacity="0.71" d=" M 429.51 551.42 L 429.88 550.56 C 430.31 554.06 430.11 557.61 428.94 560.95 L 428.97 559.85 C 429.03 557.03 429.11 554.21 429.51 551.42 Z" />
</g>
<g id="#0e2253be">
<path fill="#0e2253" opacity="0.75" d=" M 347.17 569.27 C 348.16 564.10 349.34 558.96 351.16 554.02 C 350.20 560.25 349.65 566.68 347.08 572.52 C 347.10 571.71 347.15 570.08 347.17 569.27 Z" />
</g>
<g id="#0f1f62ba">
<path fill="#0f1f62" opacity="0.73" d=" M 674.52 556.29 C 676.91 555.90 678.18 558.26 677.82 560.36 C 676.42 559.26 675.26 557.90 674.52 556.29 Z" />
</g>
<g id="#1c223f69">
<path fill="#1c223f" opacity="0.41" d=" M 576.40 564.62 C 574.41 561.00 577.88 557.65 581.31 557.05 C 580.32 559.94 578.28 562.27 576.40 564.62 Z" />
</g>
<g id="#142e70be">
<path fill="#142e70" opacity="0.75" d=" M 427.65 574.48 C 427.04 569.66 425.71 564.03 428.97 559.85 L 428.94 560.95 C 428.26 565.14 428.21 569.39 427.82 573.61 L 427.65 574.48 Z" />
</g>
<g id="#0d1f67c5">
<path fill="#0d1f67" opacity="0.77" d=" M 682.50 566.09 C 684.71 567.15 686.10 569.07 686.91 571.33 C 685.42 569.60 683.94 567.86 682.50 566.09 Z" />
</g>
<g id="#6752426a">
<path fill="#675242" opacity="0.42" d=" M 340.11 577.14 C 342.57 574.20 344.90 571.18 347.15 568.08 L 347.17 569.27 C 347.15 570.08 347.10 571.71 347.08 572.52 C 344.65 574.67 341.31 576.51 340.76 580.00 C 340.32 582.80 339.97 585.92 341.38 588.52 C 342.72 588.70 344.07 588.52 345.42 588.48 L 345.93 588.47 C 345.96 589.48 345.99 590.49 346.02 591.51 C 344.03 591.47 342.04 591.46 340.06 591.50 C 339.32 586.79 338.62 581.74 340.11 577.14 Z" />
</g>
<g id="#f9954bff">
<path fill="#f9954b" opacity="1.00" d=" M 340.76 580.00 C 341.31 576.51 344.65 574.67 347.08 572.52 C 349.24 573.69 351.48 574.69 353.75 575.64 C 353.45 577.03 353.23 578.44 352.87 579.83 C 351.65 581.39 350.27 582.83 348.76 584.13 C 347.19 585.16 345.51 586.41 345.42 588.48 C 344.07 588.52 342.72 588.70 341.38 588.52 C 339.97 585.92 340.32 582.80 340.76 580.00 Z" />
</g>
<g id="#3a312445">
<path fill="#3a3124" opacity="0.27" d=" M 570.30 572.16 C 570.74 572.07 571.63 571.87 572.07 571.77 C 571.11 575.14 570.05 578.47 568.96 581.79 C 566.37 587.51 565.99 593.81 564.83 599.89 C 562.80 606.86 563.62 614.31 564.41 621.42 C 564.14 624.77 563.72 628.11 563.14 631.42 C 559.77 631.80 556.42 632.45 553.02 632.39 C 537.47 632.34 521.92 632.34 506.37 632.37 C 506.31 682.91 506.42 733.44 506.29 783.98 L 506.27 784.86 L 505.32 784.86 C 505.24 733.67 505.19 682.48 505.30 631.30 C 519.20 631.17 533.10 631.29 547.00 631.25 C 550.93 631.18 554.91 631.60 558.82 630.94 C 561.35 629.63 563.45 627.08 563.10 624.07 C 564.02 613.71 562.09 603.13 564.75 592.95 C 566.03 585.90 567.66 578.83 570.30 572.16 Z" />
</g>
<g id="#223366ff">
<path fill="#223366" opacity="1.00" d=" M 696.58 574.75 C 700.64 578.18 704.40 582.43 709.73 583.84 C 711.02 584.28 712.36 584.55 713.71 584.83 C 713.01 585.69 712.31 586.55 711.63 587.42 C 704.08 587.35 696.53 587.08 688.99 587.33 C 689.72 583.93 690.17 580.47 690.48 577.01 L 690.63 576.20 C 691.69 576.95 692.79 577.65 693.90 578.36 C 694.83 577.18 695.72 575.97 696.58 574.75 Z" />
<path fill="#223366" opacity="1.00" d=" M 289.94 786.48 C 306.62 785.97 323.32 786.41 340.00 786.26 C 371.33 786.26 402.67 786.26 434.00 786.26 C 450.01 786.39 466.04 785.98 482.05 786.47 C 418.01 786.50 353.98 786.49 289.94 786.48 Z" />
</g>
<g id="#d75400ff">
<path fill="#d75400" opacity="1.00" d=" M 348.76 584.13 C 350.27 582.83 351.65 581.39 352.87 579.83 C 352.45 582.57 350.50 584.55 348.60 586.38 C 348.64 585.82 348.72 584.69 348.76 584.13 Z" />
<path fill="#d75400" opacity="1.00" d=" M 617.68 632.64 C 627.55 632.59 637.42 632.34 647.29 632.71 C 647.65 639.55 647.42 646.40 647.39 653.25 C 641.93 650.32 636.98 646.58 631.81 643.19 C 626.94 639.89 621.63 637.09 617.68 632.64 Z" />
<path fill="#d75400" opacity="1.00" d=" M 417.45 680.24 C 417.15 674.69 416.07 668.82 418.67 663.61 C 417.89 669.12 417.50 674.68 417.45 680.24 Z" />
</g>
<g id="#f99729ff">
<path fill="#f99729" opacity="1.00" d=" M 371.90 581.85 L 372.44 582.36 C 378.65 586.20 385.21 589.55 392.21 591.71 C 398.99 593.83 406.14 594.43 413.22 594.66 C 411.44 601.84 408.10 608.47 405.29 615.28 C 399.14 629.84 392.66 644.24 386.24 658.68 C 385.27 660.39 384.25 662.09 383.26 663.80 C 377.13 671.41 374.31 681.00 369.35 689.33 C 364.94 696.36 361.25 703.81 356.86 710.85 C 353.37 717.37 349.94 724.01 344.99 729.58 C 342.01 728.00 339.06 726.35 336.16 724.63 C 336.16 719.32 336.52 714.06 337.92 708.93 C 338.28 702.50 339.49 696.20 341.05 689.97 C 343.39 683.05 344.71 675.81 345.80 668.59 C 346.78 663.72 348.14 658.93 349.90 654.29 C 351.55 650.41 353.54 646.65 356.29 643.44 C 359.19 638.24 362.26 632.95 362.87 626.90 C 363.29 626.59 364.13 625.99 364.55 625.68 C 367.11 620.06 367.45 613.66 370.31 608.11 C 371.21 606.55 371.40 604.70 370.77 603.02 C 370.78 599.35 370.82 595.69 371.05 592.04 C 372.02 588.73 372.52 585.27 371.90 581.85 Z" />
<path fill="#f99729" opacity="1.00" d=" M 419.07 629.17 C 419.83 629.74 420.60 630.32 421.36 630.91 C 421.22 632.46 421.00 634.01 420.75 635.56 C 417.83 641.05 419.15 647.37 419.50 653.27 C 419.51 656.73 419.38 660.21 418.67 663.61 C 416.07 668.82 417.15 674.69 417.45 680.24 C 417.50 683.39 417.35 686.55 416.88 689.67 C 413.48 699.03 417.20 709.27 414.69 718.83 C 413.05 724.99 413.82 731.41 413.24 737.70 C 408.88 739.21 404.31 739.80 399.73 740.15 C 399.63 740.68 399.44 741.73 399.35 742.25 C 398.81 740.33 398.23 738.43 397.69 736.53 C 397.13 729.28 394.70 722.37 393.58 715.22 C 391.61 706.54 390.42 697.72 388.79 688.98 C 388.20 684.79 388.59 680.55 388.56 676.35 C 393.80 670.09 397.59 662.82 402.05 656.03 C 407.82 647.14 413.27 638.04 419.07 629.17 Z" />
</g>
<g id="#182767bc">
<path fill="#182767" opacity="0.74" d=" M 564.83 599.89 C 565.99 593.81 566.37 587.51 568.96 581.79 C 568.56 585.28 568.12 588.76 567.51 592.22 C 567.01 594.88 566.92 597.88 564.83 599.89 Z" />
</g>
<g id="#e5c2a4e8">
<path fill="#e5c2a4" opacity="0.91" d=" M 345.42 588.48 C 345.51 586.41 347.19 585.16 348.76 584.13 C 348.72 584.69 348.64 585.82 348.60 586.38 L 348.05 587.04 C 347.52 587.40 346.46 588.11 345.93 588.47 L 345.42 588.48 Z" />
</g>
<g id="#132671d3">
<path fill="#132671" opacity="0.83" d=" M 579.91 594.98 C 580.90 592.05 582.52 589.39 584.35 586.92 C 582.20 593.66 579.25 600.11 576.86 606.77 C 575.82 609.67 574.38 612.41 572.81 615.07 C 574.15 608.04 577.59 601.70 579.91 594.98 Z" />
</g>
<g id="#4a71b5c7">
<path fill="#4a71b5" opacity="0.78" d=" M 688.24 587.40 L 688.99 587.33 C 696.53 587.08 704.08 587.35 711.63 587.42 C 722.04 588.15 732.56 586.96 742.92 588.34 C 721.62 589.53 700.26 588.00 678.96 589.14 L 679.05 588.21 C 682.10 587.85 685.17 587.69 688.24 587.40 Z" />
</g>
<g id="#496dd2ff">
<path fill="#496dd2" opacity="1.00" d=" M 742.92 588.34 C 744.09 587.12 745.83 587.56 747.33 587.56 C 753.22 587.96 759.15 587.27 765.01 588.13 C 768.27 588.46 771.54 588.16 774.82 588.22 C 779.60 588.54 784.47 587.99 789.21 588.97 C 781.16 589.20 773.11 588.65 765.07 589.09 C 770.15 595.27 775.61 601.11 780.89 607.13 C 783.88 610.64 788.69 613.67 788.13 618.95 C 788.05 650.96 788.17 682.98 788.17 715.00 C 788.26 721.76 787.50 728.62 789.09 735.28 C 789.71 743.17 789.32 751.09 789.41 759.00 C 789.32 767.35 789.68 775.71 789.20 784.05 C 780.78 784.43 772.35 784.16 763.93 784.13 C 763.36 769.43 763.80 754.71 763.67 739.99 C 763.67 695.00 763.67 650.00 763.67 605.00 C 763.71 599.60 763.98 594.17 763.17 588.81 C 756.42 588.72 749.64 589.13 742.92 588.34 Z" />
<path fill="#496dd2" opacity="1.00" d=" M 436.07 752.60 C 438.63 752.71 441.19 752.71 443.75 752.71 C 449.15 756.67 455.61 758.62 461.66 761.34 C 468.13 764.24 474.83 766.63 481.13 769.92 C 481.15 774.89 480.99 779.87 481.39 784.83 C 466.31 784.56 451.22 784.91 436.14 784.66 C 436.16 773.97 436.22 763.28 436.07 752.60 Z" />
</g>
<g id="#3c6cc2ff">
<path fill="#3c6cc2" opacity="1.00" d=" M 765.07 589.09 C 773.11 588.65 781.16 589.20 789.21 588.97 C 789.71 622.63 789.27 656.32 789.42 690.00 C 789.25 705.09 789.78 720.20 789.09 735.28 C 787.50 728.62 788.26 721.76 788.17 715.00 C 788.17 682.98 788.05 650.96 788.13 618.95 C 788.69 613.67 783.88 610.64 780.89 607.13 C 775.61 601.11 770.15 595.27 765.07 589.09 Z" />
<path fill="#3c6cc2" opacity="1.00" d=" M 443.75 752.71 C 456.16 752.52 468.58 752.45 480.99 752.76 C 481.02 758.48 481.20 764.20 481.13 769.92 C 474.83 766.63 468.13 764.24 461.66 761.34 C 455.61 758.62 449.15 756.67 443.75 752.71 Z" />
</g>
<g id="#bb9973bd">
<path fill="#bb9973" opacity="0.74" d=" M 370.14 603.08 C 370.02 599.38 369.86 595.60 371.05 592.04 C 370.82 595.69 370.78 599.35 370.77 603.02 L 370.14 603.08 Z" />
</g>
<g id="#f28301ff">
<path fill="#f28301" opacity="1.00" d=" M 413.22 594.66 C 416.97 594.68 420.73 594.69 424.46 595.14 C 423.18 600.59 423.71 606.24 422.68 611.73 C 421.11 616.41 421.51 621.38 421.60 626.24 C 421.53 627.79 421.46 629.34 421.36 630.91 C 420.60 630.32 419.83 629.74 419.07 629.17 C 413.27 638.04 407.82 647.14 402.05 656.03 C 397.59 662.82 393.80 670.09 388.56 676.35 C 388.20 674.15 387.69 671.99 387.24 669.82 C 386.78 666.11 386.58 662.39 386.24 658.68 C 392.66 644.24 399.14 629.84 405.29 615.28 C 408.10 608.47 411.44 601.84 413.22 594.66 Z" />
</g>
<g id="#9f9998be">
<path fill="#9f9998" opacity="0.75" d=" M 564.41 621.42 C 563.62 614.31 562.80 606.86 564.83 599.89 C 564.85 606.49 565.23 613.13 564.75 619.72 C 564.66 620.15 564.50 621.00 564.41 621.42 Z" />
</g>
<g id="#bc6d14c0">
<path fill="#bc6d14" opacity="0.75" d=" M 370.14 603.08 L 370.77 603.02 C 371.40 604.70 371.21 606.55 370.31 608.11 C 369.57 606.51 369.66 604.72 370.14 603.08 Z" />
</g>
<g id="#213366ff">
<path fill="#213366" opacity="1.00" d=" M 568.34 622.22 C 570.14 620.04 571.81 617.73 572.81 615.07 C 572.68 616.92 572.83 618.79 573.14 620.62 C 573.38 620.23 573.88 619.45 574.12 619.05 C 575.40 620.68 576.56 622.43 578.06 623.89 C 580.88 626.28 584.74 627.06 587.50 629.53 C 587.90 630.03 588.68 631.04 589.07 631.54 C 580.43 631.48 571.78 630.91 563.14 631.42 C 563.72 628.11 564.14 624.77 564.41 621.42 C 564.50 621.00 564.66 620.15 564.75 619.72 C 565.92 620.57 567.12 621.41 568.34 622.22 Z" />
</g>
<g id="#352c1e3f">
<path fill="#352c1e" opacity="0.25" d=" M 587.50 629.53 C 595.12 631.96 603.16 630.59 611.01 630.95 C 623.60 631.34 636.21 630.87 648.80 631.26 C 649.42 649.49 648.88 667.76 649.07 686.00 C 648.70 715.66 648.93 745.33 648.88 774.99 C 648.69 778.32 649.57 781.89 648.09 785.02 L 648.12 784.13 C 648.00 738.42 648.17 692.71 648.19 647.00 C 648.25 641.96 648.26 636.93 648.03 631.90 C 628.89 631.32 609.73 632.02 590.59 631.62 C 590.21 631.60 589.45 631.56 589.07 631.54 C 588.68 631.04 587.90 630.03 587.50 629.53 Z" />
</g>
<g id="#fca233ff">
<path fill="#fca233" opacity="1.00" d=" M 553.02 632.39 C 556.42 632.45 559.77 631.80 563.14 631.42 C 571.78 630.91 580.43 631.48 589.07 631.54 C 589.45 631.56 590.21 631.60 590.59 631.62 C 590.19 631.82 589.39 632.24 588.99 632.45 C 597.59 632.53 606.20 632.27 614.80 632.57 C 614.48 663.04 614.75 693.52 614.66 724.00 C 614.78 744.04 614.41 764.08 614.85 784.12 C 578.66 784.01 542.47 784.29 506.29 783.98 C 506.42 733.44 506.31 682.91 506.37 632.37 C 521.92 632.34 537.47 632.34 553.02 632.39 Z" />
</g>
<g id="#e56100ff">
<path fill="#e56100" opacity="1.00" d=" M 614.80 632.57 C 615.52 632.59 616.96 632.62 617.68 632.64 C 621.63 637.09 626.94 639.89 631.81 643.19 C 636.98 646.58 641.93 650.32 647.39 653.25 C 647.58 678.50 647.47 703.75 647.52 729.00 C 647.33 747.38 647.88 765.77 647.23 784.13 C 636.44 784.16 625.64 784.18 614.85 784.12 C 614.41 764.08 614.78 744.04 614.66 724.00 C 614.75 693.52 614.48 663.04 614.80 632.57 Z" />
</g>
<g id="#bc6f19c1">
<path fill="#bc6f19" opacity="0.76" d=" M 419.50 653.27 C 419.15 647.37 417.83 641.05 420.75 635.56 C 420.38 641.46 419.93 647.36 419.50 653.27 Z" />
</g>
<g id="#433a3044">
<path fill="#433a30" opacity="0.27" d=" M 348.75 654.34 L 349.90 654.29 C 348.14 658.93 346.78 663.72 345.80 668.59 C 343.01 675.41 341.78 682.68 341.05 689.97 C 339.49 696.20 338.28 702.50 337.92 708.93 C 336.52 714.06 336.16 719.32 336.16 724.63 C 335.99 725.04 335.64 725.87 335.47 726.29 C 335.23 720.93 334.21 715.30 336.22 710.16 C 337.73 706.66 336.70 702.79 337.43 699.16 C 340.02 689.14 341.04 678.77 344.05 668.85 C 345.56 664.02 345.62 658.49 348.75 654.34 Z" />
</g>
<g id="#e5c8a9e7">
<path fill="#e5c8a9" opacity="0.91" d=" M 383.26 663.80 C 384.25 662.09 385.27 660.39 386.24 658.68 C 386.58 662.39 386.78 666.11 387.24 669.82 C 386.47 667.64 385.00 665.87 382.79 665.07 C 382.91 664.75 383.15 664.12 383.26 663.80 Z" />
</g>
<g id="#c0731bc6">
<path fill="#c0731b" opacity="0.78" d=" M 369.35 689.33 C 374.31 681.00 377.13 671.41 383.26 663.80 C 383.15 664.12 382.91 664.75 382.79 665.07 C 376.75 679.34 368.72 692.67 361.16 706.17 C 356.25 714.24 352.30 722.92 346.44 730.38 C 346.08 730.18 345.35 729.78 344.99 729.58 C 349.94 724.01 353.37 717.37 356.86 710.85 C 361.25 703.81 364.94 696.36 369.35 689.33 Z" />
</g>
<g id="#a96314ad">
<path fill="#a96314" opacity="0.68" d=" M 341.05 689.97 C 341.78 682.68 343.01 675.41 345.80 668.59 C 344.71 675.81 343.39 683.05 341.05 689.97 Z" />
</g>
<g id="#654f2b70">
<path fill="#654f2b" opacity="0.44" d=" M 414.69 718.83 C 417.20 709.27 413.48 699.03 416.88 689.67 C 416.85 691.17 416.83 692.68 416.83 694.21 C 416.45 701.14 416.78 708.08 416.69 715.02 C 416.72 719.12 414.57 722.85 414.58 726.95 C 414.58 730.93 414.30 734.94 414.74 738.91 C 416.08 741.24 418.15 743.04 419.93 745.04 C 417.41 743.63 415.25 741.70 413.15 739.75 C 413.18 739.24 413.22 738.21 413.24 737.70 C 413.82 731.41 413.05 724.99 414.69 718.83 Z" />
</g>
<g id="#2c3566ff">
<path fill="#2c3566" opacity="1.00" d=" M 399.73 740.15 C 404.31 739.80 408.88 739.21 413.24 737.70 C 413.22 738.21 413.18 739.24 413.15 739.75 C 413.21 741.60 413.89 743.42 415.51 744.47 C 419.33 747.26 424.01 748.52 428.01 751.03 C 418.77 751.14 409.49 750.58 400.28 751.38 C 399.90 748.34 399.65 745.29 399.35 742.25 C 399.44 741.73 399.63 740.68 399.73 740.15 Z" />
</g>
<g id="#1a21408b">
<path fill="#1a2140" opacity="0.55" d=" M 415.51 744.47 C 413.89 743.42 413.21 741.60 413.15 739.75 C 415.25 741.70 417.41 743.63 419.93 745.04 C 423.97 747.48 429.30 747.79 432.41 751.65 L 431.50 751.72 C 430.32 751.51 429.17 751.27 428.01 751.03 C 424.01 748.52 419.33 747.26 415.51 744.47 Z" />
</g>
<g id="#d0d1c7dd">
<path fill="#d0d1c7" opacity="0.87" d=" M 338.72 751.20 C 339.05 750.67 339.71 749.60 340.04 749.07 C 340.26 749.45 340.71 750.21 340.93 750.59 C 340.37 750.74 339.27 751.04 338.72 751.20 Z" />
</g>
<g id="#1d35647f">
<path fill="#1d3564" opacity="0.50" d=" M 432.41 751.65 C 437.92 751.08 443.46 751.59 449.00 751.44 C 460.10 751.54 471.22 751.21 482.32 751.58 C 481.99 751.88 481.32 752.47 480.99 752.76 C 468.58 752.45 456.16 752.52 443.75 752.71 C 441.19 752.71 438.63 752.71 436.07 752.60 C 434.53 752.36 433.01 752.03 431.50 751.72 L 432.41 751.65 Z" />
</g>
<g id="#557c83bd">
<path fill="#557c83" opacity="0.74" d=" M 480.99 752.76 C 481.32 752.47 481.99 751.88 482.32 751.58 C 482.32 762.04 482.53 772.51 482.25 782.96 C 482.04 783.43 481.60 784.37 481.39 784.83 C 480.99 779.87 481.15 774.89 481.13 769.92 C 481.20 764.20 481.02 758.48 480.99 752.76 Z" />
</g>
<g id="#1010207f">
</g>
</svg>
