<?xml version="1.0" encoding="UTF-8" ?>
<!DOCTYPE svg PUBLIC "-//W3C//DTD SVG 1.1//EN" "http://www.w3.org/Graphics/SVG/1.1/DTD/svg11.dtd">
<svg width="1080pt" height="1080pt" viewBox="0 0 1080 1080" version="1.1" xmlns="http://www.w3.org/2000/svg">
<g id="#310aa2ff">
<path fill="#310aa2" opacity="1.00" d=" M 564.89 496.00 C 574.99 492.21 586.27 492.68 596.52 495.63 C 603.34 497.77 610.47 501.70 613.26 508.67 C 614.98 512.57 614.34 516.92 613.28 520.90 C 620.23 519.01 626.72 526.04 625.77 532.77 C 625.17 536.54 622.69 539.58 620.27 542.38 C 622.37 543.20 624.53 543.96 626.34 545.36 C 623.14 546.43 619.29 547.45 617.92 550.94 C 616.58 553.17 616.86 555.77 617.83 558.07 C 621.38 557.55 625.85 556.40 628.67 559.37 C 631.52 562.12 627.42 566.94 624.07 565.18 C 620.78 564.65 619.12 561.20 616.27 560.20 C 616.10 562.73 618.16 565.20 616.88 567.71 C 615.90 569.63 613.72 571.73 611.41 570.65 C 609.92 569.43 608.92 567.33 609.57 565.43 C 610.38 563.22 612.16 561.58 613.66 559.83 C 612.19 558.42 610.70 557.05 609.21 555.69 C 608.06 556.31 606.91 556.93 605.77 557.56 C 606.04 556.90 606.58 555.59 606.85 554.93 C 606.30 553.76 604.77 553.70 603.77 553.14 C 596.93 550.44 589.43 549.94 582.19 550.92 C 584.62 557.20 584.39 564.28 581.67 570.44 C 588.96 564.51 597.87 561.23 606.08 556.84 C 604.09 560.13 600.14 561.20 596.94 562.93 C 590.07 566.19 582.06 569.66 579.01 577.19 C 577.81 579.78 578.91 582.50 580.73 584.46 C 584.54 581.21 589.21 577.33 594.59 578.45 C 597.92 579.02 599.56 583.58 596.76 585.81 C 592.40 589.65 585.97 588.07 581.03 586.30 C 579.06 591.01 581.73 595.41 583.85 599.49 C 579.71 597.09 578.44 591.82 579.52 587.40 C 580.30 584.59 577.09 582.70 577.13 580.00 C 577.23 578.16 577.89 576.42 578.35 574.66 C 571.75 580.21 561.18 581.23 554.26 575.77 C 550.20 572.51 551.79 566.75 553.81 562.81 C 557.08 564.46 560.82 565.98 564.47 564.52 C 568.13 563.81 570.55 560.60 573.78 559.23 C 573.49 561.53 570.70 562.71 568.97 564.04 C 564.52 567.02 558.96 566.59 554.09 565.08 C 552.95 568.29 552.05 572.35 555.20 574.78 C 562.54 580.45 574.66 578.62 579.68 570.67 C 583.37 564.72 583.71 556.72 580.18 550.62 C 578.64 553.13 577.38 555.84 575.46 558.10 C 575.17 558.04 574.58 557.93 574.28 557.87 C 575.18 555.66 577.04 553.99 577.92 551.75 C 573.02 552.92 568.08 554.23 563.60 556.58 C 560.32 558.25 557.81 561.01 554.78 563.04 C 555.56 561.47 556.54 560.01 557.51 558.56 C 555.32 558.71 553.13 558.81 550.95 558.89 C 551.59 560.20 552.78 561.31 552.83 562.86 C 550.30 561.70 549.56 558.09 546.42 557.60 C 533.98 553.29 528.88 536.10 536.66 525.59 C 538.60 522.59 542.38 521.00 543.33 517.36 C 546.90 507.52 555.27 499.82 564.89 496.00 M 563.25 498.17 C 554.63 502.18 547.31 509.52 544.30 518.65 C 546.34 517.73 549.33 517.81 550.47 515.56 C 552.10 512.94 553.51 510.05 555.98 508.10 C 557.57 506.76 559.79 507.15 561.69 506.66 C 563.58 505.27 565.08 503.40 567.07 502.13 C 571.83 498.91 578.69 499.10 583.15 502.80 C 586.42 505.04 587.81 508.89 588.95 512.51 C 594.08 510.00 600.21 509.07 605.58 511.42 C 608.85 512.60 611.01 515.44 613.06 518.09 C 613.08 514.56 613.16 510.84 611.35 507.69 C 608.05 501.76 601.60 498.41 595.26 496.70 C 584.82 493.88 573.26 493.71 563.25 498.17 M 562.85 507.88 C 565.59 510.84 566.75 514.73 566.82 518.71 C 573.46 522.45 578.55 528.68 580.55 536.07 C 582.17 533.08 583.92 530.11 584.89 526.83 C 585.14 524.27 583.90 521.77 584.30 519.21 C 584.93 516.97 586.82 515.30 587.41 513.08 C 586.89 506.20 580.21 500.27 573.24 501.32 C 568.90 501.70 565.44 504.60 562.85 507.88 M 551.67 516.21 C 554.19 516.22 556.71 516.24 559.24 516.39 C 559.88 513.55 560.49 510.70 560.93 507.82 C 556.06 507.91 553.67 512.47 551.67 516.21 M 562.15 509.56 C 561.37 511.89 560.97 514.32 560.90 516.78 C 562.34 517.19 563.79 517.62 565.25 518.05 C 565.28 514.93 564.72 511.63 562.15 509.56 M 589.00 514.12 C 588.73 518.13 587.73 522.02 587.00 525.96 C 589.50 531.08 593.35 535.57 597.70 539.26 C 603.74 535.13 608.84 529.41 611.54 522.55 C 612.78 519.55 610.47 516.54 608.36 514.62 C 602.89 510.27 594.82 510.61 589.00 514.12 M 586.40 517.55 C 585.59 518.60 585.22 520.40 586.08 521.54 C 587.50 521.42 587.88 517.64 586.40 517.55 M 551.00 517.84 C 549.13 522.07 547.46 526.41 546.38 530.91 C 546.56 531.19 546.93 531.75 547.11 532.03 C 552.93 533.32 558.09 529.73 561.83 525.68 C 561.05 523.12 560.32 520.56 559.75 517.95 C 556.83 517.69 553.91 517.71 551.00 517.84 M 561.08 518.19 C 561.50 519.99 561.92 521.80 562.38 523.61 C 563.79 522.55 564.23 520.83 564.77 519.24 C 563.53 518.89 562.30 518.53 561.08 518.19 M 543.31 521.32 C 542.65 524.45 542.89 527.80 544.72 530.52 C 546.30 526.55 547.60 522.47 549.05 518.44 C 547.07 519.24 544.88 519.80 543.31 521.32 M 566.21 519.96 C 565.24 521.91 564.25 523.86 563.24 525.80 C 566.63 532.07 571.24 537.95 577.89 540.98 C 578.44 539.68 579.07 538.40 579.44 537.04 C 577.63 529.82 572.80 523.47 566.21 519.96 M 534.47 538.00 C 534.35 546.68 540.45 554.78 548.78 557.16 C 548.72 555.19 548.75 553.22 548.58 551.27 C 547.30 548.63 545.34 546.29 544.66 543.38 C 543.52 539.77 544.33 535.97 544.22 532.28 C 542.24 529.16 541.38 525.62 541.66 521.92 C 537.14 525.97 533.97 531.78 534.47 538.00 M 613.19 523.28 C 612.69 526.50 612.37 529.77 612.31 533.04 C 612.48 537.03 615.93 539.61 618.86 541.78 C 621.02 539.47 623.38 537.07 624.08 533.87 C 625.23 529.66 623.20 524.75 619.26 522.79 C 617.43 521.69 614.61 521.36 613.19 523.28 M 553.28 533.19 C 550.82 533.97 548.23 533.43 545.75 533.14 C 544.60 538.51 545.73 544.10 548.38 548.87 C 548.64 548.77 549.16 548.58 549.42 548.49 C 552.03 542.93 557.55 538.37 564.00 539.03 C 568.68 538.54 572.64 541.28 576.71 543.09 C 575.71 541.12 573.72 540.10 572.05 538.81 C 567.88 535.83 564.92 531.50 562.60 527.01 C 559.71 529.35 556.95 532.13 553.28 533.19 M 586.24 527.73 C 584.54 532.57 580.21 536.62 580.85 542.06 C 586.07 543.19 591.46 542.27 596.25 540.01 C 592.48 536.29 589.09 532.20 586.24 527.73 M 598.64 540.25 C 602.51 543.10 607.21 544.69 612.05 544.35 C 611.82 539.33 611.20 534.32 609.82 529.47 C 606.35 533.32 602.89 537.22 598.64 540.25 M 612.95 538.52 C 613.01 540.39 613.11 542.28 613.23 544.17 C 614.59 543.70 615.96 543.23 617.33 542.76 C 615.95 541.26 614.45 539.88 612.95 538.52 M 559.16 541.01 C 554.88 542.21 551.98 545.94 550.34 549.89 C 551.28 550.81 552.24 551.73 553.17 552.69 C 552.07 552.56 550.98 552.42 549.89 552.28 C 549.93 553.94 549.97 555.60 550.02 557.28 C 553.68 557.50 557.46 557.37 560.89 555.90 C 566.75 553.49 571.13 548.67 575.24 544.02 C 570.55 541.01 564.64 539.12 559.16 541.01 M 580.95 543.80 C 580.81 545.71 580.69 547.64 580.73 549.57 C 590.30 548.28 600.18 549.41 608.82 553.90 C 610.29 551.47 611.44 548.86 612.15 546.11 C 606.70 545.95 601.64 543.91 597.15 540.94 C 592.20 543.66 586.50 544.27 580.95 543.80 M 576.67 543.30 C 577.50 544.58 578.52 545.76 580.02 546.31 C 579.74 544.88 579.48 543.47 579.17 542.07 C 578.55 542.38 577.29 542.99 576.67 543.30 M 613.59 545.60 C 612.81 548.80 611.56 551.85 609.97 554.73 C 611.90 556.49 613.81 558.31 616.07 559.67 C 616.18 556.89 615.92 554.09 616.29 551.33 C 617.21 548.26 620.16 546.59 622.53 544.75 C 621.34 544.20 620.17 543.65 618.95 543.23 C 617.10 543.87 615.38 544.81 613.59 545.60 M 576.27 544.92 C 573.82 547.66 571.20 550.23 568.70 552.93 C 572.23 551.86 575.79 550.88 579.31 549.78 C 578.77 547.87 577.60 546.33 576.27 544.92 M 618.50 559.10 C 619.87 562.24 623.36 564.28 626.77 564.06 C 628.17 563.19 628.04 561.52 628.23 560.12 C 625.20 558.54 621.77 558.72 618.50 559.10 M 614.39 560.92 C 611.75 563.24 609.40 566.94 612.19 570.16 C 613.63 569.27 615.30 568.44 615.90 566.73 C 616.62 564.65 615.13 562.75 614.39 560.92 M 582.07 585.17 C 586.49 586.88 592.77 588.30 596.32 584.24 C 598.17 582.51 596.06 579.77 593.94 579.80 C 589.29 579.13 585.22 582.13 582.07 585.17 Z" />
<path fill="#310aa2" opacity="1.00" d=" M 755.57 544.56 C 760.49 544.04 765.53 544.12 770.47 544.52 C 774.89 546.64 778.19 551.10 779.54 555.76 C 779.85 561.31 779.87 566.93 779.53 572.48 C 777.76 576.41 772.66 578.24 772.21 582.91 C 770.59 587.62 773.50 593.62 769.48 597.43 C 768.36 598.36 766.72 600.69 765.20 599.38 C 759.82 596.10 761.97 589.41 761.53 584.31 C 761.25 580.76 756.42 579.85 754.10 582.06 C 752.69 585.74 753.64 589.84 752.80 593.67 C 749.29 590.32 747.50 585.39 743.29 582.76 C 739.03 579.94 732.81 580.49 729.36 584.34 C 726.47 587.10 726.06 591.28 725.70 595.04 C 722.47 591.02 718.22 587.44 716.52 582.46 C 716.44 577.16 714.87 570.45 719.57 566.59 C 726.96 560.74 735.74 555.55 745.45 555.55 C 746.28 550.16 750.98 546.74 755.57 544.56 M 722.57 588.41 C 720.82 584.42 718.05 580.57 718.52 575.99 C 718.22 572.29 720.97 569.52 722.68 566.55 C 715.11 571.37 716.52 582.91 722.57 588.41 Z" />
<path fill="#310aa2" opacity="1.00" d=" M 397.03 558.70 C 401.12 558.33 405.32 557.85 409.37 558.73 C 411.72 560.23 413.79 562.25 415.30 564.61 C 416.00 568.30 415.81 572.12 415.57 575.86 C 415.58 579.82 410.50 579.92 407.66 580.81 C 403.38 581.30 399.28 579.64 395.05 579.47 C 391.63 579.75 388.53 581.85 386.37 584.43 C 385.65 589.61 386.87 594.86 387.09 600.06 C 387.55 603.95 386.96 608.91 390.65 611.46 C 392.60 612.94 394.98 611.64 396.89 610.79 C 400.42 608.99 404.09 607.47 407.97 606.62 C 410.79 610.94 409.15 616.21 410.07 620.99 C 410.79 624.73 410.36 629.55 406.57 631.49 C 403.04 633.47 399.17 631.39 395.61 630.62 C 391.74 629.86 387.84 629.28 384.06 628.14 C 381.64 621.71 381.19 614.78 379.65 608.13 C 378.58 603.86 379.28 599.01 376.84 595.17 C 374.29 592.35 370.28 594.24 367.19 594.85 C 366.14 591.12 365.14 586.24 368.26 583.23 C 369.69 581.70 371.07 579.91 370.48 577.68 C 370.35 575.18 370.12 572.66 370.40 570.17 C 370.39 568.20 372.15 566.31 374.17 566.40 C 379.43 565.89 384.72 567.06 389.98 566.32 C 393.34 564.96 395.56 561.88 397.03 558.70 Z" />
<path fill="#310aa2" opacity="1.00" d=" M 742.92 622.20 C 745.70 621.76 748.20 620.38 750.74 619.23 C 751.00 620.48 751.27 621.73 751.53 622.99 C 746.26 622.81 740.97 622.62 735.71 623.15 C 735.86 622.25 736.16 620.46 736.30 619.57 C 738.28 620.84 740.47 622.22 742.92 622.20 Z" />
<path fill="#310aa2" opacity="1.00" d=" M 705.82 665.06 C 709.93 664.88 714.05 664.76 718.04 663.59 C 724.67 676.96 730.34 690.78 736.69 704.29 C 738.74 708.87 740.88 713.42 742.92 718.02 C 743.24 719.06 743.65 720.08 744.17 721.07 C 746.95 726.89 749.45 732.83 752.23 738.66 C 778.04 738.72 803.84 739.75 829.65 738.73 C 834.99 747.48 840.25 756.35 844.20 765.84 C 846.97 771.84 847.81 778.62 846.26 785.08 C 841.65 791.37 833.74 793.29 826.40 794.12 C 796.21 797.27 764.94 795.58 736.33 784.74 C 734.19 783.65 731.79 782.78 730.18 780.95 C 729.38 778.73 729.20 776.36 728.82 774.07 C 727.64 765.97 725.20 757.62 719.44 751.56 C 713.12 744.92 704.66 740.98 696.43 737.30 L 695.56 736.82 C 699.66 735.97 703.85 735.74 708.02 735.36 C 706.85 731.01 705.96 726.43 703.55 722.57 C 699.64 717.77 695.85 712.83 692.93 707.36 C 691.39 703.64 692.84 699.68 693.58 695.97 C 693.01 691.25 690.36 687.09 688.75 682.69 C 688.06 679.71 688.40 676.61 688.51 673.60 C 692.43 671.28 694.35 666.90 697.91 664.25 C 700.56 664.41 703.14 665.51 705.82 665.06 M 693.80 698.16 C 692.91 701.41 692.59 705.25 694.78 708.10 C 697.24 711.58 699.27 715.76 703.28 717.73 C 704.06 713.14 702.56 708.61 700.22 704.73 C 697.96 701.50 699.05 697.42 698.69 693.76 C 696.97 695.12 695.23 696.49 693.80 698.16 Z" />
<path fill="#310aa2" opacity="1.00" d=" M 752.82 708.10 C 753.77 704.96 754.42 701.44 757.14 699.28 C 757.49 703.24 756.06 707.01 755.05 710.77 C 754.29 713.52 753.63 716.30 752.90 719.06 L 752.58 720.17 C 751.46 719.97 750.35 719.79 749.25 719.62 C 750.48 715.79 751.69 711.96 752.82 708.10 Z" />
<path fill="#310aa2" opacity="1.00" d=" M 315.75 774.40 C 321.55 774.73 327.24 776.04 333.04 776.32 C 342.19 776.78 351.37 776.57 360.50 775.76 C 364.86 775.45 369.26 774.88 373.63 775.38 C 378.32 776.70 383.17 776.28 387.97 776.12 C 392.45 775.76 396.53 778.10 400.97 778.25 C 404.10 778.31 407.04 779.44 410.06 780.12 C 413.37 780.87 416.69 779.68 420.02 779.80 C 424.01 780.53 427.81 783.01 431.99 782.04 C 436.45 780.86 440.54 783.59 444.92 783.92 C 450.81 784.34 456.56 785.86 462.17 787.67 C 465.38 788.92 469.05 789.96 471.21 792.83 C 471.86 796.01 472.06 799.27 472.81 802.44 C 473.96 807.55 473.07 812.78 473.15 817.95 C 473.15 820.58 474.88 822.73 476.08 824.95 C 482.10 834.76 487.57 844.91 493.74 854.63 C 496.25 858.84 498.64 863.12 501.04 867.39 C 501.88 866.52 502.70 865.12 504.15 865.52 C 518.24 865.88 532.34 865.61 546.44 865.68 C 546.56 877.69 546.49 889.71 546.81 901.72 C 552.51 899.77 558.53 899.43 564.49 899.15 L 565.73 899.07 C 565.87 901.30 564.41 903.03 563.23 904.76 C 563.85 906.92 563.01 909.04 562.41 911.11 L 561.76 910.67 C 561.30 910.36 560.38 909.74 559.93 909.43 C 555.17 914.19 548.48 917.22 545.17 923.27 C 543.52 926.86 539.37 928.10 536.65 930.72 C 533.50 933.57 529.85 937.43 525.12 936.13 C 521.07 934.06 519.59 929.28 518.34 925.24 C 523.10 923.63 526.85 920.39 529.86 916.47 C 532.95 913.52 536.66 911.11 538.95 907.42 C 540.49 904.96 543.32 903.85 545.35 901.87 C 546.12 897.61 545.65 893.24 545.63 888.94 C 545.15 881.43 546.00 873.91 545.61 866.40 C 533.41 866.19 521.22 866.43 509.03 866.27 C 507.07 866.37 504.93 866.02 503.20 867.14 C 503.40 870.27 505.45 873.03 505.24 876.24 C 510.77 886.81 518.53 896.22 522.53 907.58 C 519.07 909.77 515.60 911.94 511.97 913.82 C 509.15 911.32 505.85 909.47 502.46 907.88 C 502.26 905.99 501.78 904.05 500.29 902.76 C 495.10 897.56 489.35 892.90 484.74 887.15 C 479.54 880.43 473.66 874.28 468.49 867.55 C 467.53 866.53 466.55 865.55 465.55 864.59 C 465.36 865.45 464.97 867.17 464.78 868.02 C 463.88 872.72 461.97 877.19 461.68 882.01 C 461.35 886.39 458.69 890.16 458.09 894.51 C 457.51 898.85 456.75 903.17 455.98 907.49 C 455.69 907.95 455.11 908.88 454.82 909.34 C 454.15 910.31 453.44 911.27 452.70 912.21 C 447.91 912.28 443.03 911.90 438.57 910.02 C 439.62 906.42 439.81 902.67 439.70 898.95 C 439.53 895.43 441.50 892.36 442.25 889.03 C 442.32 885.16 441.09 881.27 442.10 877.44 C 443.95 869.50 443.41 861.30 444.23 853.24 C 444.57 847.48 444.83 841.71 444.75 835.95 C 444.73 831.41 442.05 827.54 440.72 823.34 C 439.62 820.49 438.67 816.28 434.81 816.44 C 401.87 814.83 368.92 813.48 335.99 811.89 C 326.50 811.58 318.22 804.83 315.02 796.07 C 314.99 794.54 314.89 792.98 314.15 791.63 C 315.09 785.89 313.47 779.93 315.75 774.40 Z" />
<path fill="#310aa2" opacity="1.00" d=" M 658.03 874.97 C 658.41 874.82 659.18 874.51 659.56 874.35 C 659.46 875.65 659.34 876.96 659.21 878.28 C 658.23 883.63 658.30 889.12 657.21 894.47 C 655.96 900.75 657.03 907.30 655.09 913.48 C 654.35 915.67 654.54 917.99 654.87 920.25 C 656.99 919.35 658.67 917.82 659.90 915.89 C 666.68 906.08 673.48 895.98 677.01 884.47 C 680.87 884.21 685.03 886.12 685.54 890.35 C 686.22 893.25 685.41 896.19 683.17 898.18 C 680.67 900.83 679.38 904.25 677.77 907.45 C 677.71 907.54 677.58 907.73 677.52 907.83 C 670.13 916.11 665.17 926.36 657.14 934.13 C 655.75 935.68 653.52 935.48 651.66 935.85 C 651.80 931.26 651.10 926.55 652.46 922.08 C 653.59 918.55 653.79 914.82 654.78 911.27 C 656.56 906.05 655.23 900.48 655.84 895.12 C 656.32 892.06 657.83 889.20 657.72 886.05 C 657.85 882.36 657.42 878.63 658.03 874.97 Z" />
<path fill="#310aa2" opacity="1.00" d=" M 704.87 891.22 C 706.26 891.20 707.67 891.16 709.08 891.23 C 711.39 890.97 712.47 893.42 713.89 894.80 C 712.93 898.40 712.56 902.11 711.86 905.76 C 710.20 907.80 708.03 909.48 706.96 911.96 C 703.82 918.56 699.79 924.67 696.00 930.91 C 692.97 935.32 690.27 941.18 684.32 941.98 C 684.63 936.34 683.82 930.75 683.66 925.13 C 684.26 925.39 685.47 925.91 686.07 926.17 L 687.02 926.59 C 689.01 924.33 690.64 921.79 692.15 919.20 C 697.29 910.33 702.25 901.19 704.87 891.22 Z" />
<path fill="#310aa2" opacity="1.00" d=" M 452.60 916.43 C 455.68 914.80 459.59 916.02 463.00 915.65 C 470.34 915.17 478.37 916.92 483.63 922.37 C 486.30 925.13 489.71 927.80 490.01 931.95 C 474.70 932.80 459.32 932.04 443.99 932.34 C 440.97 932.28 436.80 932.63 435.17 929.48 C 433.09 925.93 435.49 922.03 436.46 918.55 L 437.39 918.73 C 442.50 919.77 448.84 921.12 452.60 916.43 Z" />
</g>
<g id="#ffa9a8ff">
<path fill="#ffa9a8" opacity="1.00" d=" M 563.48 469.81 C 570.28 468.32 577.28 468.25 584.05 466.57 C 590.66 466.09 597.36 466.01 603.97 466.60 C 612.18 468.64 620.93 468.40 628.72 472.05 C 634.46 474.83 640.65 477.17 645.28 481.72 C 651.51 487.68 657.77 493.99 661.17 502.07 C 664.66 510.63 668.19 519.59 667.74 529.01 C 667.44 537.63 668.18 546.30 667.36 554.89 C 664.89 563.79 661.27 572.93 654.28 579.28 C 648.62 584.66 643.56 590.84 636.66 594.74 C 628.07 599.65 619.08 603.85 609.91 607.58 C 605.45 610.12 600.20 609.34 595.49 611.04 C 592.46 611.92 589.21 611.69 586.24 612.85 C 581.35 614.92 575.84 612.53 570.95 614.60 C 567.19 616.33 563.00 615.72 559.00 615.78 C 551.98 615.71 544.96 615.83 537.94 615.79 C 535.15 615.75 532.72 614.10 529.99 613.74 C 526.97 613.56 523.95 613.78 520.93 613.77 C 517.11 614.09 513.84 611.28 510.00 611.72 C 505.21 612.06 500.93 609.24 496.12 609.48 C 488.31 607.21 480.26 605.83 472.60 603.05 C 468.71 601.70 463.85 601.01 462.03 596.74 C 464.78 596.08 467.55 595.48 470.28 594.68 C 479.77 592.68 490.01 588.31 493.81 578.62 C 498.00 571.84 495.39 563.73 496.92 556.36 C 498.00 554.06 499.19 551.70 499.16 549.09 C 499.21 530.71 503.97 511.91 514.99 496.98 C 518.40 492.66 522.61 489.07 525.99 484.72 C 537.14 477.01 549.93 471.36 563.48 469.81 M 564.89 496.00 C 555.27 499.82 546.90 507.52 543.33 517.36 C 542.38 521.00 538.60 522.59 536.66 525.59 C 528.88 536.10 533.98 553.29 546.42 557.60 C 549.56 558.09 550.30 561.70 552.83 562.86 C 552.78 561.31 551.59 560.20 550.95 558.89 C 553.13 558.81 555.32 558.71 557.51 558.56 C 556.54 560.01 555.56 561.47 554.78 563.04 C 557.81 561.01 560.32 558.25 563.60 556.58 C 568.08 554.23 573.02 552.92 577.92 551.75 C 577.04 553.99 575.18 555.66 574.28 557.87 C 574.58 557.93 575.17 558.04 575.46 558.10 C 577.38 555.84 578.64 553.13 580.18 550.62 C 583.71 556.72 583.37 564.72 579.68 570.67 C 574.66 578.62 562.54 580.45 555.20 574.78 C 552.05 572.35 552.95 568.29 554.09 565.08 C 558.96 566.59 564.52 567.02 568.97 564.04 C 570.70 562.71 573.49 561.53 573.78 559.23 C 570.55 560.60 568.13 563.81 564.47 564.52 C 560.82 565.98 557.08 564.46 553.81 562.81 C 551.79 566.75 550.20 572.51 554.26 575.77 C 561.18 581.23 571.75 580.21 578.35 574.66 C 577.89 576.42 577.23 578.16 577.13 580.00 C 577.09 582.70 580.30 584.59 579.52 587.40 C 578.44 591.82 579.71 597.09 583.85 599.49 C 581.73 595.41 579.06 591.01 581.03 586.30 C 585.97 588.07 592.40 589.65 596.76 585.81 C 599.56 583.58 597.92 579.02 594.59 578.45 C 589.21 577.33 584.54 581.21 580.73 584.46 C 578.91 582.50 577.81 579.78 579.01 577.19 C 582.06 569.66 590.07 566.19 596.94 562.93 C 600.14 561.20 604.09 560.13 606.08 556.84 C 597.87 561.23 588.96 564.51 581.67 570.44 C 584.39 564.28 584.62 557.20 582.19 550.92 C 589.43 549.94 596.93 550.44 603.77 553.14 C 604.77 553.70 606.30 553.76 606.85 554.93 C 606.58 555.59 606.04 556.90 605.77 557.56 C 606.91 556.93 608.06 556.31 609.21 555.69 C 610.70 557.05 612.19 558.42 613.66 559.83 C 612.16 561.58 610.38 563.22 609.57 565.43 C 608.92 567.33 609.92 569.43 611.41 570.65 C 613.72 571.73 615.90 569.63 616.88 567.71 C 618.16 565.20 616.10 562.73 616.27 560.20 C 619.12 561.20 620.78 564.65 624.07 565.18 C 627.42 566.94 631.52 562.12 628.67 559.37 C 625.85 556.40 621.38 557.55 617.83 558.07 C 616.86 555.77 616.58 553.17 617.92 550.94 C 619.29 547.45 623.14 546.43 626.34 545.36 C 624.53 543.96 622.37 543.20 620.27 542.38 C 622.69 539.58 625.17 536.54 625.77 532.77 C 626.72 526.04 620.23 519.01 613.28 520.90 C 614.34 516.92 614.98 512.57 613.26 508.67 C 610.47 501.70 603.34 497.77 596.52 495.63 C 586.27 492.68 574.99 492.21 564.89 496.00 Z" />
<path fill="#ffa9a8" opacity="1.00" d=" M 563.25 498.17 C 573.26 493.71 584.82 493.88 595.26 496.70 C 601.60 498.41 608.05 501.76 611.35 507.69 C 613.16 510.84 613.08 514.56 613.06 518.09 C 611.01 515.44 608.85 512.60 605.58 511.42 C 600.21 509.07 594.08 510.00 588.95 512.51 C 587.81 508.89 586.42 505.04 583.15 502.80 C 578.69 499.10 571.83 498.91 567.07 502.13 C 565.08 503.40 563.58 505.27 561.69 506.66 C 559.79 507.15 557.57 506.76 555.98 508.10 C 553.51 510.05 552.10 512.94 550.47 515.56 C 549.33 517.81 546.34 517.73 544.30 518.65 C 547.31 509.52 554.63 502.18 563.25 498.17 Z" />
<path fill="#ffa9a8" opacity="1.00" d=" M 562.85 507.88 C 565.44 504.60 568.90 501.70 573.24 501.32 C 580.21 500.27 586.89 506.20 587.41 513.08 C 586.82 515.30 584.93 516.97 584.30 519.21 C 583.90 521.77 585.14 524.27 584.89 526.83 C 583.92 530.11 582.17 533.08 580.55 536.07 C 578.55 528.68 573.46 522.45 566.82 518.71 C 566.75 514.73 565.59 510.84 562.85 507.88 Z" />
<path fill="#ffa9a8" opacity="1.00" d=" M 551.67 516.21 C 553.67 512.47 556.06 507.91 560.93 507.82 C 560.49 510.70 559.88 513.55 559.24 516.39 C 556.71 516.24 554.19 516.22 551.67 516.21 Z" />
<path fill="#ffa9a8" opacity="1.00" d=" M 562.15 509.56 C 564.72 511.63 565.28 514.93 565.25 518.05 C 563.79 517.62 562.34 517.19 560.90 516.78 C 560.97 514.32 561.37 511.89 562.15 509.56 Z" />
<path fill="#ffa9a8" opacity="1.00" d=" M 589.00 514.12 C 594.82 510.61 602.89 510.27 608.36 514.62 C 610.47 516.54 612.78 519.55 611.54 522.55 C 608.84 529.41 603.74 535.13 597.70 539.26 C 593.35 535.57 589.50 531.08 587.00 525.96 C 587.73 522.02 588.73 518.13 589.00 514.12 Z" />
<path fill="#ffa9a8" opacity="1.00" d=" M 586.40 517.55 C 587.88 517.64 587.50 521.42 586.08 521.54 C 585.22 520.40 585.59 518.60 586.40 517.55 Z" />
<path fill="#ffa9a8" opacity="1.00" d=" M 551.00 517.84 C 553.91 517.71 556.83 517.69 559.75 517.95 C 560.32 520.56 561.05 523.12 561.83 525.68 C 558.09 529.73 552.93 533.32 547.11 532.03 C 546.93 531.75 546.56 531.19 546.38 530.91 C 547.46 526.41 549.13 522.07 551.00 517.84 Z" />
<path fill="#ffa9a8" opacity="1.00" d=" M 561.08 518.19 C 562.30 518.53 563.53 518.89 564.77 519.24 C 564.23 520.83 563.79 522.55 562.38 523.61 C 561.92 521.80 561.50 519.99 561.08 518.19 Z" />
<path fill="#ffa9a8" opacity="1.00" d=" M 543.31 521.32 C 544.88 519.80 547.07 519.24 549.05 518.44 C 547.60 522.47 546.30 526.55 544.72 530.52 C 542.89 527.80 542.65 524.45 543.31 521.32 Z" />
<path fill="#ffa9a8" opacity="1.00" d=" M 566.21 519.96 C 572.80 523.47 577.63 529.82 579.44 537.04 C 579.07 538.40 578.44 539.68 577.89 540.98 C 571.24 537.95 566.63 532.07 563.24 525.80 C 564.25 523.86 565.24 521.91 566.21 519.96 Z" />
<path fill="#ffa9a8" opacity="1.00" d=" M 534.47 538.00 C 533.97 531.78 537.14 525.97 541.66 521.92 C 541.38 525.62 542.24 529.16 544.22 532.28 C 544.33 535.97 543.52 539.77 544.66 543.38 C 545.34 546.29 547.30 548.63 548.58 551.27 C 548.75 553.22 548.72 555.19 548.78 557.16 C 540.45 554.78 534.35 546.68 534.47 538.00 Z" />
<path fill="#ffa9a8" opacity="1.00" d=" M 613.19 523.28 C 614.61 521.36 617.43 521.69 619.26 522.79 C 623.20 524.75 625.23 529.66 624.08 533.87 C 623.38 537.07 621.02 539.47 618.86 541.78 C 615.93 539.61 612.48 537.03 612.31 533.04 C 612.37 529.77 612.69 526.50 613.19 523.28 Z" />
<path fill="#ffa9a8" opacity="1.00" d=" M 553.28 533.19 C 556.95 532.13 559.71 529.35 562.60 527.01 C 564.92 531.50 567.88 535.83 572.05 538.81 C 573.72 540.10 575.71 541.12 576.71 543.09 C 572.64 541.28 568.68 538.54 564.00 539.03 C 557.55 538.37 552.03 542.93 549.42 548.49 C 549.16 548.58 548.64 548.77 548.38 548.87 C 545.73 544.10 544.60 538.51 545.75 533.14 C 548.23 533.43 550.82 533.97 553.28 533.19 Z" />
<path fill="#ffa9a8" opacity="1.00" d=" M 586.24 527.73 C 589.09 532.20 592.48 536.29 596.25 540.01 C 591.46 542.27 586.07 543.19 580.85 542.06 C 580.21 536.62 584.54 532.57 586.24 527.73 Z" />
<path fill="#ffa9a8" opacity="1.00" d=" M 598.64 540.25 C 602.89 537.22 606.35 533.32 609.82 529.47 C 611.20 534.32 611.82 539.33 612.05 544.35 C 607.21 544.69 602.51 543.10 598.64 540.25 Z" />
<path fill="#ffa9a8" opacity="1.00" d=" M 612.95 538.52 C 614.45 539.88 615.95 541.26 617.33 542.76 C 615.96 543.23 614.59 543.70 613.23 544.17 C 613.11 542.28 613.01 540.39 612.95 538.52 Z" />
<path fill="#ffa9a8" opacity="1.00" d=" M 559.16 541.01 C 564.64 539.12 570.55 541.01 575.24 544.02 C 571.13 548.67 566.75 553.49 560.89 555.90 C 557.46 557.37 553.68 557.50 550.02 557.28 C 549.97 555.60 549.93 553.94 549.89 552.28 C 550.98 552.42 552.07 552.56 553.17 552.69 C 552.24 551.73 551.28 550.81 550.34 549.89 C 551.98 545.94 554.88 542.21 559.16 541.01 Z" />
<path fill="#ffa9a8" opacity="1.00" d=" M 580.95 543.80 C 586.50 544.27 592.20 543.66 597.15 540.94 C 601.64 543.91 606.70 545.95 612.15 546.11 C 611.44 548.86 610.29 551.47 608.82 553.90 C 600.18 549.41 590.30 548.28 580.73 549.57 C 580.69 547.64 580.81 545.71 580.95 543.80 Z" />
<path fill="#ffa9a8" opacity="1.00" d=" M 576.67 543.30 C 577.29 542.99 578.55 542.38 579.17 542.07 C 579.48 543.47 579.74 544.88 580.02 546.31 C 578.52 545.76 577.50 544.58 576.67 543.30 Z" />
<path fill="#ffa9a8" opacity="1.00" d=" M 613.59 545.60 C 615.38 544.81 617.10 543.87 618.95 543.23 C 620.17 543.65 621.34 544.20 622.53 544.75 C 620.16 546.59 617.21 548.26 616.29 551.33 C 615.92 554.09 616.18 556.89 616.07 559.67 C 613.81 558.31 611.90 556.49 609.97 554.73 C 611.56 551.85 612.81 548.80 613.59 545.60 Z" />
<path fill="#ffa9a8" opacity="1.00" d=" M 576.27 544.92 C 577.60 546.33 578.77 547.87 579.31 549.78 C 575.79 550.88 572.23 551.86 568.70 552.93 C 571.20 550.23 573.82 547.66 576.27 544.92 Z" />
<path fill="#ffa9a8" opacity="1.00" d=" M 618.50 559.10 C 621.77 558.72 625.20 558.54 628.23 560.12 C 628.04 561.52 628.17 563.19 626.77 564.06 C 623.36 564.28 619.87 562.24 618.50 559.10 Z" />
<path fill="#ffa9a8" opacity="1.00" d=" M 614.39 560.92 C 615.13 562.75 616.62 564.65 615.90 566.73 C 615.30 568.44 613.63 569.27 612.19 570.16 C 609.40 566.94 611.75 563.24 614.39 560.92 Z" />
<path fill="#ffa9a8" opacity="1.00" d=" M 386.37 584.43 C 388.53 581.85 391.63 579.75 395.05 579.47 C 399.28 579.64 403.38 581.30 407.66 580.81 C 409.77 589.28 406.23 598.02 408.70 606.43 L 407.97 606.62 C 404.09 607.47 400.42 608.99 396.89 610.79 C 394.98 611.64 392.60 612.94 390.65 611.46 C 386.96 608.91 387.55 603.95 387.09 600.06 C 386.87 594.86 385.65 589.61 386.37 584.43 Z" />
<path fill="#ffa9a8" opacity="1.00" d=" M 582.07 585.17 C 585.22 582.13 589.29 579.13 593.94 579.80 C 596.06 579.77 598.17 582.51 596.32 584.24 C 592.77 588.30 586.49 586.88 582.07 585.17 Z" />
<path fill="#ffa9a8" opacity="1.00" d=" M 729.36 584.34 C 732.81 580.49 739.03 579.94 743.29 582.76 C 747.50 585.39 749.29 590.32 752.80 593.67 C 753.64 589.84 752.69 585.74 754.10 582.06 C 756.42 579.85 761.25 580.76 761.53 584.31 C 761.97 589.41 759.82 596.10 765.20 599.38 L 765.83 599.92 C 764.28 606.74 769.65 612.18 771.97 618.10 C 772.72 619.85 773.43 621.62 774.15 623.38 C 768.84 626.87 762.18 627.33 756.00 627.16 C 754.12 627.32 752.83 625.90 751.82 624.55 C 751.75 624.16 751.61 623.38 751.53 622.99 C 751.27 621.73 751.00 620.48 750.74 619.23 C 748.20 620.38 745.70 621.76 742.92 622.20 C 740.47 622.22 738.28 620.84 736.30 619.57 C 730.13 612.93 726.92 603.88 725.70 595.04 C 726.06 591.28 726.47 587.10 729.36 584.34 Z" />
<path fill="#ffa9a8" opacity="1.00" d=" M 367.19 594.85 C 370.28 594.24 374.29 592.35 376.84 595.17 C 379.28 599.01 378.58 603.86 379.65 608.13 C 381.19 614.78 381.64 621.71 384.06 628.14 L 384.40 629.05 C 383.97 630.09 383.55 631.14 383.14 632.19 C 381.43 635.87 381.42 639.98 381.56 643.95 C 376.00 645.40 370.01 646.60 364.41 644.67 C 359.66 643.08 354.27 639.59 354.59 633.94 C 357.53 628.47 361.21 623.24 362.49 617.06 C 363.22 613.81 365.27 611.13 367.03 608.39 C 368.36 604.00 368.97 599.21 367.19 594.85 Z" />
<path fill="#ffa9a8" opacity="1.00" d=" M 446.55 623.58 C 450.01 619.67 453.58 615.70 458.16 613.07 C 457.47 616.01 456.65 618.92 456.24 621.92 C 461.47 622.96 466.67 624.14 472.01 624.49 C 475.76 624.68 477.72 628.35 479.62 631.08 C 475.12 632.28 470.62 633.45 466.11 634.60 C 460.20 636.35 453.98 635.53 447.92 635.73 C 447.75 637.55 447.58 639.38 447.37 641.21 C 444.53 640.87 441.78 640.04 439.23 638.76 C 441.77 633.74 442.71 627.88 446.55 623.58 Z" />
<path fill="#ffa9a8" opacity="1.00" d=" M 693.80 698.16 C 695.23 696.49 696.97 695.12 698.69 693.76 C 699.05 697.42 697.96 701.50 700.22 704.73 C 702.56 708.61 704.06 713.14 703.28 717.73 C 699.27 715.76 697.24 711.58 694.78 708.10 C 692.59 705.25 692.91 701.41 693.80 698.16 Z" />
<path fill="#ffa9a8" opacity="1.00" d=" M 736.69 704.29 C 740.57 704.02 744.46 703.81 748.35 703.56 C 749.79 705.11 751.30 706.60 752.82 708.10 C 751.69 711.96 750.48 715.79 749.25 719.62 C 750.35 719.79 751.46 719.97 752.58 720.17 C 757.59 721.13 762.46 722.75 767.50 723.59 C 774.89 725.02 782.46 725.47 789.99 725.32 C 800.15 725.13 809.87 721.79 819.47 718.77 C 820.70 718.39 821.93 718.03 823.18 717.69 C 830.64 715.45 838.27 713.58 845.35 710.25 C 847.10 715.57 849.57 720.71 850.56 726.25 C 851.14 729.34 848.96 731.98 846.67 733.75 C 842.07 738.03 835.68 738.91 829.65 738.73 C 803.84 739.75 778.04 738.72 752.23 738.66 C 749.45 732.83 746.95 726.89 744.17 721.07 C 747.35 720.44 745.63 716.15 742.92 718.02 C 740.88 713.42 738.74 708.87 736.69 704.29 Z" />
<path fill="#ffa9a8" opacity="1.00" d=" M 755.05 710.77 C 757.75 713.46 760.41 716.19 763.09 718.92 C 759.69 718.85 756.28 718.74 752.90 719.06 C 753.63 716.30 754.29 713.52 755.05 710.77 Z" />
<path fill="#ffa9a8" opacity="1.00" d=" M 433.43 732.17 C 437.13 728.10 440.51 723.53 445.06 720.41 C 445.76 720.36 447.17 720.25 447.88 720.20 C 447.47 722.77 446.68 725.27 446.10 727.81 C 448.02 727.57 449.94 727.24 451.76 726.54 C 453.98 725.78 456.19 724.96 458.40 724.16 C 457.67 726.91 457.06 729.87 455.09 732.06 C 448.82 739.81 438.26 741.23 429.13 743.32 C 428.53 740.83 427.99 738.34 427.40 735.86 L 427.14 734.73 C 429.25 733.90 431.45 733.28 433.43 732.17 Z" />
<path fill="#ffa9a8" opacity="1.00" d=" M 696.43 737.30 C 704.66 740.98 713.12 744.92 719.44 751.56 C 725.20 757.62 727.64 765.97 728.82 774.07 C 727.22 773.91 725.64 773.76 724.05 773.65 C 722.37 773.52 720.70 773.43 719.04 773.35 C 720.54 777.32 722.09 781.28 723.55 785.29 C 723.83 792.77 724.09 800.34 722.77 807.75 C 722.13 811.42 721.40 815.09 721.01 818.80 C 717.89 831.10 713.02 842.87 709.34 855.01 C 705.54 862.22 704.43 870.55 699.98 877.46 C 698.13 880.56 696.71 886.28 700.69 888.25 C 702.08 889.11 703.58 889.80 705.07 890.54 L 704.87 891.22 C 702.25 901.19 697.29 910.33 692.15 919.20 C 690.64 921.79 689.01 924.33 687.02 926.59 L 686.07 926.17 L 685.23 925.40 C 685.90 919.95 685.68 914.47 685.70 909.00 C 689.48 902.28 688.07 894.35 688.25 886.98 C 688.38 883.39 687.55 879.88 686.62 876.45 C 685.68 869.73 685.67 862.94 685.70 856.17 C 685.65 853.02 685.58 849.89 685.43 846.76 C 683.69 849.87 682.36 853.18 680.95 856.45 C 677.81 861.51 675.59 867.06 672.65 872.23 C 671.34 874.75 669.66 877.59 670.49 880.53 C 671.87 882.88 674.49 883.84 677.01 884.47 C 673.48 895.98 666.68 906.08 659.90 915.89 C 658.67 917.82 656.99 919.35 654.87 920.25 C 654.54 917.99 654.35 915.67 655.09 913.48 C 657.03 907.30 655.96 900.75 657.21 894.47 C 658.30 889.12 658.23 883.63 659.21 878.28 C 660.53 874.65 660.90 870.79 660.67 866.96 C 660.33 861.19 662.63 855.72 662.67 849.99 C 662.76 844.59 664.63 839.42 664.64 834.03 C 664.65 830.33 664.99 826.65 665.84 823.05 C 666.97 818.21 666.58 813.22 667.11 808.32 C 667.49 804.19 668.68 800.13 668.25 795.95 C 667.81 792.45 669.57 789.32 670.22 785.99 C 670.49 782.70 669.93 779.37 670.47 776.11 C 671.29 773.12 672.64 770.18 672.27 767.01 C 671.98 764.03 672.58 761.13 673.62 758.36 C 675.07 754.68 673.26 750.37 675.56 746.95 C 677.29 744.12 679.19 740.49 682.96 740.30 C 687.61 739.84 691.68 737.05 696.43 737.30 Z" />
<path fill="#ffa9a8" opacity="1.00" d=" M 598.93 815.91 C 599.24 816.44 599.88 817.50 600.20 818.02 C 600.29 822.94 600.45 827.89 600.11 832.81 C 599.81 833.12 599.20 833.76 598.90 834.08 C 598.99 828.02 598.93 821.97 598.93 815.91 Z" />
<path fill="#ffa9a8" opacity="1.00" d=" M 677.52 907.83 C 677.58 907.73 677.71 907.54 677.77 907.45 C 677.71 907.54 677.58 907.73 677.52 907.83 Z" />
<path fill="#ffa9a8" opacity="1.00" d=" M 511.97 913.82 C 515.60 911.94 519.07 909.77 522.53 907.58 C 524.02 911.21 525.79 915.17 529.86 916.47 C 526.85 920.39 523.10 923.63 518.34 925.24 C 517.18 920.96 514.80 917.17 511.97 913.82 Z" />
<path fill="#ffa9a8" opacity="1.00" d=" M 437.78 909.74 L 438.57 910.02 C 443.03 911.90 447.91 912.28 452.70 912.21 C 452.59 913.60 452.55 915.00 452.60 916.43 C 448.84 921.12 442.50 919.77 437.39 918.73 C 437.30 915.72 437.67 912.73 437.78 909.74 Z" />
</g>
<g id="#ff695bff">
<path fill="#ff695b" opacity="1.00" d=" M 344.85 642.80 C 348.36 639.79 350.78 635.74 354.36 632.79 L 354.59 633.94 C 354.27 639.59 359.66 643.08 364.41 644.67 C 370.01 646.60 376.00 645.40 381.56 643.95 C 384.56 650.88 390.04 656.49 396.13 660.84 C 401.29 664.52 404.42 670.72 410.50 673.18 C 415.49 675.75 421.70 673.24 425.04 669.15 C 431.55 659.90 433.71 648.51 439.23 638.76 C 441.78 640.04 444.53 640.87 447.37 641.21 L 447.27 642.04 C 445.19 647.49 445.73 653.32 445.78 659.03 C 445.96 662.49 444.30 665.63 443.77 668.98 C 443.51 671.99 444.66 674.95 444.19 677.96 C 443.46 681.58 442.27 685.15 440.39 688.35 C 437.70 692.34 433.04 694.18 428.94 696.34 C 423.41 699.32 416.65 698.77 410.95 696.57 C 406.01 694.75 400.98 693.24 395.96 691.68 C 395.90 694.42 395.18 697.05 394.33 699.63 C 393.29 702.61 393.95 705.79 393.66 708.87 C 392.08 715.66 387.99 722.08 388.74 729.26 C 392.95 731.56 397.07 734.18 401.67 735.65 C 409.06 737.31 416.80 736.89 424.22 735.62 C 425.40 735.18 426.46 735.26 427.40 735.86 C 427.99 738.34 428.53 740.83 429.13 743.32 C 438.26 741.23 448.82 739.81 455.09 732.06 C 457.06 729.87 457.67 726.91 458.40 724.16 C 456.19 724.96 453.98 725.78 451.76 726.54 C 453.65 723.90 456.73 722.58 459.82 721.93 C 459.73 729.43 454.91 736.72 447.84 739.36 C 443.51 740.69 439.27 742.29 434.93 743.58 C 426.21 745.24 419.09 751.69 410.05 752.24 C 401.39 752.11 392.46 753.25 384.19 750.01 C 383.14 749.69 382.10 749.38 381.07 749.07 C 380.51 750.86 379.96 752.65 379.41 754.44 C 376.75 761.22 375.69 768.43 373.63 775.38 C 369.26 774.88 364.86 775.45 360.50 775.76 C 351.37 776.57 342.19 776.78 333.04 776.32 C 327.24 776.04 321.55 774.73 315.75 774.40 C 315.69 768.58 315.72 762.77 315.71 756.96 C 315.57 751.82 318.65 747.20 318.32 742.03 C 318.69 736.01 317.12 730.03 317.87 724.03 C 318.52 721.65 319.69 719.44 320.21 717.02 C 320.58 712.36 319.45 707.49 321.46 703.07 C 323.17 699.06 321.33 694.54 323.05 690.55 C 324.70 686.19 324.05 681.39 325.75 677.03 C 327.73 666.17 333.84 656.80 339.70 647.69 C 341.09 645.74 343.10 644.38 344.85 642.80 Z" />
<path fill="#ff695b" opacity="1.00" d=" M 723.55 785.29 C 724.12 785.29 725.26 785.30 725.84 785.31 C 729.34 785.27 732.83 784.94 736.33 784.74 C 764.94 795.58 796.21 797.27 826.40 794.12 C 833.74 793.29 841.65 791.37 846.26 785.08 C 853.17 784.86 860.09 785.02 867.00 784.87 C 871.74 784.78 876.56 784.71 881.17 785.98 L 881.80 786.16 C 884.47 788.55 889.42 788.49 890.90 792.41 C 892.97 797.65 895.91 803.63 892.88 809.10 C 889.75 812.55 886.53 816.06 882.78 818.85 C 876.94 821.23 870.42 820.14 864.28 820.17 C 859.58 819.76 854.86 819.77 850.16 820.17 C 818.31 820.45 786.44 820.25 754.58 820.25 C 749.61 819.84 744.63 819.82 739.65 819.76 C 733.39 819.65 727.12 819.77 720.85 819.73 L 721.01 818.80 C 721.40 815.09 722.13 811.42 722.77 807.75 C 724.09 800.34 723.83 792.77 723.55 785.29 Z" />
<path fill="#ff695b" opacity="1.00" d=" M 665.76 808.21 L 667.11 808.32 C 666.58 813.22 666.97 818.21 665.84 823.05 C 664.99 826.65 664.65 830.33 664.64 834.03 C 664.63 839.42 662.76 844.59 662.67 849.99 C 662.63 855.72 660.33 861.19 660.67 866.96 C 660.90 870.79 660.53 874.65 659.21 878.28 C 659.34 876.96 659.46 875.65 659.56 874.35 C 660.20 868.26 658.78 861.95 660.90 856.06 C 662.10 852.81 661.61 849.31 661.74 845.94 C 661.75 842.83 663.18 839.98 663.63 836.95 C 664.02 832.22 663.07 827.35 664.69 822.78 C 666.41 818.10 665.51 813.06 665.76 808.21 Z" />
</g>
<g id="#8aa6feff">
<path fill="#8aa6fe" opacity="1.00" d=" M 722.57 588.41 C 716.52 582.91 715.11 571.37 722.68 566.55 C 720.97 569.52 718.22 572.29 718.52 575.99 C 718.05 580.57 720.82 584.42 722.57 588.41 Z" />
<path fill="#8aa6fe" opacity="1.00" d=" M 370.48 577.68 C 371.07 579.91 369.69 581.70 368.26 583.23 C 368.62 581.24 369.57 579.45 370.48 577.68 Z" />
<path fill="#8aa6fe" opacity="1.00" d=" M 771.97 618.10 C 773.89 620.18 775.35 622.68 777.57 624.48 C 807.33 646.14 832.43 675.49 845.35 710.25 C 838.27 713.58 830.64 715.45 823.18 717.69 C 816.09 706.36 809.03 694.81 799.91 684.98 C 806.70 696.06 815.12 706.34 819.47 718.77 C 809.87 721.79 800.15 725.13 789.99 725.32 C 782.46 725.47 774.89 725.02 767.50 723.59 C 766.07 721.98 764.59 720.44 763.09 718.92 C 760.41 716.19 757.75 713.46 755.05 710.77 C 756.06 707.01 757.49 703.24 757.14 699.28 C 754.42 701.44 753.77 704.96 752.82 708.10 C 751.30 706.60 749.79 705.11 748.35 703.56 C 742.22 696.47 734.78 689.53 733.05 679.88 C 730.92 670.57 734.60 661.43 737.83 652.85 C 740.81 644.99 744.24 637.30 747.66 629.62 C 748.49 627.52 750.19 626.02 751.82 624.55 C 752.83 625.90 754.12 627.32 756.00 627.16 C 762.18 627.33 768.84 626.87 774.15 623.38 C 773.43 621.62 772.72 619.85 771.97 618.10 Z" />
<path fill="#8aa6fe" opacity="1.00" d=" M 889.33 674.45 C 889.47 670.84 889.54 667.23 890.05 663.66 C 890.08 667.21 891.18 671.19 889.33 674.45 Z" />
<path fill="#8aa6fe" opacity="1.00" d=" M 312.24 791.79 C 312.72 791.75 313.67 791.67 314.15 791.63 C 314.89 792.98 314.99 794.54 315.02 796.07 C 313.68 794.95 312.50 793.57 312.24 791.79 Z" />
<path fill="#8aa6fe" opacity="1.00" d=" M 739.65 819.76 C 744.63 819.82 749.61 819.84 754.58 820.25 C 754.55 820.85 754.47 822.04 754.43 822.64 C 753.04 829.01 753.60 835.54 753.56 842.00 C 753.64 848.87 752.98 855.83 754.48 862.61 C 757.07 862.55 759.66 862.32 762.22 861.87 C 791.52 861.45 820.83 861.89 850.13 861.65 C 850.43 847.83 850.38 833.99 850.16 820.17 C 854.86 819.77 859.58 819.76 864.28 820.17 C 863.95 823.91 865.14 828.04 863.57 831.53 C 862.88 832.72 861.89 833.79 861.59 835.17 C 860.62 843.37 862.54 851.71 861.23 859.88 C 857.81 869.27 860.10 879.35 859.63 889.07 C 859.46 892.46 857.86 895.58 857.54 898.96 C 856.73 908.56 858.54 918.24 857.20 927.81 C 854.58 924.53 855.59 920.21 855.49 916.36 C 855.24 916.36 854.72 916.34 854.46 916.33 C 854.51 922.79 854.94 929.32 853.60 935.69 C 852.85 936.08 851.35 936.85 850.59 937.23 C 849.86 916.83 850.60 896.39 850.22 875.98 C 849.89 873.49 847.75 871.06 845.07 871.53 C 821.05 871.52 797.03 871.54 773.02 871.52 C 770.62 871.53 768.22 871.50 765.87 871.88 C 762.05 872.59 758.18 872.84 754.35 873.41 L 754.10 874.28 C 753.04 880.49 754.10 886.80 754.61 893.02 C 752.81 907.98 754.08 923.14 753.67 938.20 C 751.10 937.88 747.48 939.48 745.80 936.93 C 745.17 930.19 747.84 923.19 745.15 916.66 C 741.76 908.03 744.82 898.86 744.28 889.97 C 744.44 886.43 743.30 883.04 742.55 879.64 C 741.51 868.99 743.73 858.02 740.57 847.63 C 739.78 838.36 740.97 828.99 739.65 819.76 Z" />
<path fill="#8aa6fe" opacity="1.00" d=" M 284.55 867.97 C 285.23 861.35 281.32 855.21 282.67 848.59 C 286.05 849.27 289.49 849.58 292.93 849.65 C 332.28 850.73 371.64 851.40 410.99 852.46 C 422.07 852.71 433.16 852.66 444.23 853.24 C 443.41 861.30 443.95 869.50 442.10 877.44 C 441.46 873.75 441.76 870.00 441.71 866.29 C 395.90 866.34 350.07 866.17 304.26 866.38 L 303.46 866.45 C 303.48 877.97 303.41 889.50 303.22 901.02 C 303.15 904.82 302.32 908.54 301.74 912.29 C 300.83 920.17 301.91 928.12 301.29 936.02 C 301.06 939.53 297.19 940.50 294.64 941.96 C 289.46 939.44 289.20 932.91 290.17 927.98 C 291.20 922.75 287.07 918.22 287.70 913.01 C 287.99 909.84 288.69 906.61 287.55 903.51 C 285.31 897.24 287.07 890.50 285.74 884.09 C 284.73 878.77 284.22 873.38 284.55 867.97 Z" />
<path fill="#8aa6fe" opacity="1.00" d=" M 493.74 854.63 C 500.48 854.12 507.24 854.64 513.98 854.73 C 532.24 855.08 550.51 855.88 568.77 855.69 C 569.19 855.72 570.03 855.78 570.45 855.80 C 568.80 857.39 566.54 858.70 565.97 861.09 C 564.93 865.71 566.64 870.39 566.27 875.05 C 566.23 879.14 564.10 882.88 564.20 886.98 C 564.19 891.04 564.02 895.11 564.49 899.15 C 558.53 899.43 552.51 899.77 546.81 901.72 C 546.49 889.71 546.56 877.69 546.44 865.68 C 532.34 865.61 518.24 865.88 504.15 865.52 C 502.70 865.12 501.88 866.52 501.04 867.39 C 498.64 863.12 496.25 858.84 493.74 854.63 Z" />
<path fill="#8aa6fe" opacity="1.00" d=" M 465.55 864.59 C 466.55 865.55 467.53 866.53 468.49 867.55 C 467.56 867.67 465.71 867.91 464.78 868.02 C 464.97 867.17 465.36 865.45 465.55 864.59 Z" />
<path fill="#8aa6fe" opacity="1.00" d=" M 454.82 909.34 C 455.11 908.88 455.69 907.95 455.98 907.49 C 458.07 907.81 456.05 911.06 454.82 909.34 Z" />
<path fill="#8aa6fe" opacity="1.00" d=" M 545.17 923.27 C 548.48 917.22 555.17 914.19 559.93 909.43 C 560.38 909.74 561.30 910.36 561.76 910.67 C 561.84 914.33 562.03 918.10 560.58 921.56 C 558.23 926.91 561.79 932.76 559.12 938.07 C 557.59 942.92 550.63 942.76 548.49 938.43 C 548.02 934.64 548.45 930.81 548.30 927.01 C 548.58 925.04 546.34 924.30 545.17 923.27 Z" />
</g>
<g id="#f4382dff">
<path fill="#f4382d" opacity="1.00" d=" M 180.85 636.17 C 184.39 629.13 190.96 622.90 199.15 622.33 C 204.22 622.27 209.32 622.02 214.37 622.50 C 220.70 624.18 224.91 629.70 227.67 635.33 C 234.98 647.32 240.47 660.31 247.77 672.30 C 251.87 679.58 255.16 687.32 259.77 694.31 C 265.37 704.16 269.72 714.70 275.92 724.20 C 279.45 730.71 282.60 737.43 286.08 743.97 C 293.45 755.06 297.88 767.79 305.15 778.95 C 307.59 783.18 309.43 787.75 312.24 791.79 C 312.50 793.57 313.68 794.95 315.02 796.07 C 318.22 804.83 326.50 811.58 335.99 811.89 C 368.92 813.48 401.87 814.83 434.81 816.44 C 438.67 816.28 439.62 820.49 440.72 823.34 C 442.05 827.54 444.73 831.41 444.75 835.95 C 444.83 841.71 444.57 847.48 444.23 853.24 C 433.16 852.66 422.07 852.71 410.99 852.46 C 371.64 851.40 332.28 850.73 292.93 849.65 C 289.49 849.58 286.05 849.27 282.67 848.59 C 273.68 845.85 265.25 841.00 259.12 833.77 C 252.94 825.83 250.08 815.97 246.08 806.87 C 237.27 786.34 228.68 765.71 219.61 745.29 C 216.95 740.63 215.74 735.36 213.29 730.62 C 210.36 725.24 209.00 719.17 205.97 713.83 C 202.41 705.39 199.54 696.65 195.33 688.49 C 193.18 681.63 189.34 675.50 187.14 668.68 C 184.39 662.01 179.91 655.56 180.25 648.05 C 180.46 644.10 179.73 640.00 180.85 636.17 Z" />
<path fill="#f4382d" opacity="1.00" d=" M 735.71 623.15 C 740.97 622.62 746.26 622.81 751.53 622.99 C 751.61 623.38 751.75 624.16 751.82 624.55 C 750.19 626.02 748.49 627.52 747.66 629.62 C 744.24 637.30 740.81 644.99 737.83 652.85 C 734.60 661.43 730.92 670.57 733.05 679.88 C 734.78 689.53 742.22 696.47 748.35 703.56 C 744.46 703.81 740.57 704.02 736.69 704.29 C 730.34 690.78 724.67 676.96 718.04 663.59 C 714.05 664.76 709.93 664.88 705.82 665.06 C 706.28 658.88 706.21 652.70 706.38 646.52 C 708.46 639.25 713.00 632.41 719.62 628.52 C 724.56 625.69 730.01 623.62 735.71 623.15 Z" />
<path fill="#f4382d" opacity="1.00" d=" M 777.57 624.48 C 803.71 623.97 829.86 624.46 856.00 624.21 C 858.90 624.04 861.86 623.31 864.75 624.07 C 872.96 626.00 879.71 631.73 884.76 638.28 C 889.66 645.71 891.14 654.92 890.05 663.66 C 889.54 667.23 889.47 670.84 889.33 674.45 C 887.37 680.68 888.75 687.26 888.11 693.66 C 887.59 703.19 885.64 712.60 885.68 722.17 C 885.66 725.38 885.26 728.57 884.66 731.73 C 883.78 736.66 884.64 741.70 884.13 746.67 C 883.55 750.83 883.48 755.04 883.12 759.23 C 881.66 764.26 882.63 769.51 882.12 774.65 C 881.58 778.40 881.40 782.19 881.17 785.98 C 876.56 784.71 871.74 784.78 867.00 784.87 C 860.09 785.02 853.17 784.86 846.26 785.08 C 847.81 778.62 846.97 771.84 844.20 765.84 C 840.25 756.35 834.99 747.48 829.65 738.73 C 835.68 738.91 842.07 738.03 846.67 733.75 C 848.96 731.98 851.14 729.34 850.56 726.25 C 849.57 720.71 847.10 715.57 845.35 710.25 C 832.43 675.49 807.33 646.14 777.57 624.48 Z" />
<path fill="#f4382d" opacity="1.00" d=" M 799.91 684.98 C 809.03 694.81 816.09 706.36 823.18 717.69 C 821.93 718.03 820.70 718.39 819.47 718.77 C 815.12 706.34 806.70 696.06 799.91 684.98 Z" />
<path fill="#f4382d" opacity="1.00" d=" M 742.92 718.02 C 745.63 716.15 747.35 720.44 744.17 721.07 C 743.65 720.08 743.24 719.06 742.92 718.02 Z" />
<path fill="#f4382d" opacity="1.00" d=" M 752.90 719.06 C 756.28 718.74 759.69 718.85 763.09 718.92 C 764.59 720.44 766.07 721.98 767.50 723.59 C 762.46 722.75 757.59 721.13 752.58 720.17 L 752.90 719.06 Z" />
<path fill="#f4382d" opacity="1.00" d=" M 724.05 773.65 C 725.64 773.76 727.22 773.91 728.82 774.07 C 729.20 776.36 729.38 778.73 730.18 780.95 C 731.79 782.78 734.19 783.65 736.33 784.74 C 732.83 784.94 729.34 785.27 725.84 785.31 C 725.39 781.40 724.71 777.52 724.05 773.65 Z" />
<path fill="#f4382d" opacity="1.00" d=" M 472.81 802.44 C 474.85 802.06 476.90 801.68 479.00 801.71 C 514.01 801.78 549.04 801.70 584.05 801.76 C 589.77 801.40 593.66 806.02 596.86 810.07 C 598.25 811.71 598.88 813.78 598.93 815.91 C 598.93 821.97 598.99 828.02 598.90 834.08 C 598.04 842.32 591.38 848.43 585.22 853.27 C 580.51 857.11 574.27 855.32 568.77 855.69 C 550.51 855.88 532.24 855.08 513.98 854.73 C 507.24 854.64 500.48 854.12 493.74 854.63 C 487.57 844.91 482.10 834.76 476.08 824.95 C 474.88 822.73 473.15 820.58 473.15 817.95 C 473.07 812.78 473.96 807.55 472.81 802.44 Z" />
</g>
</svg>
