<?xml version="1.0" encoding="UTF-8" ?>
<!DOCTYPE svg PUBLIC "-//W3C//DTD SVG 1.1//EN" "http://www.w3.org/Graphics/SVG/1.1/DTD/svg11.dtd">
<svg width="1300pt" height="827pt" viewBox="0 0 1300 827" version="1.1" xmlns="http://www.w3.org/2000/svg">
<g id="#ffffffff">
</g>
<g id="#ffa9a8ff">
<path fill="#ffa9a8" opacity="1.00" d=" M 719.89 9.22 C 732.03 6.28 744.66 7.06 757.05 7.52 C 762.16 7.52 767.11 8.95 772.14 9.73 C 781.08 11.15 790.24 12.01 798.74 15.32 C 803.35 16.82 807.60 19.17 811.98 21.19 C 818.73 24.38 825.49 27.89 830.87 33.18 C 838.47 40.59 845.91 48.28 851.82 57.14 C 857.70 66.76 861.34 77.51 864.77 88.19 C 867.16 96.92 868.49 106.00 867.93 115.07 C 867.61 128.36 868.45 141.70 867.07 154.96 C 863.41 168.45 858.24 182.13 848.41 192.40 C 842.23 198.87 835.79 205.09 829.30 211.24 C 823.39 217.02 816.21 221.26 808.99 225.16 C 798.79 230.97 787.98 235.58 777.25 240.27 C 772.88 242.05 768.65 244.32 764.00 245.28 C 751.79 247.31 739.69 249.86 727.58 252.41 C 722.39 253.14 717.11 252.41 711.92 253.20 C 706.82 253.77 702.09 256.24 696.89 256.21 C 682.28 256.33 667.65 256.22 653.04 256.26 C 648.72 256.35 644.76 254.46 640.65 253.50 C 634.47 252.22 628.14 253.12 621.91 252.86 C 616.06 252.72 610.88 249.17 604.98 249.50 C 600.54 249.67 596.22 248.61 592.00 247.33 C 587.18 245.78 581.99 246.18 577.18 244.60 C 566.03 241.49 554.60 239.35 543.73 235.34 C 536.84 233.16 528.22 231.87 524.99 224.40 C 539.91 220.99 555.95 218.35 568.01 208.15 C 574.17 203.45 577.19 196.11 580.40 189.32 C 583.96 178.97 580.76 167.74 583.38 157.25 C 585.06 153.00 586.98 148.72 587.00 144.05 C 587.11 113.31 595.75 82.11 614.17 57.22 C 619.39 51.48 624.56 45.67 629.80 39.92 C 632.84 36.42 637.11 34.39 640.97 31.94 C 657.45 21.90 676.00 15.22 695.16 12.83 C 703.34 11.19 711.67 10.63 719.89 9.22 M 709.52 53.44 C 690.17 56.47 672.38 68.91 663.42 86.41 C 661.67 89.73 660.62 93.40 658.55 96.55 C 655.84 100.13 651.85 102.56 649.44 106.40 C 638.06 122.16 643.85 146.77 660.37 156.60 C 662.74 158.05 665.43 158.81 667.93 159.99 C 671.39 161.70 672.74 165.88 676.30 167.48 C 675.32 165.31 674.11 163.27 672.91 161.23 C 676.70 161.03 680.50 160.96 684.31 161.01 C 682.86 163.31 681.39 165.60 680.07 167.98 C 684.31 164.56 688.43 160.95 693.13 158.17 C 701.01 153.59 709.94 151.41 718.71 149.25 C 716.79 153.02 713.99 156.30 712.46 160.27 C 712.94 160.02 713.90 159.53 714.39 159.28 C 717.36 155.66 719.36 151.38 722.00 147.52 C 724.63 152.24 726.43 157.54 726.04 163.00 C 726.50 171.02 723.74 179.31 718.11 185.10 C 708.26 195.26 690.45 196.64 679.52 187.47 C 675.01 183.37 676.77 176.74 678.18 171.64 C 682.39 172.61 686.66 173.54 691.01 173.44 C 698.84 173.51 706.14 169.04 711.06 163.21 C 705.73 164.05 702.35 169.52 696.99 170.68 C 690.72 173.43 683.88 171.35 678.15 168.33 C 675.21 174.15 672.84 181.91 677.17 187.67 C 682.48 193.20 690.46 195.65 698.03 195.23 C 705.72 195.37 712.99 192.03 719.11 187.58 C 718.43 190.71 717.39 193.76 717.08 196.95 C 717.65 200.23 719.98 202.82 720.97 205.94 C 721.19 208.64 720.66 211.33 720.56 214.02 C 720.36 219.49 722.71 225.18 727.26 228.37 C 724.22 221.76 719.90 214.28 723.28 206.92 C 730.96 209.50 740.14 212.21 747.56 207.47 C 750.58 205.93 753.01 202.15 751.17 198.86 C 749.85 194.63 744.78 193.39 740.86 194.02 C 733.79 195.09 728.26 200.02 722.89 204.34 C 720.01 201.52 718.12 197.25 719.36 193.23 C 720.93 188.63 723.85 184.56 727.42 181.30 C 736.96 172.60 749.69 169.03 760.50 162.38 C 763.33 159.63 766.65 157.61 770.22 155.95 C 772.89 158.23 775.42 160.66 778.02 163.03 C 775.46 166.15 772.29 169.04 771.02 172.98 C 770.21 176.13 772.14 178.88 774.11 181.11 C 777.98 181.95 781.50 179.35 783.01 175.93 C 784.41 171.75 781.93 167.64 781.84 163.45 C 787.20 165.30 790.21 171.14 796.04 172.05 C 800.50 173.34 805.36 168.73 803.87 164.21 C 802.62 161.96 800.39 160.35 797.89 159.79 C 793.44 158.11 788.86 160.40 784.31 159.96 C 782.57 155.54 782.75 150.46 785.57 146.52 C 788.20 141.82 793.84 140.81 798.27 138.54 C 795.24 136.76 791.93 135.56 788.77 134.05 C 792.89 128.32 798.27 122.44 798.00 114.90 C 797.18 108.31 793.18 101.74 786.90 99.12 C 783.81 97.49 780.24 98.01 776.91 98.17 C 778.94 90.76 779.57 82.30 775.66 75.37 C 770.94 66.11 761.35 60.66 751.93 57.21 C 738.35 52.66 723.69 51.40 709.52 53.44 Z" />
<path fill="#ffa9a8" opacity="1.00" d=" M 693.25 60.35 C 707.85 53.82 724.47 52.88 740.03 56.06 C 752.23 58.23 765.04 63.07 772.47 73.55 C 776.78 79.25 777.27 86.69 776.95 93.56 C 773.10 89.55 769.83 84.57 764.40 82.55 C 755.36 78.57 745.08 80.38 736.38 84.31 C 734.51 78.33 732.12 71.98 726.85 68.17 C 719.41 62.13 708.05 61.63 700.19 67.15 C 696.79 69.24 694.39 72.61 690.99 74.67 C 687.75 75.26 684.09 75.11 681.39 77.27 C 677.10 80.89 674.81 86.14 671.67 90.66 C 669.09 93.16 665.23 93.47 661.93 94.42 C 667.00 79.31 678.96 67.08 693.25 60.35 Z" />
<path fill="#ffa9a8" opacity="1.00" d=" M 693.13 76.17 C 697.55 70.19 704.31 65.52 711.92 65.08 C 722.32 64.60 731.94 72.86 733.93 82.92 C 734.94 88.30 728.98 91.74 728.93 96.96 C 728.72 101.17 731.03 105.38 729.52 109.54 C 727.64 114.40 725.48 119.22 722.46 123.49 C 718.94 111.27 710.47 100.82 699.48 94.49 C 699.27 89.06 698.11 83.46 694.80 79.01 C 694.29 78.06 693.23 77.28 693.13 76.17 Z" />
<path fill="#ffa9a8" opacity="1.00" d=" M 674.28 90.38 C 677.41 83.89 682.00 76.54 689.99 75.99 C 689.40 81.02 688.37 86.00 687.09 90.90 C 682.82 90.79 678.53 90.89 674.28 90.38 Z" />
<path fill="#ffa9a8" opacity="1.00" d=" M 689.87 91.66 C 689.73 87.35 690.33 83.05 691.86 79.01 C 696.22 82.47 697.51 88.24 697.03 93.56 C 694.66 92.86 692.28 92.20 689.87 91.66 Z" />
<path fill="#ffa9a8" opacity="1.00" d=" M 747.63 82.65 C 757.26 80.80 768.89 84.26 773.71 93.35 C 775.13 95.70 775.48 98.71 774.33 101.24 C 769.69 112.60 761.21 122.09 751.16 128.98 C 743.89 122.71 737.34 115.32 733.24 106.57 C 734.14 100.15 735.99 93.83 736.36 87.31 C 739.25 84.38 743.73 83.59 747.63 82.65 Z" />
<path fill="#ffa9a8" opacity="1.00" d=" M 732.21 92.08 C 735.20 93.34 734.67 99.35 731.08 99.10 C 730.87 96.68 730.94 94.22 732.21 92.08 Z" />
<path fill="#ffa9a8" opacity="1.00" d=" M 673.18 93.00 C 678.10 92.99 683.01 93.01 687.93 92.99 C 689.17 97.42 690.26 101.90 691.62 106.30 C 686.04 111.85 679.17 117.47 670.83 117.18 C 668.94 117.03 666.02 117.60 665.61 115.05 C 666.92 107.35 670.14 100.14 673.18 93.00 Z" />
<path fill="#ffa9a8" opacity="1.00" d=" M 660.21 99.10 C 662.68 96.14 666.73 95.27 670.16 93.86 C 667.93 100.77 665.91 107.91 662.52 114.32 C 659.76 109.73 659.55 104.28 660.21 99.10 Z" />
<path fill="#ffa9a8" opacity="1.00" d=" M 689.87 93.51 C 692.07 94.03 694.26 94.60 696.45 95.22 C 695.64 97.99 694.73 100.94 692.31 102.74 C 691.25 99.73 690.62 96.61 689.87 93.51 Z" />
<path fill="#ffa9a8" opacity="1.00" d=" M 698.41 96.52 C 709.80 101.87 717.66 113.09 721.01 125.01 C 720.16 127.33 719.22 129.62 718.15 131.84 C 707.10 126.89 699.50 116.96 693.58 106.75 C 694.85 103.18 696.96 100.00 698.41 96.52 Z" />
<path fill="#ffa9a8" opacity="1.00" d=" M 646.29 117.98 C 648.05 110.85 652.19 104.31 657.93 99.72 C 657.51 105.50 658.99 111.19 661.68 116.28 C 662.84 122.75 660.77 129.67 663.08 136.02 C 664.13 139.87 666.41 143.19 668.33 146.64 C 670.59 150.28 669.61 154.77 669.81 158.82 C 660.64 156.35 652.85 149.58 648.82 141.03 C 645.40 133.92 644.76 125.65 646.29 117.98 Z" />
<path fill="#ffa9a8" opacity="1.00" d=" M 777.28 101.12 C 780.43 99.26 784.54 99.34 787.60 101.38 C 793.96 104.98 797.34 113.09 795.24 120.13 C 793.96 125.36 790.07 129.33 786.55 133.19 C 781.06 129.46 774.82 124.22 775.30 116.89 C 775.98 111.64 775.70 106.23 777.28 101.12 Z" />
<path fill="#ffa9a8" opacity="1.00" d=" M 675.91 118.77 C 682.54 117.16 687.60 112.32 692.69 108.09 C 695.86 114.04 699.54 119.82 704.45 124.50 C 708.34 128.17 713.40 130.57 716.46 135.10 C 717.79 134.51 719.14 133.93 720.50 133.36 C 720.96 135.77 721.46 138.18 721.98 140.58 C 719.17 139.83 717.24 137.64 715.79 135.26 C 711.71 133.19 707.66 131.01 703.31 129.57 C 694.66 127.21 684.44 128.24 677.81 134.79 C 674.08 137.60 672.69 142.35 669.23 145.35 C 664.00 137.46 663.13 127.64 664.16 118.45 C 668.05 118.87 672.02 119.44 675.91 118.77 Z" />
<path fill="#ffa9a8" opacity="1.00" d=" M 730.51 112.52 C 731.11 111.61 731.17 109.95 732.53 109.82 C 737.17 117.22 742.95 123.79 748.99 130.07 C 740.99 134.07 731.83 135.09 723.05 133.81 C 721.78 125.79 727.36 119.33 730.51 112.52 Z" />
<path fill="#ffa9a8" opacity="1.00" d=" M 752.59 130.37 C 759.57 125.09 765.54 118.67 771.38 112.20 C 773.78 120.39 775.13 128.97 775.01 137.52 C 767.01 137.81 758.82 135.49 752.59 130.37 Z" />
<path fill="#ffa9a8" opacity="1.00" d=" M 777.09 137.17 C 776.70 133.86 776.36 130.53 776.42 127.20 C 779.12 129.54 781.72 132.01 784.13 134.66 C 781.78 135.51 779.44 136.35 777.09 137.17 Z" />
<path fill="#ffa9a8" opacity="1.00" d=" M 687.96 131.23 C 696.87 128.43 706.25 131.86 713.88 136.50 C 706.82 145.23 698.47 153.76 687.61 157.48 C 682.50 159.39 676.99 159.01 671.66 158.98 C 671.26 156.08 671.11 153.15 671.21 150.22 C 672.94 150.48 674.68 150.74 676.42 151.02 C 674.93 149.40 673.42 147.80 671.93 146.18 C 675.22 139.53 680.29 132.84 687.96 131.23 Z" />
<path fill="#ffa9a8" opacity="1.00" d=" M 723.04 136.12 C 732.28 136.75 741.72 135.65 750.10 131.50 C 757.79 136.09 766.30 139.49 775.33 140.17 C 774.28 144.74 772.44 149.17 769.86 153.09 C 761.49 149.62 752.67 146.31 743.45 145.75 C 736.61 144.71 729.72 145.55 722.88 146.07 C 722.93 142.75 722.99 139.44 723.04 136.12 Z" />
<path fill="#ffa9a8" opacity="1.00" d=" M 777.38 139.40 C 780.37 137.74 783.52 136.36 786.73 135.16 C 788.76 136.03 790.79 136.91 792.80 137.85 C 788.65 141.24 783.25 144.29 782.10 149.98 C 781.78 154.32 782.09 158.67 781.94 163.02 C 778.07 160.82 774.91 157.66 771.49 154.87 C 773.61 149.78 776.23 144.84 777.38 139.40 Z" />
<path fill="#ffa9a8" opacity="1.00" d=" M 715.39 137.95 C 717.81 140.35 720.02 143.19 720.56 146.65 C 714.53 148.09 708.68 150.18 702.68 151.74 C 706.63 146.88 711.20 142.59 715.39 137.95 Z" />
<path fill="#ffa9a8" opacity="1.00" d=" M 724.98 148.16 C 736.36 146.29 748.19 147.22 759.10 150.99 C 761.79 151.92 764.71 152.64 766.80 154.72 C 766.08 156.35 765.56 158.30 763.74 159.01 C 750.27 165.90 736.17 171.83 724.07 181.09 C 728.65 170.78 729.40 158.65 724.98 148.16 Z" />
<path fill="#ffa9a8" opacity="1.00" d=" M 785.58 161.83 C 791.05 160.54 796.87 161.06 802.07 163.19 C 802.23 165.71 801.80 168.19 800.02 170.09 C 794.00 170.83 788.08 167.29 785.58 161.83 Z" />
<path fill="#ffa9a8" opacity="1.00" d=" M 775.10 180.42 C 770.73 175.45 774.16 168.02 779.04 164.91 C 780.70 167.60 782.37 170.70 781.92 173.98 C 780.89 177.15 778.00 179.11 775.10 180.42 Z" />
<path fill="#ffa9a8" opacity="1.00" d=" M 399.03 204.08 C 401.41 200.20 405.81 197.73 410.05 196.27 C 418.25 194.40 426.28 198.72 434.53 197.97 C 437.42 212.16 432.65 226.67 436.00 240.82 L 435.02 241.14 C 429.09 242.94 423.20 244.89 417.67 247.70 C 414.05 249.21 409.57 251.79 405.85 249.13 C 400.49 245.29 400.46 238.01 400.09 232.07 C 400.01 222.74 397.19 213.35 399.03 204.08 Z" />
<path fill="#ffa9a8" opacity="1.00" d=" M 724.83 205.28 C 730.23 200.13 737.11 195.00 745.04 196.08 C 748.36 196.29 750.71 199.57 750.07 202.81 C 747.95 204.86 745.71 207.03 742.74 207.72 C 736.68 208.69 730.42 207.82 724.83 205.28 Z" />
<path fill="#ffa9a8" opacity="1.00" d=" M 966.10 211.11 C 968.12 204.54 974.08 199.37 980.86 198.30 C 986.81 197.30 993.01 199.63 997.28 203.78 C 1002.22 208.29 1004.80 214.77 1009.88 219.14 C 1010.26 212.89 1009.51 206.42 1011.52 200.38 C 1014.57 196.45 1022.23 197.26 1023.99 202.14 C 1025.40 207.64 1023.50 213.35 1024.55 218.89 C 1024.81 223.29 1027.40 227.17 1031.18 229.36 C 1030.97 233.49 1030.83 237.75 1032.44 241.65 C 1035.16 248.82 1039.83 255.08 1042.49 262.29 C 1043.31 264.53 1044.17 266.77 1045.05 269.00 C 1035.78 274.68 1024.56 275.80 1013.92 275.04 C 1011.35 274.88 1009.67 272.68 1008.13 270.89 C 1007.90 270.27 1007.42 269.04 1007.18 268.42 C 1004.37 268.31 1001.59 268.17 998.80 268.05 C 1001.63 268.05 1004.46 268.04 1007.31 268.06 C 1006.90 266.19 1006.48 264.34 1006.05 262.49 C 1002.41 263.98 998.90 265.84 995.07 266.78 C 990.35 267.93 985.83 265.35 982.16 262.68 C 971.82 251.30 966.55 236.30 964.35 221.30 C 964.67 217.87 965.06 214.41 966.10 211.11 Z" />
<path fill="#ffa9a8" opacity="1.00" d=" M 367.08 221.32 C 372.05 220.21 378.19 217.34 382.63 221.30 C 387.29 227.51 386.13 235.77 387.82 242.95 C 390.41 254.32 391.42 266.07 395.29 277.13 C 395.91 279.92 393.72 282.40 393.03 285.01 C 390.74 290.87 390.49 297.30 391.03 303.50 C 379.51 306.59 366.21 308.05 355.57 301.48 C 349.88 298.71 345.28 292.99 345.97 286.36 C 349.94 279.37 354.36 272.58 357.20 265.02 C 358.86 260.66 359.40 255.87 361.83 251.81 C 363.71 248.21 366.74 245.13 367.50 241.01 C 369.22 234.56 369.23 227.67 367.08 221.32 Z" />
<path fill="#ffa9a8" opacity="1.00" d=" M 498.83 269.82 C 504.57 263.22 510.61 256.68 518.13 252.08 C 517.76 256.93 516.01 261.55 515.37 266.37 C 524.09 268.57 532.99 269.98 541.93 270.89 C 547.95 271.45 551.36 277.17 554.24 281.81 C 546.15 283.98 538.05 286.11 529.93 288.14 C 521.13 290.27 512.04 289.25 503.09 289.50 C 501.50 289.18 501.40 290.95 501.27 292.04 C 500.94 295.00 500.93 298.00 500.32 300.94 C 500.25 300.47 500.09 299.53 500.02 299.07 C 495.58 297.92 491.14 296.67 487.02 294.61 C 491.16 286.45 492.76 276.94 498.83 269.82 Z" />
<path fill="#ffa9a8" opacity="1.00" d=" M 1088.16 371.77 C 1090.04 373.42 1091.79 375.23 1093.24 377.29 L 1092.81 379.11 C 1091.04 376.80 1089.39 374.40 1088.16 371.77 Z" />
<path fill="#ffa9a8" opacity="1.00" d=" M 911.17 393.32 C 913.87 390.61 916.71 388.03 919.89 385.88 C 919.83 390.26 919.55 394.68 920.14 399.05 C 920.99 403.01 923.53 406.29 925.07 409.99 C 927.18 415.28 928.17 421.03 927.58 426.72 C 923.09 424.32 919.51 420.55 916.78 416.30 C 914.43 412.60 911.46 409.12 910.37 404.77 C 909.54 400.96 910.21 397.04 911.17 393.32 Z" />
<path fill="#ffa9a8" opacity="1.00" d=" M 1001.63 401.70 C 1004.33 404.63 1007.06 407.54 1009.88 410.37 C 1007.93 416.59 1006.09 422.83 1004.04 429.02 C 1005.70 429.38 1007.38 429.75 1009.07 430.08 C 1010.54 424.92 1011.86 419.72 1013.22 414.53 C 1017.98 418.83 1022.18 423.70 1026.74 428.22 C 1021.24 428.28 1015.43 427.28 1010.18 429.16 C 1010.26 429.46 1010.41 430.06 1010.49 430.36 C 1018.24 431.99 1025.81 434.44 1033.67 435.60 C 1050.05 439.58 1067.24 439.48 1083.94 437.75 C 1096.45 435.64 1108.83 432.30 1120.65 427.72 C 1122.76 427.42 1124.89 426.97 1126.66 425.67 C 1129.86 426.07 1132.82 424.43 1135.87 423.69 C 1145.47 421.02 1155.00 417.98 1164.02 413.71 C 1166.18 419.06 1168.01 424.54 1169.94 429.98 C 1171.35 434.46 1172.90 439.10 1172.62 443.86 C 1171.68 449.27 1166.82 452.68 1162.64 455.64 C 1155.42 460.73 1146.22 460.98 1137.73 461.45 C 1122.16 462.15 1106.56 461.98 1090.97 462.00 C 1063.47 462.02 1035.96 461.74 1008.47 460.97 C 1004.17 451.22 999.44 441.67 995.13 431.93 C 996.18 431.20 997.23 430.47 998.32 429.76 C 998.07 427.11 996.24 425.75 993.63 425.73 C 993.64 426.36 993.65 427.61 993.66 428.24 C 989.94 419.91 986.08 411.65 982.34 403.33 C 988.76 403.18 995.41 403.59 1001.63 401.70 Z" />
<path fill="#ffa9a8" opacity="1.00" d=" M 495.58 431.57 C 497.24 430.22 499.46 430.52 501.46 430.46 C 500.68 434.68 499.42 438.80 498.65 443.02 C 502.36 442.45 506.32 442.07 509.33 439.57 C 512.83 439.63 515.97 437.87 519.21 436.79 C 517.83 442.25 516.24 447.98 511.99 451.97 C 501.29 463.54 484.79 465.63 470.22 468.98 C 469.25 464.70 467.85 460.51 467.09 456.18 C 467.10 455.72 467.11 454.81 467.11 454.35 C 470.70 453.01 474.63 452.17 477.72 449.83 C 483.51 443.60 488.65 436.62 495.58 431.57 Z" />
<path fill="#ffa9a8" opacity="1.00" d=" M 898.98 462.66 C 904.31 461.22 909.45 459.05 914.99 458.44 C 930.98 464.93 947.03 473.27 958.04 486.97 C 965.14 496.64 967.97 508.62 969.89 520.26 C 967.18 519.99 964.48 519.75 961.78 519.54 C 959.05 519.32 956.31 519.14 953.59 518.98 C 955.84 525.68 958.77 532.14 960.92 538.87 C 961.51 550.27 961.77 561.76 960.17 573.09 C 958.87 580.76 957.95 588.48 956.58 596.14 C 953.56 604.69 951.34 613.51 948.23 622.05 C 943.27 636.15 939.41 650.67 933.26 664.32 C 931.16 669.88 929.24 675.50 927.16 681.07 C 925.14 686.49 922.00 691.41 919.72 696.72 C 918.13 700.86 917.84 706.31 921.40 709.55 C 924.12 711.47 927.27 712.69 930.19 714.28 L 929.94 715.24 C 925.41 732.27 916.97 747.90 908.15 763.04 C 905.76 767.03 903.14 770.89 900.13 774.44 C 899.12 774.01 898.11 773.58 897.12 773.17 C 897.53 763.77 897.71 754.35 897.94 744.95 C 904.02 732.50 901.96 718.33 901.98 704.98 C 902.13 699.14 899.43 693.77 898.99 688.02 C 897.48 672.71 897.90 657.30 897.52 641.94 C 893.74 647.12 892.13 653.44 889.14 659.05 C 884.29 668.26 879.17 677.32 874.61 686.68 C 872.95 689.99 871.69 693.81 872.59 697.53 C 874.78 701.36 879.04 703.07 883.14 704.01 L 883.03 705.07 C 878.70 720.43 869.92 734.06 861.28 747.32 C 856.83 753.40 853.53 761.06 846.18 764.20 C 845.93 759.83 845.62 755.36 846.90 751.11 C 849.82 740.46 848.21 729.29 850.42 718.53 C 851.79 709.46 852.33 700.29 853.93 691.25 C 856.18 685.47 856.19 679.20 855.98 673.09 C 855.53 664.89 858.84 657.12 859.12 648.98 C 859.31 642.94 860.25 636.97 861.30 631.04 C 863.03 621.30 862.08 611.25 864.50 601.61 C 866.44 593.59 865.54 585.29 866.77 577.18 C 867.78 570.16 869.06 563.13 868.72 556.01 C 868.33 550.47 870.99 545.42 871.85 540.08 C 872.40 533.07 871.31 525.77 873.84 519.03 C 875.19 515.19 875.78 511.11 875.41 507.04 C 874.67 499.77 879.24 493.25 878.76 485.97 C 878.26 478.67 882.02 471.91 886.87 466.74 C 890.06 463.58 894.90 463.79 898.98 462.66 Z" />
<path fill="#ffa9a8" opacity="1.00" d=" M 421.80 588.07 C 427.90 588.04 433.99 588.39 440.07 588.92 C 433.97 588.90 427.87 588.69 421.80 588.07 Z" />
<path fill="#ffa9a8" opacity="1.00" d=" M 443.78 589.08 C 449.90 589.04 456.01 589.39 462.11 589.92 C 455.99 589.90 449.87 589.69 443.78 589.08 Z" />
<path fill="#ffa9a8" opacity="1.00" d=" M 753.21 589.96 C 754.48 591.76 755.57 593.74 755.42 596.04 C 755.49 603.04 755.74 610.07 755.16 617.06 C 755.15 618.37 753.87 619.11 753.19 620.09 C 753.10 610.05 753.04 600.00 753.21 589.96 Z" />
<path fill="#ffa9a8" opacity="1.00" d=" M 1173.79 596.84 C 1180.53 595.74 1187.39 595.79 1194.14 596.87 C 1187.36 596.57 1180.57 596.50 1173.79 596.84 Z" />
<path fill="#ffa9a8" opacity="1.00" d=" M 608.27 752.79 C 614.23 749.55 620.04 746.05 625.86 742.55 C 628.16 748.71 631.66 754.98 638.05 757.63 C 633.23 764.21 626.66 769.44 618.98 772.27 C 616.92 765.04 612.81 758.69 608.27 752.79 Z" />
<path fill="#ffa9a8" opacity="1.00" d=" M 484.50 746.30 C 484.86 746.40 485.59 746.59 485.95 746.69 C 493.60 749.12 501.56 750.50 509.61 750.09 C 509.32 752.65 509.27 755.23 509.41 757.81 C 503.60 764.48 493.87 763.71 486.09 761.79 C 485.56 761.61 484.51 761.27 483.98 761.09 C 483.91 756.15 484.44 751.23 484.50 746.30 Z" />
</g>
<g id="#310aa2ff">
<path fill="#310aa2" opacity="1.00" d=" M 709.52 53.44 C 723.69 51.40 738.35 52.66 751.93 57.21 C 761.35 60.66 770.94 66.11 775.66 75.37 C 779.57 82.30 778.94 90.76 776.91 98.17 C 780.24 98.01 783.81 97.49 786.90 99.12 C 793.18 101.74 797.18 108.31 798.00 114.90 C 798.27 122.44 792.89 128.32 788.77 134.05 C 791.93 135.56 795.24 136.76 798.27 138.54 C 793.84 140.81 788.20 141.82 785.57 146.52 C 782.75 150.46 782.57 155.54 784.31 159.96 C 788.86 160.40 793.44 158.11 797.89 159.79 C 800.39 160.35 802.62 161.96 803.87 164.21 C 805.36 168.73 800.50 173.34 796.04 172.05 C 790.21 171.14 787.20 165.30 781.84 163.45 C 781.93 167.64 784.41 171.75 783.01 175.93 C 781.50 179.35 777.98 181.95 774.11 181.11 C 772.14 178.88 770.21 176.13 771.02 172.98 C 772.29 169.04 775.46 166.15 778.02 163.03 C 775.42 160.66 772.89 158.23 770.22 155.95 C 766.65 157.61 763.33 159.63 760.50 162.38 C 749.69 169.03 736.96 172.60 727.42 181.30 C 723.85 184.56 720.93 188.63 719.36 193.23 C 718.12 197.25 720.01 201.52 722.89 204.34 C 728.26 200.02 733.79 195.09 740.86 194.02 C 744.78 193.39 749.85 194.63 751.17 198.86 C 753.01 202.15 750.58 205.93 747.56 207.47 C 740.14 212.21 730.96 209.50 723.28 206.92 C 719.90 214.28 724.22 221.76 727.26 228.37 C 722.71 225.18 720.36 219.49 720.56 214.02 C 720.66 211.33 721.19 208.64 720.97 205.94 C 719.98 202.82 717.65 200.23 717.08 196.95 C 717.39 193.76 718.43 190.71 719.11 187.58 C 712.99 192.03 705.72 195.37 698.03 195.23 C 690.46 195.65 682.48 193.20 677.17 187.67 C 672.84 181.91 675.21 174.15 678.15 168.33 C 683.88 171.35 690.72 173.43 696.99 170.68 C 702.35 169.52 705.73 164.05 711.06 163.21 C 706.14 169.04 698.84 173.51 691.01 173.44 C 686.66 173.54 682.39 172.61 678.18 171.64 C 676.77 176.74 675.01 183.37 679.52 187.47 C 690.45 196.64 708.26 195.26 718.11 185.10 C 723.74 179.31 726.50 171.02 726.04 163.00 C 726.43 157.54 724.63 152.24 722.00 147.52 C 719.36 151.38 717.36 155.66 714.39 159.28 C 713.90 159.53 712.94 160.02 712.46 160.27 C 713.99 156.30 716.79 153.02 718.71 149.25 C 709.94 151.41 701.01 153.59 693.13 158.17 C 688.43 160.95 684.31 164.56 680.07 167.98 C 681.39 165.60 682.86 163.31 684.31 161.01 C 680.50 160.96 676.70 161.03 672.91 161.23 C 674.11 163.27 675.32 165.31 676.30 167.48 C 672.74 165.88 671.39 161.70 667.93 159.99 C 665.43 158.81 662.74 158.05 660.37 156.60 C 643.85 146.77 638.06 122.16 649.44 106.40 C 651.85 102.56 655.84 100.13 658.55 96.55 C 660.62 93.40 661.67 89.73 663.42 86.41 C 672.38 68.91 690.17 56.47 709.52 53.44 M 693.25 60.35 C 678.96 67.08 667.00 79.31 661.93 94.42 C 665.23 93.47 669.09 93.16 671.67 90.66 C 674.81 86.14 677.10 80.89 681.39 77.27 C 684.09 75.11 687.75 75.26 690.99 74.67 C 694.39 72.61 696.79 69.24 700.19 67.15 C 708.05 61.63 719.41 62.13 726.85 68.17 C 732.12 71.98 734.51 78.33 736.38 84.31 C 745.08 80.38 755.36 78.57 764.40 82.55 C 769.83 84.57 773.10 89.55 776.95 93.56 C 777.27 86.69 776.78 79.25 772.47 73.55 C 765.04 63.07 752.23 58.23 740.03 56.06 C 724.47 52.88 707.85 53.82 693.25 60.35 M 693.13 76.17 C 693.23 77.28 694.29 78.06 694.80 79.01 C 698.11 83.46 699.27 89.06 699.48 94.49 C 710.47 100.82 718.94 111.27 722.46 123.49 C 725.48 119.22 727.64 114.40 729.52 109.54 C 731.03 105.38 728.72 101.17 728.93 96.96 C 728.98 91.74 734.94 88.30 733.93 82.92 C 731.94 72.86 722.32 64.60 711.92 65.08 C 704.31 65.52 697.55 70.19 693.13 76.17 M 674.28 90.38 C 678.53 90.89 682.82 90.79 687.09 90.90 C 688.37 86.00 689.40 81.02 689.99 75.99 C 682.00 76.54 677.41 83.89 674.28 90.38 M 689.87 91.66 C 692.28 92.20 694.66 92.86 697.03 93.56 C 697.51 88.24 696.22 82.47 691.86 79.01 C 690.33 83.05 689.73 87.35 689.87 91.66 M 747.63 82.65 C 743.73 83.59 739.25 84.38 736.36 87.31 C 735.99 93.83 734.14 100.15 733.24 106.57 C 737.34 115.32 743.89 122.71 751.16 128.98 C 761.21 122.09 769.69 112.60 774.33 101.24 C 775.48 98.71 775.13 95.70 773.71 93.35 C 768.89 84.26 757.26 80.80 747.63 82.65 M 732.21 92.08 C 730.94 94.22 730.87 96.68 731.08 99.10 C 734.67 99.35 735.20 93.34 732.21 92.08 M 673.18 93.00 C 670.14 100.14 666.92 107.35 665.61 115.05 C 666.02 117.60 668.94 117.03 670.83 117.18 C 679.17 117.47 686.04 111.85 691.62 106.30 C 690.26 101.90 689.17 97.42 687.93 92.99 C 683.01 93.01 678.10 92.99 673.18 93.00 M 660.21 99.10 C 659.55 104.28 659.76 109.73 662.52 114.32 C 665.91 107.91 667.93 100.77 670.16 93.86 C 666.73 95.27 662.68 96.14 660.21 99.10 M 689.87 93.51 C 690.62 96.61 691.25 99.73 692.31 102.74 C 694.73 100.94 695.64 97.99 696.45 95.22 C 694.26 94.60 692.07 94.03 689.87 93.51 M 698.41 96.52 C 696.96 100.00 694.85 103.18 693.58 106.75 C 699.50 116.96 707.10 126.89 718.15 131.84 C 719.22 129.62 720.16 127.33 721.01 125.01 C 717.66 113.09 709.80 101.87 698.41 96.52 M 646.29 117.98 C 644.76 125.65 645.40 133.92 648.82 141.03 C 652.85 149.58 660.64 156.35 669.81 158.82 C 669.61 154.77 670.59 150.28 668.33 146.64 C 666.41 143.19 664.13 139.87 663.08 136.02 C 660.77 129.67 662.84 122.75 661.68 116.28 C 658.99 111.19 657.51 105.50 657.93 99.72 C 652.19 104.31 648.05 110.85 646.29 117.98 M 777.28 101.12 C 775.70 106.23 775.98 111.64 775.30 116.89 C 774.82 124.22 781.06 129.46 786.55 133.19 C 790.07 129.33 793.96 125.36 795.24 120.13 C 797.34 113.09 793.96 104.98 787.60 101.38 C 784.54 99.34 780.43 99.26 777.28 101.12 M 675.91 118.77 C 672.02 119.44 668.05 118.87 664.16 118.45 C 663.13 127.64 664.00 137.46 669.23 145.35 C 672.69 142.35 674.08 137.60 677.81 134.79 C 684.44 128.24 694.66 127.21 703.31 129.57 C 707.66 131.01 711.71 133.19 715.79 135.26 C 717.24 137.64 719.17 139.83 721.98 140.58 C 721.46 138.18 720.96 135.77 720.50 133.36 C 719.14 133.93 717.79 134.51 716.46 135.10 C 713.40 130.57 708.34 128.17 704.45 124.50 C 699.54 119.82 695.86 114.04 692.69 108.09 C 687.60 112.32 682.54 117.16 675.91 118.77 M 730.51 112.52 C 727.36 119.33 721.78 125.79 723.05 133.81 C 731.83 135.09 740.99 134.07 748.99 130.07 C 742.95 123.79 737.17 117.22 732.53 109.82 C 731.17 109.95 731.11 111.61 730.51 112.52 M 752.59 130.37 C 758.82 135.49 767.01 137.81 775.01 137.52 C 775.13 128.97 773.78 120.39 771.38 112.20 C 765.54 118.67 759.57 125.09 752.59 130.37 M 777.09 137.17 C 779.44 136.35 781.78 135.51 784.13 134.66 C 781.72 132.01 779.12 129.54 776.42 127.20 C 776.36 130.53 776.70 133.86 777.09 137.17 M 687.96 131.23 C 680.29 132.84 675.22 139.53 671.93 146.18 C 673.42 147.80 674.93 149.40 676.42 151.02 C 674.68 150.74 672.94 150.48 671.21 150.22 C 671.11 153.15 671.26 156.08 671.66 158.98 C 676.99 159.01 682.50 159.39 687.61 157.48 C 698.47 153.76 706.82 145.23 713.88 136.50 C 706.25 131.86 696.87 128.43 687.96 131.23 M 723.04 136.12 C 722.99 139.44 722.93 142.75 722.88 146.07 C 729.72 145.55 736.61 144.71 743.45 145.75 C 752.67 146.31 761.49 149.62 769.86 153.09 C 772.44 149.17 774.28 144.74 775.33 140.17 C 766.30 139.49 757.79 136.09 750.10 131.50 C 741.72 135.65 732.28 136.75 723.04 136.12 M 777.38 139.40 C 776.23 144.84 773.61 149.78 771.49 154.87 C 774.91 157.66 778.07 160.82 781.94 163.02 C 782.09 158.67 781.78 154.32 782.10 149.98 C 783.25 144.29 788.65 141.24 792.80 137.85 C 790.79 136.91 788.76 136.03 786.73 135.16 C 783.52 136.36 780.37 137.74 777.38 139.40 M 715.39 137.95 C 711.20 142.59 706.63 146.88 702.68 151.74 C 708.68 150.18 714.53 148.09 720.56 146.65 C 720.02 143.19 717.81 140.35 715.39 137.95 M 724.98 148.16 C 729.40 158.65 728.65 170.78 724.07 181.09 C 736.17 171.83 750.27 165.90 763.74 159.01 C 765.56 158.30 766.08 156.35 766.80 154.72 C 764.71 152.64 761.79 151.92 759.10 150.99 C 748.19 147.22 736.36 146.29 724.98 148.16 M 785.58 161.83 C 788.08 167.29 794.00 170.83 800.02 170.09 C 801.80 168.19 802.23 165.71 802.07 163.19 C 796.87 161.06 791.05 160.54 785.58 161.83 M 775.10 180.42 C 778.00 179.11 780.89 177.15 781.92 173.98 C 782.37 170.70 780.70 167.60 779.04 164.91 C 774.16 168.02 770.73 175.45 775.10 180.42 M 724.83 205.28 C 730.42 207.82 736.68 208.69 742.74 207.72 C 745.71 207.03 747.95 204.86 750.07 202.81 C 750.71 199.57 748.36 196.29 745.04 196.08 C 737.11 195.00 730.23 200.13 724.83 205.28 Z" />
<path fill="#310aa2" opacity="1.00" d=" M 1004.70 143.71 C 1008.53 140.70 1012.75 137.20 1017.89 137.29 C 1025.06 136.86 1032.33 136.71 1039.44 137.76 C 1046.35 141.21 1051.40 147.81 1053.82 155.07 C 1054.67 158.65 1054.43 162.38 1054.51 166.03 C 1054.39 172.02 1054.79 178.03 1054.12 183.99 C 1051.38 190.55 1043.13 193.57 1042.06 201.09 C 1039.56 208.68 1043.67 217.70 1038.45 224.47 C 1036.53 226.54 1034.33 229.88 1031.18 229.36 C 1027.40 227.17 1024.81 223.29 1024.55 218.89 C 1023.50 213.35 1025.40 207.64 1023.99 202.14 C 1022.23 197.26 1014.57 196.45 1011.52 200.38 C 1009.51 206.42 1010.26 212.89 1009.88 219.14 C 1004.80 214.77 1002.22 208.29 997.28 203.78 C 993.01 199.63 986.81 197.30 980.86 198.30 C 974.08 199.37 968.12 204.54 966.10 211.11 C 965.06 214.41 964.67 217.87 964.35 221.30 C 959.45 215.88 954.12 210.65 950.66 204.14 C 948.49 200.46 949.09 196.03 948.75 191.96 C 948.46 185.95 948.97 178.99 953.84 174.77 C 966.12 164.71 980.86 156.28 997.13 155.87 C 998.58 151.29 1000.80 146.76 1004.70 143.71 M 950.76 190.16 C 950.45 197.63 953.16 205.82 959.24 210.48 C 957.39 205.28 953.99 200.65 953.07 195.13 C 952.77 192.09 952.74 189.01 953.14 185.99 C 954.28 181.61 957.64 178.34 959.50 174.29 C 953.67 177.08 950.76 183.96 950.76 190.16 Z" />
<path fill="#310aa2" opacity="1.00" d=" M 416.62 161.37 C 423.33 160.78 430.21 159.73 436.87 161.27 C 441.24 163.50 444.72 167.30 447.25 171.46 C 448.35 177.89 447.89 184.45 447.37 190.92 C 447.23 193.05 445.61 194.87 443.59 195.45 C 440.62 196.45 437.60 197.35 434.53 197.97 C 426.28 198.72 418.25 194.40 410.05 196.27 C 405.81 197.73 401.41 200.20 399.03 204.08 C 397.19 213.35 400.01 222.74 400.09 232.07 C 400.46 238.01 400.49 245.29 405.85 249.13 C 409.57 251.79 414.05 249.21 417.67 247.70 C 423.20 244.89 429.09 242.94 435.02 241.14 C 439.19 248.78 437.40 257.64 438.62 265.91 C 439.25 271.05 438.78 277.07 434.86 280.89 C 431.09 284.04 425.68 284.26 421.15 282.89 C 412.69 280.29 403.85 279.34 395.29 277.13 C 391.42 266.07 390.41 254.32 387.82 242.95 C 386.13 235.77 387.29 227.51 382.63 221.30 C 378.19 217.34 372.05 220.21 367.08 221.32 C 364.90 214.90 363.81 206.54 369.32 201.44 L 369.62 200.73 C 370.41 199.77 371.17 198.78 371.90 197.77 C 373.45 194.06 372.00 189.93 372.25 186.04 C 372.07 181.98 371.73 176.22 376.36 174.50 C 385.73 172.57 395.37 175.24 404.78 173.67 C 410.49 171.85 414.12 166.51 416.62 161.37 Z" />
<path fill="#310aa2" opacity="1.00" d=" M 982.16 262.68 C 985.83 265.35 990.35 267.93 995.07 266.78 C 998.90 265.84 1002.41 263.98 1006.05 262.49 C 1006.48 264.34 1006.90 266.19 1007.31 268.06 C 1004.46 268.04 1001.63 268.05 998.80 268.05 C 996.25 268.00 993.71 268.00 991.18 268.04 C 987.88 268.00 984.57 268.08 981.29 268.29 C 981.56 266.41 981.84 264.54 982.16 262.68 Z" />
<path fill="#310aa2" opacity="1.00" d=" M 946.88 337.24 C 948.49 336.86 950.13 336.46 951.75 336.04 C 953.26 339.53 954.82 342.99 956.47 346.41 C 956.54 346.56 956.68 346.84 956.75 346.98 L 957.15 347.79 C 957.27 348.04 957.51 348.53 957.64 348.78 L 958.26 350.09 C 958.40 350.36 958.66 350.91 958.79 351.18 L 959.23 352.07 C 959.30 352.21 959.45 352.50 959.52 352.64 L 959.72 353.05 C 960.98 356.29 962.43 359.45 964.06 362.53 C 964.48 363.45 964.92 364.37 965.40 365.30 C 965.45 365.40 965.55 365.60 965.60 365.70 L 965.71 365.90 C 966.70 368.46 967.82 370.97 969.07 373.42 C 969.71 374.96 970.38 376.49 971.01 378.05 C 971.43 379.45 972.07 380.78 972.85 382.04 C 976.00 389.14 979.27 396.19 982.34 403.33 C 986.08 411.65 989.94 419.91 993.66 428.24 C 994.11 429.47 994.60 430.70 995.13 431.93 C 999.44 441.67 1004.17 451.22 1008.47 460.97 C 1035.96 461.74 1063.47 462.02 1090.97 462.00 C 1106.56 461.98 1122.16 462.15 1137.73 461.45 C 1138.90 463.43 1140.09 465.40 1141.32 467.36 C 1141.38 467.45 1141.49 467.64 1141.55 467.73 C 1142.79 469.95 1144.05 472.17 1145.38 474.36 C 1145.44 474.45 1145.55 474.64 1145.61 474.74 C 1150.08 482.16 1154.12 489.83 1157.97 497.59 C 1158.87 499.91 1159.89 502.19 1161.02 504.43 C 1161.71 506.23 1162.45 508.02 1163.07 509.87 C 1163.33 511.34 1163.91 512.74 1164.70 514.04 C 1165.06 516.16 1165.54 518.28 1166.16 520.35 C 1166.45 524.81 1166.55 529.28 1166.34 533.75 C 1166.24 534.29 1166.04 535.35 1165.94 535.88 C 1164.77 540.46 1160.61 543.34 1156.97 545.91 C 1144.64 553.70 1129.46 553.23 1115.48 554.70 C 1092.69 555.84 1069.73 556.28 1047.05 553.23 C 1024.59 550.69 1002.50 545.21 981.31 537.39 C 978.12 535.83 974.76 534.27 972.33 531.61 C 970.66 528.07 970.48 524.07 969.89 520.26 C 967.97 508.62 965.14 496.64 958.04 486.97 C 947.03 473.27 930.98 464.93 914.99 458.44 C 921.29 456.14 928.32 456.34 934.96 455.55 C 933.59 450.50 932.29 445.43 930.63 440.48 C 928.83 435.34 925.15 431.26 921.89 427.02 C 917.38 421.40 913.37 415.34 910.07 408.93 C 907.19 402.80 910.06 396.22 910.87 389.99 C 909.93 381.44 904.74 374.15 902.58 365.94 C 901.86 361.55 902.43 357.08 902.52 352.66 C 908.87 348.63 912.43 341.65 918.20 336.92 C 924.33 338.43 930.74 339.12 937.03 338.14 C 937.81 338.08 939.36 337.98 940.14 337.93 C 942.40 338.06 944.70 337.97 946.88 337.24 M 911.17 393.32 C 910.21 397.04 909.54 400.96 910.37 404.77 C 911.46 409.12 914.43 412.60 916.78 416.30 C 919.51 420.55 923.09 424.32 927.58 426.72 C 928.17 421.03 927.18 415.28 925.07 409.99 C 923.53 406.29 920.99 403.01 920.14 399.05 C 919.55 394.68 919.83 390.26 919.89 385.88 C 916.71 388.03 913.87 390.61 911.17 393.32 Z" />
<path fill="#310aa2" opacity="1.00" d=" M 1009.88 410.37 C 1011.47 405.16 1012.80 399.57 1016.85 395.63 C 1016.58 402.08 1015.09 408.37 1013.22 414.53 C 1011.86 419.72 1010.54 424.92 1009.07 430.08 C 1007.38 429.75 1005.70 429.38 1004.04 429.02 C 1006.09 422.83 1007.93 416.59 1009.88 410.37 Z" />
<path fill="#310aa2" opacity="1.00" d=" M 281.24 520.84 C 300.71 523.07 320.31 525.48 339.95 524.04 C 351.30 524.15 362.54 521.77 373.88 522.13 C 375.73 523.11 377.83 522.40 379.79 522.76 C 390.36 525.23 401.42 521.83 411.92 524.86 C 417.83 526.55 423.99 526.96 430.02 528.11 C 434.04 528.81 437.88 530.56 442.02 530.47 C 446.36 530.58 450.66 529.34 455.00 529.86 C 460.07 530.67 464.83 532.81 469.90 533.65 C 475.28 533.81 480.77 532.24 486.03 534.11 C 494.22 536.67 502.84 537.04 511.19 538.85 C 519.29 541.12 527.63 542.96 535.12 546.93 C 537.19 548.01 538.75 549.77 540.31 551.47 C 540.94 556.85 542.06 562.15 542.93 567.49 C 544.30 573.93 544.15 580.53 543.58 587.06 C 543.23 591.30 543.02 595.85 545.31 599.65 C 555.75 618.14 566.82 636.27 577.73 654.49 C 581.84 661.68 585.82 668.95 590.09 676.05 C 591.04 675.00 592.00 673.96 592.96 672.93 C 617.11 673.03 641.26 673.14 665.41 673.00 C 665.91 693.05 666.10 713.10 666.00 733.16 C 675.65 730.17 685.78 729.56 695.78 728.72 C 696.38 728.67 697.57 728.58 698.17 728.53 C 697.72 733.08 693.27 736.25 693.87 740.95 C 693.87 743.39 693.05 745.72 692.45 748.06 C 692.20 747.92 691.69 747.64 691.44 747.49 C 690.33 746.85 689.24 746.21 688.15 745.58 C 679.79 753.21 669.20 758.77 663.34 768.82 C 661.79 772.33 658.79 774.70 655.60 776.64 C 648.54 781.03 643.32 788.58 634.92 790.60 C 630.51 791.65 627.14 788.09 624.72 784.96 C 621.74 781.29 620.28 776.73 618.98 772.27 C 626.66 769.44 633.23 764.21 638.05 757.63 C 641.28 754.31 645.03 751.55 648.36 748.32 C 651.47 745.39 653.37 741.36 656.78 738.71 C 659.20 736.81 661.79 735.11 664.07 733.03 C 665.20 723.05 664.40 713.02 664.39 703.01 C 664.20 693.34 664.26 683.66 664.25 673.99 C 642.84 673.85 621.44 673.72 600.03 673.75 C 597.84 673.75 595.74 674.42 593.66 675.02 C 594.62 680.32 596.60 685.37 597.34 690.72 C 604.80 704.96 614.64 717.88 621.36 732.54 C 622.87 735.87 624.42 739.18 625.86 742.55 C 620.04 746.05 614.23 749.55 608.27 752.79 L 608.12 752.87 C 603.56 748.73 598.00 746.02 592.54 743.32 C 591.90 740.61 591.73 737.54 589.61 735.50 C 585.05 730.70 579.97 726.44 575.28 721.77 C 567.54 714.45 561.04 705.98 554.07 697.96 C 547.90 690.61 541.61 683.36 535.69 675.82 C 534.26 674.03 532.71 672.34 531.16 670.69 C 530.06 673.30 529.65 676.12 529.13 678.90 C 527.79 685.34 525.37 691.55 524.72 698.12 C 524.24 702.51 523.23 706.83 521.55 710.93 C 517.13 720.84 517.52 732.02 514.76 742.35 C 514.05 743.51 513.34 744.67 512.62 745.83 C 511.69 747.30 510.64 748.69 509.61 750.09 C 501.56 750.50 493.60 749.12 485.95 746.69 C 487.90 740.32 487.42 733.63 487.88 727.08 C 488.19 721.52 491.13 716.54 491.93 711.09 C 491.60 703.95 490.43 696.68 492.33 689.63 C 494.40 682.28 494.01 674.59 494.90 667.07 C 494.71 658.62 496.58 650.28 495.94 641.82 C 495.85 634.61 496.82 627.38 495.93 620.20 C 496.27 618.94 496.02 617.81 495.18 616.82 C 494.81 615.51 494.43 614.23 494.06 612.94 C 493.75 611.48 493.02 610.18 492.24 608.94 C 491.08 606.17 490.11 603.32 489.01 600.53 C 488.11 597.71 487.05 594.84 484.89 592.73 C 484.73 592.53 484.40 592.14 484.24 591.94 C 483.66 591.70 482.51 591.21 481.94 590.96 L 481.26 590.90 C 476.08 590.14 470.84 590.10 465.61 590.13 C 464.44 590.04 463.27 589.97 462.11 589.92 C 456.01 589.39 449.90 589.04 443.78 589.08 C 442.53 589.01 441.30 588.96 440.07 588.92 C 433.99 588.39 427.90 588.04 421.80 588.07 C 420.26 587.99 418.72 587.92 417.18 587.87 C 411.34 587.34 405.48 587.04 399.62 587.14 C 398.15 587.02 396.69 586.93 395.23 586.86 C 389.38 586.34 383.51 586.05 377.64 586.12 C 376.15 586.01 374.65 585.92 373.17 585.86 C 367.32 585.33 361.46 585.05 355.60 585.12 C 354.14 585.01 352.67 584.92 351.21 584.86 C 345.38 584.33 339.53 584.05 333.68 584.12 C 332.17 584.01 330.65 583.92 329.15 583.86 C 323.96 583.38 318.77 583.11 313.57 583.16 C 310.36 582.52 307.19 581.73 304.03 580.93 C 302.81 580.00 301.42 579.35 299.93 579.03 C 293.30 575.83 287.97 570.59 283.95 564.50 C 282.71 561.92 281.49 559.34 280.02 556.89 L 279.98 556.83 C 280.34 553.17 278.59 549.75 278.85 546.11 C 279.55 537.68 278.22 528.98 281.24 520.84 Z" />
<path fill="#310aa2" opacity="1.00" d=" M 851.66 688.81 C 852.27 688.45 853.49 687.74 854.10 687.39 C 854.03 688.67 853.97 689.96 853.93 691.25 C 852.33 700.29 851.79 709.46 850.42 718.53 C 848.21 729.29 849.82 740.46 846.90 751.11 C 845.62 755.36 845.93 759.83 846.18 764.20 C 853.53 761.06 856.83 753.40 861.28 747.32 C 869.92 734.06 878.70 720.43 883.03 705.07 L 883.29 704.01 C 887.90 704.01 893.00 705.22 895.78 709.23 C 898.50 713.63 898.75 719.61 896.04 724.07 C 894.12 726.76 891.62 729.01 889.97 731.90 C 887.57 735.65 886.19 739.96 883.70 743.64 C 871.47 757.60 863.06 774.64 849.54 787.51 C 847.12 789.40 843.87 789.22 841.00 789.76 C 841.20 782.11 840.27 774.28 842.42 766.83 C 844.33 760.25 844.93 753.39 846.81 746.82 C 849.54 736.72 845.85 725.99 849.50 716.04 C 852.61 707.26 850.38 697.83 851.66 688.81 Z" />
<path fill="#310aa2" opacity="1.00" d=" M 929.94 715.24 C 932.83 715.30 935.76 715.06 938.63 715.56 C 941.42 716.47 942.81 719.34 944.80 721.30 C 943.21 727.18 942.67 733.27 941.40 739.21 C 939.22 742.73 935.58 745.17 933.79 748.97 C 926.92 762.65 918.79 775.64 910.42 788.44 C 907.05 793.93 902.05 798.78 895.51 800.01 C 895.86 790.67 894.81 781.38 894.41 772.07 C 895.09 772.35 896.44 772.90 897.12 773.17 C 898.11 773.58 899.12 774.01 900.13 774.44 C 903.14 770.89 905.76 767.03 908.15 763.04 C 916.97 747.90 925.41 732.27 929.94 715.24 Z" />
<path fill="#310aa2" opacity="1.00" d=" M 509.41 757.81 C 511.45 755.95 514.47 755.96 517.08 756.05 C 523.41 756.56 529.77 755.47 536.08 756.41 C 544.99 757.17 553.92 760.36 560.40 766.70 C 565.13 771.42 571.05 776.07 571.67 783.27 C 545.15 784.64 518.59 783.23 492.06 784.00 C 487.96 783.78 482.71 783.64 480.46 779.53 C 476.79 773.60 480.58 766.74 482.62 760.94 C 483.49 761.15 485.23 761.58 486.09 761.79 C 493.87 763.71 503.60 764.48 509.41 757.81 Z" />
</g>
<g id="#8aa6feff">
<path fill="#8aa6fe" opacity="1.00" d=" M 950.76 190.16 C 950.76 183.96 953.67 177.08 959.50 174.29 C 957.64 178.34 954.28 181.61 953.14 185.99 C 952.74 189.01 952.77 192.09 953.07 195.13 C 953.99 200.65 957.39 205.28 959.24 210.48 C 953.16 205.82 950.45 197.63 950.76 190.16 Z" />
<path fill="#8aa6fe" opacity="1.00" d=" M 1042.49 262.29 C 1045.70 264.77 1047.90 268.28 1051.12 270.77 C 1059.97 277.94 1069.28 284.55 1077.54 292.42 C 1092.89 305.35 1106.66 320.07 1119.25 335.67 C 1130.74 350.56 1141.61 366.04 1150.05 382.90 C 1155.42 392.83 1159.95 403.18 1164.02 413.71 C 1155.00 417.98 1145.47 421.02 1135.87 423.69 C 1132.82 424.43 1129.86 426.07 1126.66 425.67 C 1116.15 409.12 1105.78 392.42 1093.24 377.29 C 1091.79 375.23 1090.04 373.42 1088.16 371.77 C 1089.39 374.40 1091.04 376.80 1092.81 379.11 C 1103.06 394.71 1114.20 410.02 1120.65 427.72 C 1108.83 432.30 1096.45 435.64 1083.94 437.75 C 1067.24 439.48 1050.05 439.58 1033.67 435.60 C 1031.50 433.01 1029.20 430.53 1026.74 428.22 C 1022.18 423.70 1017.98 418.83 1013.22 414.53 C 1015.09 408.37 1016.58 402.08 1016.85 395.63 C 1012.80 399.57 1011.47 405.16 1009.88 410.37 C 1007.06 407.54 1004.33 404.63 1001.63 401.70 C 993.57 393.17 985.58 384.29 980.24 373.75 C 976.85 366.39 975.22 358.14 975.86 350.04 C 976.30 342.69 978.89 335.72 980.91 328.70 C 986.44 312.73 993.36 297.30 999.93 281.73 C 1001.59 277.42 1004.65 273.86 1008.13 270.89 C 1009.67 272.68 1011.35 274.88 1013.92 275.04 C 1024.56 275.80 1035.78 274.68 1045.05 269.00 C 1044.17 266.77 1043.31 264.53 1042.49 262.29 Z" />
<path fill="#8aa6fe" opacity="1.00" d=" M 278.23 549.34 C 278.43 548.26 278.64 547.18 278.85 546.11 C 278.59 549.75 280.34 553.17 279.98 556.83 C 277.76 554.89 276.16 552.44 275.24 549.66 C 275.99 549.58 277.48 549.42 278.23 549.34 Z" />
<path fill="#8aa6fe" opacity="1.00" d=" M 987.79 596.34 C 995.52 596.26 1003.25 596.66 1010.99 596.87 C 1011.45 596.89 1012.38 596.93 1012.85 596.95 C 1011.98 605.28 1010.36 613.57 1010.81 622.00 C 1011.51 637.26 1009.57 652.67 1012.48 667.79 C 1021.96 666.68 1031.48 666.21 1041.03 666.45 C 1084.68 666.29 1128.34 666.17 1171.99 665.99 C 1172.27 642.97 1172.25 619.95 1172.00 596.94 C 1172.45 596.91 1173.34 596.86 1173.79 596.84 C 1180.57 596.50 1187.36 596.57 1194.14 596.87 C 1194.48 596.89 1195.16 596.93 1195.50 596.95 C 1195.28 602.66 1196.45 608.52 1194.81 614.11 C 1194.05 616.94 1191.89 619.16 1191.13 621.99 C 1189.30 636.30 1193.00 650.87 1189.94 665.07 C 1185.41 678.63 1188.06 693.02 1187.78 706.98 C 1188.11 714.17 1185.35 720.97 1184.38 728.01 C 1183.17 744.04 1185.53 760.15 1183.68 776.16 C 1179.68 770.55 1180.92 763.34 1180.77 756.89 C 1180.37 757.01 1179.57 757.26 1179.17 757.38 C 1179.00 768.15 1179.69 779.00 1177.70 789.67 C 1176.02 790.41 1174.33 791.12 1172.65 791.81 C 1172.68 780.56 1172.18 769.32 1172.17 758.08 C 1171.76 735.69 1172.57 713.30 1171.97 690.91 C 1171.84 686.65 1168.44 682.26 1163.90 682.53 C 1122.28 682.46 1080.65 682.50 1039.03 682.50 C 1029.97 683.16 1021.01 684.73 1011.99 685.79 C 1010.46 694.50 1011.14 703.36 1012.17 712.09 C 1013.34 719.70 1011.80 727.33 1011.42 734.95 C 1010.51 754.54 1011.67 774.15 1010.94 793.74 C 1006.69 793.47 1000.62 795.46 998.02 790.98 C 997.12 782.61 999.67 774.27 998.74 765.89 C 998.33 759.58 994.99 753.91 994.60 747.59 C 993.31 733.21 997.38 718.70 994.46 704.40 C 989.52 687.34 994.14 669.38 991.20 652.07 C 990.66 648.04 989.22 644.16 989.12 640.07 C 988.18 625.50 989.56 610.86 987.79 596.34 Z" />
<path fill="#8aa6fe" opacity="1.00" d=" M 495.57 652.05 C 495.66 648.63 495.80 645.23 495.94 641.82 C 496.58 650.28 494.71 658.62 494.90 667.07 C 494.01 674.59 494.40 682.28 492.33 689.63 C 490.27 684.67 491.65 678.99 491.26 673.74 C 414.43 673.73 337.60 673.76 260.77 674.02 C 260.52 693.01 260.48 712.01 260.23 731.01 C 260.15 739.86 257.88 748.47 257.46 757.29 C 256.66 768.52 258.19 779.82 256.99 791.03 C 255.53 795.85 250.26 797.94 246.06 799.83 C 242.43 798.23 239.83 794.79 238.86 790.99 C 236.76 784.17 239.32 777.05 238.33 770.12 C 237.30 765.04 235.09 760.22 234.71 755.01 C 234.19 750.32 235.41 745.68 235.25 741.01 C 234.81 735.93 232.63 731.15 232.44 726.04 C 232.15 718.02 232.21 709.95 231.02 701.99 C 229.72 693.39 228.68 684.70 229.20 675.99 C 229.87 665.33 224.42 655.30 225.98 644.60 C 227.36 644.67 228.74 644.77 230.12 644.90 C 235.71 645.66 241.35 645.98 246.99 646.10 C 304.67 647.49 362.35 648.88 420.03 650.27 C 445.21 650.95 470.40 651.16 495.57 652.05 Z" />
<path fill="#8aa6fe" opacity="1.00" d=" M 577.73 654.49 C 584.78 654.39 591.82 653.88 598.88 654.12 C 628.89 655.01 658.89 655.95 688.92 656.12 C 694.24 656.37 699.57 656.29 704.89 656.56 C 702.43 659.51 698.75 661.93 698.20 666.04 C 696.69 676.10 700.67 686.37 697.53 696.31 C 694.02 706.76 695.36 717.92 695.78 728.72 C 685.78 729.56 675.65 730.17 666.00 733.16 C 666.10 713.10 665.91 693.05 665.41 673.00 C 641.26 673.14 617.11 673.03 592.96 672.93 C 592.00 673.96 591.04 675.00 590.09 676.05 C 585.82 668.95 581.84 661.68 577.73 654.49 Z" />
<path fill="#8aa6fe" opacity="1.00" d=" M 529.13 678.90 C 529.65 676.12 530.06 673.30 531.16 670.69 C 532.71 672.34 534.26 674.03 535.69 675.82 C 533.78 676.13 531.87 676.44 529.98 676.76 C 529.76 677.30 529.34 678.37 529.13 678.90 Z" />
<path fill="#8aa6fe" opacity="1.00" d=" M 512.62 745.83 C 513.34 744.67 514.05 743.51 514.76 742.35 C 518.57 742.87 515.27 748.05 512.62 745.83 Z" />
<path fill="#8aa6fe" opacity="1.00" d=" M 663.34 768.82 C 669.20 758.77 679.79 753.21 688.15 745.58 C 689.24 746.21 690.33 746.85 691.44 747.49 C 691.14 751.34 691.42 755.21 690.99 759.05 C 690.46 764.14 687.54 768.77 687.96 774.01 C 688.15 781.21 689.93 789.11 685.80 795.62 C 682.05 801.60 671.96 800.22 669.25 793.99 C 668.16 787.13 669.18 780.15 668.59 773.26 C 667.66 771.03 665.19 770.12 663.34 768.82 Z" />
</g>
<g id="#f4382dff">
<path fill="#f4382d" opacity="1.00" d=" M 74.00 271.09 C 84.06 265.53 96.00 267.26 107.01 267.28 C 115.33 266.72 122.97 271.90 127.63 278.45 C 131.51 282.83 133.92 288.21 136.85 293.21 C 144.88 307.33 152.27 321.79 159.79 336.18 C 168.25 350.33 175.57 365.11 183.35 379.63 C 193.03 394.78 200.07 411.39 208.85 427.04 C 219.32 443.77 226.67 462.23 237.11 478.98 C 244.20 490.86 249.69 503.60 256.27 515.76 C 262.87 526.90 268.92 538.37 275.24 549.66 C 276.16 552.44 277.76 554.89 279.98 556.83 L 280.02 556.89 C 280.57 559.77 281.70 562.52 283.95 564.50 C 287.97 570.59 293.30 575.83 299.93 579.03 C 299.78 581.33 302.38 581.82 304.03 580.93 C 307.19 581.73 310.36 582.52 313.57 583.16 C 318.64 584.66 323.95 584.03 329.15 583.86 C 330.65 583.92 332.17 584.01 333.68 584.12 C 339.42 585.56 345.37 585.10 351.21 584.86 C 352.67 584.92 354.14 585.01 355.60 585.12 C 361.36 586.55 367.31 586.08 373.17 585.86 C 374.65 585.92 376.15 586.01 377.64 586.12 C 383.40 587.57 389.36 587.10 395.23 586.86 C 396.69 586.93 398.15 587.02 399.62 587.14 C 405.36 588.62 411.32 588.03 417.18 587.87 C 418.72 587.92 420.26 587.99 421.80 588.07 C 427.87 588.69 433.97 588.90 440.07 588.92 C 441.30 588.96 442.53 589.01 443.78 589.08 C 449.87 589.69 455.99 589.90 462.11 589.92 C 463.27 589.97 464.44 590.04 465.61 590.13 C 470.73 591.50 476.03 591.09 481.26 590.90 L 481.94 590.96 C 482.51 591.21 483.66 591.70 484.24 591.94 C 484.40 592.14 484.73 592.53 484.89 592.73 C 485.98 595.47 487.30 598.11 489.01 600.53 C 490.11 603.32 491.08 606.17 492.24 608.94 C 491.02 610.50 491.84 613.12 494.06 612.94 C 494.43 614.23 494.81 615.51 495.18 616.82 C 494.35 618.23 494.60 619.36 495.93 620.20 C 496.82 627.38 495.85 634.61 495.94 641.82 C 495.80 645.23 495.66 648.63 495.57 652.05 C 470.40 651.16 445.21 650.95 420.03 650.27 C 362.35 648.88 304.67 647.49 246.99 646.10 C 241.35 645.98 235.71 645.66 230.12 644.90 C 214.67 641.98 200.48 633.63 189.40 622.58 C 178.45 610.14 173.35 594.09 167.02 579.07 C 147.88 533.67 127.97 488.59 108.46 443.35 C 105.87 437.86 104.01 432.08 101.68 426.48 C 93.77 411.37 89.34 394.70 81.49 379.56 C 79.66 375.87 78.73 371.83 77.05 368.08 C 73.78 360.88 70.14 353.82 67.66 346.30 C 63.39 334.65 55.09 323.93 55.48 311.01 C 55.57 303.93 54.41 296.57 56.80 289.73 C 60.43 281.93 66.66 275.51 74.00 271.09 Z" />
<path fill="#f4382d" opacity="1.00" d=" M 991.18 268.04 C 993.71 268.00 996.25 268.00 998.80 268.05 C 1001.59 268.17 1004.37 268.31 1007.18 268.42 C 1007.42 269.04 1007.90 270.27 1008.13 270.89 C 1004.65 273.86 1001.59 277.42 999.93 281.73 C 993.36 297.30 986.44 312.73 980.91 328.70 C 978.89 335.72 976.30 342.69 975.86 350.04 C 975.22 358.14 976.85 366.39 980.24 373.75 C 985.58 384.29 993.57 393.17 1001.63 401.70 C 995.41 403.59 988.76 403.18 982.34 403.33 C 979.27 396.19 976.00 389.14 972.85 382.04 C 974.09 380.47 973.25 377.75 971.01 378.05 C 970.38 376.49 969.71 374.96 969.07 373.42 C 968.58 370.66 967.46 368.09 965.71 365.90 L 965.60 365.70 C 965.55 365.60 965.45 365.40 965.40 365.30 C 964.92 364.37 964.48 363.45 964.06 362.53 C 963.55 358.99 961.78 355.89 959.72 353.05 L 959.52 352.64 C 959.45 352.50 959.30 352.21 959.23 352.07 L 958.79 351.18 C 958.66 350.91 958.40 350.36 958.26 350.09 L 957.64 348.78 C 957.51 348.53 957.27 348.04 957.15 347.79 L 956.75 346.98 C 956.68 346.84 956.54 346.56 956.47 346.41 C 954.82 342.99 953.26 339.53 951.75 336.04 C 950.13 336.46 948.49 336.86 946.88 337.24 C 944.70 336.29 941.73 335.63 940.14 337.93 C 939.36 337.98 937.81 338.08 937.03 338.14 C 935.09 338.26 933.14 338.36 931.23 338.50 C 931.77 329.00 932.18 319.51 932.19 310.00 C 932.08 305.71 934.28 301.87 936.07 298.12 C 939.74 290.60 945.11 283.83 952.05 279.08 C 963.48 271.28 977.46 268.02 991.18 268.04 Z" />
<path fill="#f4382d" opacity="1.00" d=" M 1051.12 270.77 C 1083.08 270.59 1115.05 270.52 1147.01 270.38 C 1162.00 270.13 1177.02 270.78 1191.98 269.57 C 1199.54 269.73 1206.23 273.78 1212.57 277.49 C 1219.37 281.46 1224.24 287.80 1229.33 293.64 C 1235.37 301.77 1237.86 311.94 1238.73 321.88 C 1239.85 332.24 1237.18 342.50 1237.34 352.86 C 1236.32 359.20 1235.01 365.55 1235.32 372.03 C 1236.19 388.43 1233.05 404.63 1231.61 420.90 C 1231.15 429.63 1231.53 438.45 1229.89 447.08 C 1227.82 457.30 1229.42 467.77 1228.17 478.07 C 1227.27 485.37 1227.28 492.77 1226.04 500.03 C 1225.36 504.62 1225.55 509.27 1225.49 513.90 C 1225.48 520.91 1224.49 527.86 1223.83 534.83 C 1223.57 536.41 1223.25 537.98 1222.96 539.56 C 1215.21 537.00 1207.00 538.15 1199.01 537.95 C 1188.05 537.83 1177.08 538.04 1166.13 537.87 C 1166.08 537.37 1165.98 536.38 1165.94 535.88 C 1166.04 535.35 1166.24 534.29 1166.34 533.75 C 1167.39 529.38 1167.69 524.64 1166.16 520.35 C 1165.54 518.28 1165.06 516.16 1164.70 514.04 C 1165.72 512.47 1165.42 509.73 1163.07 509.87 C 1162.45 508.02 1161.71 506.23 1161.02 504.43 C 1160.62 501.89 1159.67 499.52 1157.97 497.59 C 1154.12 489.83 1150.08 482.16 1145.61 474.74 C 1145.55 474.64 1145.44 474.45 1145.38 474.36 C 1144.05 472.17 1142.79 469.95 1141.55 467.73 C 1141.49 467.64 1141.38 467.45 1141.32 467.36 C 1140.09 465.40 1138.90 463.43 1137.73 461.45 C 1146.22 460.98 1155.42 460.73 1162.64 455.64 C 1166.82 452.68 1171.68 449.27 1172.62 443.86 C 1172.90 439.10 1171.35 434.46 1169.94 429.98 C 1168.01 424.54 1166.18 419.06 1164.02 413.71 C 1159.95 403.18 1155.42 392.83 1150.05 382.90 C 1141.61 366.04 1130.74 350.56 1119.25 335.67 C 1106.66 320.07 1092.89 305.35 1077.54 292.42 C 1069.28 284.55 1059.97 277.94 1051.12 270.77 Z" />
<path fill="#f4382d" opacity="1.00" d=" M 1093.24 377.29 C 1105.78 392.42 1116.15 409.12 1126.66 425.67 C 1124.89 426.97 1122.76 427.42 1120.65 427.72 C 1114.20 410.02 1103.06 394.71 1092.81 379.11 L 1093.24 377.29 Z" />
<path fill="#f4382d" opacity="1.00" d=" M 993.63 425.73 C 996.24 425.75 998.07 427.11 998.32 429.76 C 997.23 430.47 996.18 431.20 995.13 431.93 C 994.60 430.70 994.11 429.47 993.66 428.24 C 993.65 427.61 993.64 426.36 993.63 425.73 Z" />
<path fill="#f4382d" opacity="1.00" d=" M 1010.18 429.16 C 1015.43 427.28 1021.24 428.28 1026.74 428.22 C 1029.20 430.53 1031.50 433.01 1033.67 435.60 C 1025.81 434.44 1018.24 431.99 1010.49 430.36 C 1010.41 430.06 1010.26 429.46 1010.18 429.16 Z" />
<path fill="#f4382d" opacity="1.00" d=" M 961.78 519.54 C 964.48 519.75 967.18 519.99 969.89 520.26 C 970.48 524.07 970.66 528.07 972.33 531.61 C 974.76 534.27 978.12 535.83 981.31 537.39 C 975.84 538.26 970.27 537.79 964.78 538.49 C 963.75 532.18 962.86 525.85 961.78 519.54 Z" />
<path fill="#f4382d" opacity="1.00" d=" M 542.93 567.49 C 546.56 566.71 550.26 566.20 553.98 566.26 C 611.65 566.24 669.33 566.27 727.00 566.25 C 732.26 566.11 737.85 567.40 741.60 571.33 C 746.84 576.41 753.23 582.03 753.21 589.96 C 753.04 600.00 753.10 610.05 753.19 620.09 C 751.46 634.18 740.25 644.58 729.42 652.57 C 725.84 655.18 721.33 656.17 716.96 656.24 C 707.61 656.35 698.27 656.19 688.92 656.12 C 658.89 655.95 628.89 655.01 598.88 654.12 C 591.82 653.88 584.78 654.39 577.73 654.49 C 566.82 636.27 555.75 618.14 545.31 599.65 C 543.02 595.85 543.23 591.30 543.58 587.06 C 544.15 580.53 544.30 573.93 542.93 567.49 Z" />
</g>
<g id="#ff695bff">
<path fill="#ff695b" opacity="1.00" d=" M 328.49 302.35 C 334.61 296.84 339.67 290.20 345.93 284.86 L 345.97 286.36 C 345.28 292.99 349.88 298.71 355.57 301.48 C 366.21 308.05 379.51 306.59 391.03 303.50 C 396.61 315.09 405.65 324.60 416.00 332.10 C 422.43 336.57 426.43 343.62 432.73 348.23 C 436.85 350.59 440.99 353.72 445.96 353.69 C 450.93 353.68 455.87 351.86 459.74 348.75 C 464.82 345.21 466.66 338.97 469.93 333.98 C 475.86 320.96 480.36 307.31 487.02 294.61 C 491.14 296.67 495.58 297.92 500.02 299.07 C 500.09 299.53 500.25 300.47 500.32 300.94 C 496.72 310.21 498.48 320.33 497.92 330.02 C 497.83 334.92 495.55 339.40 494.72 344.17 C 494.02 350.04 496.52 355.99 494.76 361.79 C 492.60 370.08 489.80 379.35 481.88 383.92 C 474.37 388.04 466.95 393.50 458.07 393.81 C 452.96 394.21 447.76 393.65 442.91 391.94 C 433.59 388.84 424.29 385.65 414.91 382.71 C 414.48 387.07 413.63 391.38 412.38 395.58 C 410.93 400.61 411.39 405.89 410.94 411.04 C 408.72 422.65 401.37 433.49 403.14 445.70 C 409.75 448.92 415.89 453.21 422.94 455.47 C 433.89 458.38 445.41 458.42 456.56 456.75 C 460.05 456.44 463.61 455.06 467.09 456.18 C 467.85 460.51 469.25 464.70 470.22 468.98 C 484.79 465.63 501.29 463.54 511.99 451.97 C 516.24 447.98 517.83 442.25 519.21 436.79 C 515.97 437.87 512.83 439.63 509.33 439.57 C 512.31 436.05 516.72 434.33 521.08 433.24 C 521.45 442.10 516.90 450.59 510.65 456.64 C 504.81 462.20 496.61 463.62 489.28 466.23 C 483.42 468.31 477.40 469.85 471.50 471.78 C 462.71 475.14 454.59 480.20 445.44 482.59 C 438.78 484.39 431.82 483.57 425.02 483.75 C 416.23 483.89 407.30 483.74 398.82 481.19 C 395.90 480.22 393.00 479.18 389.96 478.64 C 385.33 492.97 381.23 507.46 377.95 522.16 C 376.59 522.14 375.23 522.13 373.88 522.13 C 362.54 521.77 351.30 524.15 339.95 524.04 C 320.31 525.48 300.71 523.07 281.24 520.84 C 281.32 510.67 281.13 500.49 281.34 490.32 C 281.33 485.02 283.48 480.11 284.52 474.99 C 286.84 463.77 284.48 452.34 284.56 441.04 C 284.28 435.35 287.47 430.37 288.61 424.95 C 289.06 419.27 288.38 413.54 289.07 407.87 C 289.86 403.54 291.94 399.47 291.99 395.01 C 292.03 390.48 291.90 385.87 293.36 381.52 C 295.30 375.66 295.61 369.49 296.69 363.47 C 298.79 355.74 299.98 347.68 303.61 340.45 C 307.47 330.64 313.57 321.97 319.01 313.01 C 321.39 308.84 324.90 305.48 328.49 302.35 Z" />
<path fill="#ff695b" opacity="1.00" d=" M 940.14 337.93 C 941.73 335.63 944.70 336.29 946.88 337.24 C 944.70 337.97 942.40 338.06 940.14 337.93 Z" />
<path fill="#ff695b" opacity="1.00" d=" M 956.47 346.41 C 956.54 346.56 956.68 346.84 956.75 346.98 C 956.68 346.84 956.54 346.56 956.47 346.41 Z" />
<path fill="#ff695b" opacity="1.00" d=" M 957.15 347.79 C 957.27 348.04 957.51 348.53 957.64 348.78 C 957.51 348.53 957.27 348.04 957.15 347.79 Z" />
<path fill="#ff695b" opacity="1.00" d=" M 958.26 350.09 C 958.40 350.36 958.66 350.91 958.79 351.18 C 958.66 350.91 958.40 350.36 958.26 350.09 Z" />
<path fill="#ff695b" opacity="1.00" d=" M 959.23 352.07 C 959.30 352.21 959.45 352.50 959.52 352.64 C 959.45 352.50 959.30 352.21 959.23 352.07 Z" />
<path fill="#ff695b" opacity="1.00" d=" M 959.72 353.05 C 961.78 355.89 963.55 358.99 964.06 362.53 C 962.43 359.45 960.98 356.29 959.72 353.05 Z" />
<path fill="#ff695b" opacity="1.00" d=" M 965.40 365.30 C 965.45 365.40 965.55 365.60 965.60 365.70 C 965.55 365.60 965.45 365.40 965.40 365.30 Z" />
<path fill="#ff695b" opacity="1.00" d=" M 965.71 365.90 C 967.46 368.09 968.58 370.66 969.07 373.42 C 967.82 370.97 966.70 368.46 965.71 365.90 Z" />
<path fill="#ff695b" opacity="1.00" d=" M 971.01 378.05 C 973.25 377.75 974.09 380.47 972.85 382.04 C 972.07 380.78 971.43 379.45 971.01 378.05 Z" />
<path fill="#ff695b" opacity="1.00" d=" M 1141.32 467.36 C 1141.38 467.45 1141.49 467.64 1141.55 467.73 C 1141.49 467.64 1141.38 467.45 1141.32 467.36 Z" />
<path fill="#ff695b" opacity="1.00" d=" M 1145.38 474.36 C 1145.44 474.45 1145.55 474.64 1145.61 474.74 C 1145.55 474.64 1145.44 474.45 1145.38 474.36 Z" />
<path fill="#ff695b" opacity="1.00" d=" M 1157.97 497.59 C 1159.67 499.52 1160.62 501.89 1161.02 504.43 C 1159.89 502.19 1158.87 499.91 1157.97 497.59 Z" />
<path fill="#ff695b" opacity="1.00" d=" M 1163.07 509.87 C 1165.42 509.73 1165.72 512.47 1164.70 514.04 C 1163.91 512.74 1163.33 511.34 1163.07 509.87 Z" />
<path fill="#ff695b" opacity="1.00" d=" M 1166.16 520.35 C 1167.69 524.64 1167.39 529.38 1166.34 533.75 C 1166.55 529.28 1166.45 524.81 1166.16 520.35 Z" />
<path fill="#ff695b" opacity="1.00" d=" M 1222.96 539.56 C 1223.25 537.98 1223.57 536.41 1223.83 534.83 C 1223.78 536.46 1223.75 538.12 1223.72 539.77 C 1227.65 542.72 1232.50 543.91 1236.58 546.57 C 1240.32 550.27 1241.67 555.60 1243.48 560.39 C 1245.72 566.26 1246.15 573.24 1242.90 578.82 C 1238.17 583.81 1233.36 588.74 1228.08 593.16 C 1225.84 595.41 1222.50 595.69 1219.59 596.49 C 1211.62 597.74 1203.52 597.05 1195.50 596.95 C 1195.16 596.93 1194.48 596.89 1194.14 596.87 C 1187.39 595.79 1180.53 595.74 1173.79 596.84 C 1173.34 596.86 1172.45 596.91 1172.00 596.94 C 1118.95 597.31 1065.90 597.29 1012.85 596.95 C 1012.38 596.93 1011.45 596.89 1010.99 596.87 C 992.88 595.39 974.71 596.73 956.58 596.14 C 957.95 588.48 958.87 580.76 960.17 573.09 C 961.77 561.76 961.51 550.27 960.92 538.87 C 962.18 538.73 963.49 538.62 964.78 538.49 C 970.27 537.79 975.84 538.26 981.31 537.39 C 1002.50 545.21 1024.59 550.69 1047.05 553.23 C 1069.73 556.28 1092.69 555.84 1115.48 554.70 C 1129.46 553.23 1144.64 553.70 1156.97 545.91 C 1160.61 543.34 1164.77 540.46 1165.94 535.88 C 1165.98 536.38 1166.08 537.37 1166.13 537.87 C 1177.08 538.04 1188.05 537.83 1199.01 537.95 C 1207.00 538.15 1215.21 537.00 1222.96 539.56 Z" />
<path fill="#ff695b" opacity="1.00" d=" M 280.02 556.89 C 281.49 559.34 282.71 561.92 283.95 564.50 C 281.70 562.52 280.57 559.77 280.02 556.89 Z" />
<path fill="#ff695b" opacity="1.00" d=" M 864.50 577.21 C 865.06 577.20 866.20 577.19 866.77 577.18 C 865.54 585.29 866.44 593.59 864.50 601.61 C 862.08 611.25 863.03 621.30 861.30 631.04 C 860.25 636.97 859.31 642.94 859.12 648.98 C 858.84 657.12 855.53 664.89 855.98 673.09 C 856.19 679.20 856.18 685.47 853.93 691.25 C 853.97 689.96 854.03 688.67 854.10 687.39 C 855.30 677.29 853.05 666.83 856.41 657.00 C 859.05 649.55 856.81 641.49 858.83 633.95 C 859.70 630.33 861.03 626.77 861.12 623.01 C 861.41 615.95 860.44 608.70 862.65 601.86 C 865.33 593.91 864.42 585.44 864.50 577.21 Z" />
<path fill="#ff695b" opacity="1.00" d=" M 299.93 579.03 C 301.42 579.35 302.81 580.00 304.03 580.93 C 302.38 581.82 299.78 581.33 299.93 579.03 Z" />
<path fill="#ff695b" opacity="1.00" d=" M 313.57 583.16 C 318.77 583.11 323.96 583.38 329.15 583.86 C 323.95 584.03 318.64 584.66 313.57 583.16 Z" />
<path fill="#ff695b" opacity="1.00" d=" M 333.68 584.12 C 339.53 584.05 345.38 584.33 351.21 584.86 C 345.37 585.10 339.42 585.56 333.68 584.12 Z" />
<path fill="#ff695b" opacity="1.00" d=" M 355.60 585.12 C 361.46 585.05 367.32 585.33 373.17 585.86 C 367.31 586.08 361.36 586.55 355.60 585.12 Z" />
<path fill="#ff695b" opacity="1.00" d=" M 377.64 586.12 C 383.51 586.05 389.38 586.34 395.23 586.86 C 389.36 587.10 383.40 587.57 377.64 586.12 Z" />
<path fill="#ff695b" opacity="1.00" d=" M 399.62 587.14 C 405.48 587.04 411.34 587.34 417.18 587.87 C 411.32 588.03 405.36 588.62 399.62 587.14 Z" />
<path fill="#ff695b" opacity="1.00" d=" M 465.61 590.13 C 470.84 590.10 476.08 590.14 481.26 590.90 C 476.03 591.09 470.73 591.50 465.61 590.13 Z" />
<path fill="#ff695b" opacity="1.00" d=" M 481.94 590.96 C 482.51 591.21 483.66 591.70 484.24 591.94 C 483.66 591.70 482.51 591.21 481.94 590.96 Z" />
<path fill="#ff695b" opacity="1.00" d=" M 484.89 592.73 C 487.05 594.84 488.11 597.71 489.01 600.53 C 487.30 598.11 485.98 595.47 484.89 592.73 Z" />
<path fill="#ff695b" opacity="1.00" d=" M 492.24 608.94 C 493.02 610.18 493.75 611.48 494.06 612.94 C 491.84 613.12 491.02 610.50 492.24 608.94 Z" />
<path fill="#ff695b" opacity="1.00" d=" M 495.18 616.82 C 496.02 617.81 496.27 618.94 495.93 620.20 C 494.60 619.36 494.35 618.23 495.18 616.82 Z" />
</g>
</svg>
