<?xml version="1.0" encoding="UTF-8" ?>
<!DOCTYPE svg PUBLIC "-//W3C//DTD SVG 1.1//EN" "http://www.w3.org/Graphics/SVG/1.1/DTD/svg11.dtd">
<svg width="1080pt" height="1080pt" viewBox="0 0 1080 1080" version="1.1" xmlns="http://www.w3.org/2000/svg">
<g id="#3a444420">
<path fill="#3a4444" opacity="0.13" d=" M 590.50 285.50 C 593.34 285.23 596.19 284.97 599.05 285.11 C 612.69 285.85 626.37 285.74 640.00 285.03 C 643.16 284.91 646.32 285.21 649.47 285.53 C 649.85 285.92 650.60 286.68 650.97 287.07 C 653.82 287.10 656.66 287.27 659.51 287.53 C 659.86 287.92 660.56 288.70 660.90 289.10 C 664.36 289.24 668.20 288.65 671.18 290.85 C 675.53 290.76 679.24 293.24 683.48 293.66 C 683.87 294.04 684.65 294.79 685.04 295.17 C 686.51 295.30 687.99 295.43 689.47 295.56 C 689.86 295.95 690.63 296.74 691.02 297.13 C 692.46 297.28 693.91 297.45 695.37 297.64 C 697.07 299.17 699.32 299.50 701.54 299.63 C 701.92 300.03 702.69 300.83 703.07 301.23 C 703.68 301.32 704.89 301.50 705.50 301.59 C 705.88 301.98 706.64 302.78 707.02 303.17 C 707.62 303.31 708.81 303.59 709.40 303.73 C 711.09 305.10 713.23 305.44 715.34 305.69 C 717.94 307.53 720.70 309.16 723.20 311.16 C 723.74 311.29 724.82 311.54 725.37 311.67 C 728.72 313.97 732.54 315.53 735.78 318.03 C 739.00 320.01 741.86 322.73 745.56 323.81 C 748.95 326.95 751.92 330.60 756.00 332.92 C 764.53 341.03 772.85 349.41 780.98 357.92 C 783.28 362.22 787.85 364.79 789.49 369.49 C 793.26 374.45 797.42 379.29 799.93 385.07 L 798.15 384.51 C 793.34 377.49 788.22 370.70 783.10 363.91 C 776.59 354.83 767.50 348.14 760.13 339.83 C 755.95 334.95 750.55 331.41 745.70 327.28 C 740.50 322.87 734.45 319.64 729.00 315.58 C 728.47 315.48 727.42 315.29 726.90 315.20 C 724.08 313.20 721.06 311.52 717.87 310.21 C 717.62 309.75 717.37 309.30 717.14 308.84 C 713.84 307.11 710.34 305.74 706.65 305.18 C 706.29 304.76 705.56 303.92 705.20 303.50 C 704.64 303.43 703.52 303.30 702.96 303.23 C 698.90 300.06 693.65 299.48 688.97 297.67 C 680.95 294.88 672.89 292.17 664.56 290.43 C 661.33 289.46 658.05 288.60 654.67 288.43 C 649.73 288.08 645.05 285.91 640.04 286.25 C 625.22 286.50 610.38 285.97 595.58 286.51 C 586.81 288.12 578.05 289.83 569.52 292.47 L 569.16 292.51 C 566.85 292.74 564.58 293.23 562.42 294.08 C 555.88 296.61 549.34 299.16 542.79 301.68 C 543.30 300.97 543.83 300.26 544.36 299.55 C 544.99 299.48 546.26 299.32 546.89 299.24 C 547.29 298.84 548.08 298.04 548.47 297.64 C 551.50 297.56 554.14 296.03 556.93 295.02 C 557.33 294.66 558.15 293.96 558.55 293.60 C 560.75 293.50 562.95 293.09 564.68 291.63 C 566.80 291.35 568.93 291.14 571.07 290.95 C 571.43 290.60 572.16 289.91 572.52 289.56 C 574.63 289.39 576.74 289.19 578.85 288.94 C 581.74 286.60 585.61 287.26 589.06 287.15 C 589.42 286.74 590.14 285.91 590.50 285.50 Z" />
<path fill="#3a4444" opacity="0.13" d=" M 254.45 293.52 C 261.46 293.17 268.49 293.41 275.51 293.49 C 275.87 293.88 276.60 294.66 276.97 295.06 C 279.77 295.11 282.57 295.26 285.35 295.63 C 287.09 297.22 289.41 297.52 291.67 297.65 C 292.02 298.02 292.72 298.77 293.07 299.14 C 293.66 299.30 294.83 299.60 295.42 299.76 C 296.88 300.79 298.53 301.48 300.19 302.14 L 299.11 302.73 C 297.62 302.76 296.19 302.34 294.84 301.74 C 294.31 301.65 293.24 301.46 292.71 301.36 C 292.34 300.97 291.59 300.18 291.21 299.79 C 288.45 298.96 285.73 298.00 283.04 296.99 C 279.69 296.32 276.27 296.01 272.96 295.19 L 272.32 294.80 C 271.97 294.58 271.26 294.14 270.91 293.92 C 266.52 293.79 261.81 292.95 257.67 294.77 L 256.80 295.12 C 256.04 295.29 254.53 295.63 253.78 295.80 C 255.17 296.08 256.56 296.35 257.96 296.63 C 254.76 296.33 251.47 295.92 248.31 296.71 C 243.43 297.62 238.99 299.86 234.45 301.76 C 234.18 302.17 233.64 303.01 233.37 303.43 C 227.05 305.94 222.66 311.29 217.93 315.91 C 214.61 319.09 212.51 323.23 209.75 326.86 C 209.61 327.40 209.32 328.48 209.18 329.03 C 208.75 329.39 207.90 330.11 207.47 330.47 C 207.35 326.26 209.62 322.45 212.44 319.50 C 216.87 313.11 222.65 307.68 229.04 303.28 C 231.80 300.69 235.81 300.23 238.58 297.69 C 240.75 297.49 242.98 297.14 244.67 295.63 C 247.45 295.27 250.25 295.11 253.06 295.00 C 253.40 294.63 254.10 293.89 254.45 293.52 Z" />
<path fill="#3a4444" opacity="0.13" d=" M 356.54 295.54 C 364.81 295.07 373.13 294.63 381.39 295.53 C 381.78 295.89 382.57 296.61 382.96 296.97 C 385.17 297.18 387.39 297.39 389.61 297.59 C 389.97 297.94 390.70 298.65 391.07 299.00 C 393.69 300.16 396.43 301.02 399.14 301.97 C 401.22 303.26 403.00 305.06 405.39 305.83 C 411.10 308.87 415.00 314.12 419.68 318.41 C 421.16 319.71 422.20 321.38 422.84 323.24 C 423.98 324.29 425.15 325.33 426.33 326.36 C 426.42 326.99 426.61 328.25 426.70 328.88 C 427.08 329.28 427.82 330.07 428.19 330.46 C 428.71 331.90 429.39 333.29 430.25 334.56 C 430.40 335.16 430.68 336.34 430.83 336.93 C 431.21 337.28 431.97 337.98 432.35 338.33 C 432.47 338.97 432.70 340.24 432.81 340.87 C 433.21 341.25 434.02 342.02 434.42 342.40 C 434.61 344.63 434.80 346.86 435.00 349.09 C 435.37 349.45 436.11 350.17 436.49 350.53 C 436.92 353.87 436.07 357.72 438.30 360.55 C 439.41 368.81 439.19 377.21 438.46 385.49 C 438.08 385.86 437.33 386.60 436.95 386.97 C 437.61 392.13 434.96 396.67 434.32 401.63 C 433.96 401.99 433.24 402.71 432.88 403.07 C 432.73 403.65 432.42 404.81 432.27 405.39 C 430.48 407.88 429.14 410.65 428.23 413.58 C 427.85 413.96 427.10 414.72 426.72 415.10 C 426.62 415.71 426.41 416.94 426.30 417.56 C 422.90 421.00 419.92 425.11 418.15 429.62 C 416.28 431.17 414.56 435.02 411.77 433.84 C 413.50 431.27 415.34 428.79 417.24 426.35 C 420.55 422.06 422.82 417.04 426.47 413.00 C 426.49 412.43 426.54 411.27 426.56 410.70 C 427.05 410.36 428.03 409.68 428.52 409.34 C 428.53 408.74 428.55 407.54 428.56 406.95 C 429.07 406.50 430.09 405.62 430.60 405.18 C 430.58 404.57 430.55 403.36 430.53 402.75 C 430.95 402.37 431.79 401.60 432.21 401.21 C 436.44 389.04 439.27 375.81 436.88 362.96 C 435.57 356.22 434.26 349.48 432.30 342.89 C 431.87 342.43 431.01 341.50 430.58 341.04 C 430.56 340.44 430.52 339.24 430.50 338.64 C 430.02 338.25 429.04 337.47 428.55 337.08 C 428.55 336.48 428.54 335.27 428.54 334.66 C 428.06 334.27 427.10 333.50 426.62 333.11 C 426.56 332.56 426.45 331.46 426.39 330.91 C 423.63 327.50 421.66 323.50 418.53 320.39 C 414.17 316.05 409.94 311.57 405.23 307.61 C 404.70 307.52 403.65 307.35 403.13 307.26 C 399.43 304.61 395.56 301.90 390.97 301.15 C 390.50 300.79 389.55 300.07 389.08 299.70 C 385.74 298.76 382.36 297.99 379.02 297.08 C 373.81 295.76 368.40 296.48 363.10 296.34 C 362.16 295.17 360.11 295.37 360.00 297.07 C 354.08 297.92 348.44 299.89 342.81 301.79 C 342.42 302.20 341.65 303.02 341.26 303.43 C 340.69 303.46 339.55 303.50 338.97 303.52 C 336.66 305.48 334.28 307.34 331.88 309.19 L 330.05 308.59 C 333.26 304.29 338.42 302.61 342.67 299.69 C 344.80 299.43 347.02 299.13 348.70 297.64 C 350.80 297.39 352.92 297.19 355.04 297.01 C 355.42 296.65 356.16 295.91 356.54 295.54 Z" />
<path fill="#3a4444" opacity="0.13" d=" M 532.73 305.11 C 535.69 303.30 538.92 300.92 542.60 301.76 C 534.87 305.44 527.19 309.24 519.83 313.62 C 502.35 323.10 485.53 334.35 472.03 349.09 C 470.90 350.40 470.02 351.90 469.10 353.35 C 461.28 361.96 456.04 372.38 450.15 382.28 C 446.89 389.99 444.87 398.17 441.95 406.01 C 440.07 410.46 440.52 415.50 438.54 419.90 C 437.55 421.07 437.31 422.72 438.12 424.07 C 438.51 427.91 437.75 431.72 437.38 435.54 L 437.15 435.58 L 435.81 435.77 C 435.75 448.30 435.41 460.85 436.05 473.37 C 435.37 476.66 434.86 479.99 434.40 483.33 C 433.45 489.57 430.23 495.14 429.16 501.36 C 428.74 501.73 427.89 502.47 427.46 502.84 C 427.44 503.45 427.39 504.67 427.37 505.28 C 426.89 505.65 425.95 506.41 425.48 506.79 C 425.42 507.37 425.31 508.53 425.25 509.11 C 420.74 514.42 417.74 520.83 413.13 526.06 C 407.62 532.26 401.74 538.11 395.82 543.92 C 391.34 548.26 387.44 553.33 384.88 559.03 C 383.92 563.25 384.03 567.74 384.65 572.01 C 387.85 579.06 395.44 582.18 401.06 586.95 C 406.78 590.44 411.66 595.46 414.17 601.75 C 414.30 604.87 414.32 608.00 414.22 611.13 C 413.89 612.51 413.54 613.89 413.21 615.28 C 412.88 615.65 412.22 616.38 411.89 616.74 C 410.31 621.29 405.17 624.85 406.50 630.09 C 409.30 635.53 416.04 637.37 418.63 642.94 C 415.43 647.62 412.61 653.35 414.98 659.06 C 417.21 662.71 420.69 665.40 423.21 668.86 C 423.55 670.49 423.93 672.13 424.25 673.79 C 424.31 678.91 424.28 684.03 424.30 689.15 C 423.59 692.51 422.56 695.84 422.48 699.31 C 422.46 699.63 422.43 700.26 422.42 700.58 C 421.94 703.53 421.20 706.43 420.58 709.36 C 420.50 709.84 420.32 710.82 420.23 711.31 C 419.27 716.81 419.52 722.42 419.62 727.98 C 419.63 735.89 425.93 742.28 432.77 745.35 C 437.46 747.23 442.25 749.18 447.34 749.65 C 447.64 749.69 448.23 749.75 448.52 749.78 C 456.83 750.79 465.28 750.68 473.59 749.82 C 475.30 749.72 477.01 749.61 478.71 749.38 C 482.53 748.59 486.35 747.65 490.28 747.59 C 490.88 747.59 492.08 747.57 492.67 747.56 C 496.95 747.12 501.17 746.31 505.42 745.68 C 508.93 745.12 512.32 743.92 515.88 743.67 C 522.59 743.78 529.31 743.63 536.03 743.78 C 537.75 744.06 539.47 744.42 541.19 744.76 C 545.31 747.29 548.04 751.20 550.29 755.38 C 551.01 759.42 551.76 763.46 552.27 767.54 C 552.30 767.81 552.36 768.35 552.38 768.62 C 553.18 775.35 554.50 782.04 556.47 788.54 C 557.32 791.83 557.98 795.16 558.58 798.51 C 559.86 806.38 561.49 816.51 570.21 819.41 C 581.09 820.32 592.11 819.27 603.03 820.09 C 618.66 819.34 634.33 819.91 649.98 819.73 C 672.64 819.72 695.29 819.74 717.95 819.73 C 722.81 819.51 727.78 820.31 732.56 819.16 C 739.48 816.84 746.84 817.91 754.00 817.71 C 758.25 817.57 762.95 818.53 766.69 815.91 C 767.93 814.46 767.87 812.55 767.31 810.84 C 759.53 784.06 750.45 757.66 743.70 730.59 C 743.67 730.20 743.62 729.40 743.60 729.01 C 743.25 725.37 742.26 721.83 741.71 718.23 C 741.76 708.13 741.69 698.03 741.73 687.93 C 743.69 677.15 746.13 666.33 750.55 656.25 C 751.98 652.99 753.48 649.76 754.70 646.41 C 757.94 641.98 760.12 636.86 763.67 632.65 C 772.58 620.32 782.48 608.76 791.33 596.39 C 793.66 592.58 795.66 588.57 798.44 585.05 C 798.52 584.52 798.68 583.44 798.76 582.90 C 803.53 577.08 807.38 570.23 808.84 562.79 C 809.20 562.38 809.91 561.55 810.27 561.14 C 811.22 558.44 812.10 555.70 812.94 552.96 C 817.65 545.42 818.21 536.29 820.76 527.94 C 821.88 521.31 824.10 514.78 823.74 507.99 C 823.63 498.30 823.79 488.62 823.66 478.94 C 823.59 476.87 823.97 474.84 824.53 472.86 C 824.77 473.01 825.25 473.30 825.49 473.45 C 823.48 479.74 824.79 486.44 824.43 492.93 C 824.05 501.79 825.59 510.67 824.47 519.50 C 824.07 519.86 823.28 520.59 822.88 520.95 C 822.87 523.75 822.72 526.54 822.45 529.33 C 822.07 529.75 821.31 530.58 820.93 531.00 C 820.77 533.17 820.61 535.35 820.46 537.53 C 820.10 537.87 819.38 538.57 819.02 538.91 C 818.82 541.05 818.62 543.20 818.36 545.34 C 816.83 547.03 816.57 549.29 816.36 551.46 C 816.01 551.88 815.31 552.71 814.96 553.12 C 813.94 555.87 812.48 558.51 812.32 561.50 C 811.99 561.90 811.32 562.68 810.98 563.07 C 809.90 565.83 808.46 568.50 808.34 571.54 C 807.94 571.94 807.15 572.73 806.75 573.13 C 806.66 573.71 806.50 574.88 806.41 575.46 C 806.04 575.87 805.29 576.68 804.92 577.09 C 804.52 579.66 802.61 581.42 800.82 583.11 C 800.69 583.67 800.43 584.78 800.31 585.34 C 798.55 588.00 797.07 590.87 794.83 593.18 C 794.73 593.74 794.52 594.87 794.42 595.43 C 794.00 595.85 793.17 596.69 792.75 597.11 C 792.64 597.74 792.41 598.99 792.29 599.62 C 787.78 603.43 784.78 608.55 781.08 613.08 C 778.67 617.68 773.37 620.35 772.16 625.62 C 770.40 627.51 768.56 629.32 766.72 631.12 C 766.63 631.72 766.43 632.92 766.33 633.52 C 764.50 635.37 762.66 637.22 760.80 639.04 C 760.70 639.65 760.50 640.87 760.40 641.48 C 760.03 641.88 759.31 642.68 758.94 643.08 C 758.52 645.65 756.60 647.42 754.80 649.12 C 754.68 649.67 754.44 650.79 754.32 651.34 C 752.06 654.32 750.61 657.87 750.31 661.62 C 749.99 661.98 749.34 662.71 749.01 663.07 C 747.49 666.35 746.44 669.82 746.40 673.46 C 746.08 673.83 745.45 674.57 745.14 674.93 C 744.71 677.74 744.88 680.92 742.83 683.18 C 742.97 696.44 743.00 709.72 742.84 722.99 C 743.24 723.37 744.06 724.13 744.46 724.51 C 744.71 727.35 744.91 730.20 745.05 733.06 C 745.41 733.44 746.11 734.20 746.46 734.58 C 746.64 736.74 746.83 738.91 747.03 741.09 C 747.39 741.45 748.12 742.19 748.48 742.56 C 748.63 744.73 748.78 746.90 748.93 749.08 C 749.31 749.44 750.06 750.15 750.43 750.50 C 750.57 751.98 750.72 753.46 750.89 754.96 C 751.26 755.32 751.98 756.06 752.35 756.43 C 752.51 758.63 752.81 760.92 754.35 762.66 C 754.72 765.35 754.69 768.24 756.22 770.61 C 756.52 772.73 756.91 774.91 758.24 776.67 C 758.57 778.78 758.93 780.96 760.29 782.70 C 760.61 784.79 760.93 786.97 762.33 788.67 C 762.71 791.36 762.66 794.26 764.25 796.61 C 764.54 798.72 764.98 800.85 766.25 802.64 C 767.45 807.84 770.34 813.28 767.54 818.55 C 757.34 818.96 747.13 818.24 736.93 818.55 C 736.62 819.03 736.01 819.99 735.70 820.47 C 723.48 821.47 711.21 820.73 698.97 820.96 C 666.31 820.83 633.64 821.19 600.99 820.77 C 589.49 820.94 577.94 821.32 566.47 820.41 C 564.94 818.67 563.35 817.00 561.69 815.40 C 561.57 814.81 561.33 813.62 561.21 813.02 C 560.80 812.64 559.96 811.89 559.54 811.51 C 559.27 808.74 559.56 805.66 557.64 803.40 C 557.10 800.19 557.41 796.81 556.10 793.79 C 554.86 791.03 555.14 787.94 555.07 785.01 C 554.69 784.58 553.92 783.72 553.53 783.29 C 553.29 780.54 553.14 777.78 553.11 775.03 C 552.73 774.60 551.95 773.74 551.56 773.32 C 550.94 769.54 551.26 765.73 551.17 761.94 C 548.93 757.18 547.26 751.74 542.94 748.40 C 540.39 746.42 537.28 744.83 533.98 744.92 C 526.99 744.87 520.00 745.04 513.01 744.83 C 512.60 745.24 511.78 746.06 511.37 746.46 C 508.24 746.87 505.08 746.97 501.94 746.77 C 499.24 746.29 497.15 748.55 494.55 748.74 C 490.98 749.44 487.09 747.97 483.80 749.85 C 480.74 751.28 477.25 750.96 473.98 750.97 C 466.34 750.57 458.68 750.36 451.04 750.84 C 448.08 750.90 444.92 751.22 442.20 749.85 C 440.47 748.96 438.59 748.54 436.69 748.27 C 434.93 746.92 432.75 746.54 430.61 746.32 C 425.97 743.68 422.38 739.84 419.57 735.35 C 419.12 731.89 419.26 728.41 419.46 724.95 C 419.86 718.11 418.43 711.27 419.56 704.46 C 419.92 704.10 420.63 703.38 420.98 703.02 C 421.08 700.15 421.27 697.30 421.53 694.45 C 421.93 694.11 422.74 693.42 423.14 693.07 C 422.93 686.46 423.26 679.85 422.93 673.25 C 422.08 671.71 421.33 670.11 420.47 668.60 C 418.65 665.54 415.31 663.68 413.58 660.60 C 413.38 656.22 413.25 651.78 413.60 647.42 C 414.60 645.88 415.86 644.53 416.86 642.99 C 414.19 638.66 408.62 637.34 405.98 632.94 C 404.57 629.59 405.20 625.90 405.62 622.42 C 406.83 621.25 408.04 620.07 409.26 618.91 C 409.34 618.30 409.51 617.09 409.59 616.49 C 410.00 616.10 410.82 615.33 411.22 614.95 C 411.31 614.34 411.50 613.10 411.59 612.49 C 411.95 612.12 412.69 611.37 413.06 611.00 C 413.09 608.41 413.11 605.82 412.96 603.24 C 412.10 601.96 411.47 600.56 411.03 599.10 C 407.96 595.35 404.48 591.98 400.89 588.74 C 400.29 588.65 399.08 588.45 398.48 588.36 C 394.23 582.98 387.24 580.64 383.60 574.70 C 383.33 568.68 383.07 562.57 383.61 556.54 C 386.09 552.97 388.26 549.16 391.01 545.79 C 398.72 537.88 406.89 530.42 414.13 522.07 C 415.13 521.06 415.41 519.66 415.82 518.36 C 416.94 517.17 418.08 516.02 419.25 514.88 C 419.35 514.27 419.57 513.04 419.67 512.43 C 420.86 511.25 422.04 510.06 423.24 508.89 C 423.32 508.30 423.50 507.13 423.58 506.54 C 424.00 506.13 424.83 505.30 425.24 504.89 C 425.33 504.30 425.51 503.12 425.60 502.54 C 425.95 502.14 426.64 501.35 426.99 500.95 C 428.06 498.24 429.42 495.61 429.72 492.66 C 431.10 490.92 431.46 488.74 431.61 486.58 C 431.95 486.19 432.62 485.39 432.96 485.00 C 433.15 482.82 433.35 480.66 433.54 478.49 C 433.94 478.12 434.75 477.38 435.16 477.01 C 435.58 462.18 435.25 447.35 435.48 432.52 C 435.92 432.14 436.79 431.38 437.23 431.00 C 437.05 426.16 437.32 421.33 437.53 416.50 C 437.89 416.14 438.62 415.42 438.98 415.06 C 439.05 412.24 439.23 409.43 439.62 406.65 C 441.20 404.94 441.46 402.63 441.63 400.41 C 442.00 400.06 442.75 399.36 443.13 399.01 C 443.27 397.48 443.43 395.96 443.58 394.44 C 443.96 394.09 444.73 393.37 445.11 393.01 C 445.28 391.55 445.46 390.10 445.67 388.65 C 447.14 386.90 447.49 384.66 447.64 382.45 C 448.03 382.07 448.80 381.31 449.18 380.92 C 449.31 380.34 449.58 379.16 449.72 378.57 C 454.02 372.97 457.04 366.58 460.88 360.69 C 461.92 357.72 464.46 355.83 466.46 353.55 C 470.29 347.50 476.09 343.11 480.89 337.88 C 484.27 335.37 487.69 332.89 490.46 329.67 C 491.05 329.55 492.24 329.30 492.84 329.18 C 498.96 324.07 506.18 320.46 512.57 315.71 C 513.11 315.55 514.18 315.22 514.72 315.05 C 518.73 312.70 522.90 310.58 526.59 307.69 C 527.18 307.57 528.35 307.31 528.94 307.19 C 529.32 306.80 530.08 306.02 530.46 305.64 C 531.03 305.51 532.16 305.24 532.73 305.11 Z" />
<path fill="#3a4444" opacity="0.13" d=" M 203.73 334.64 C 205.15 332.87 205.85 330.63 207.45 329.01 L 207.47 330.47 C 207.46 331.33 207.45 332.19 207.45 333.05 C 207.03 333.50 206.20 334.39 205.78 334.84 C 204.94 337.56 203.97 340.24 203.04 342.93 C 202.36 345.59 201.80 348.29 201.09 350.95 C 200.74 352.19 200.51 353.45 200.38 354.74 C 200.12 360.82 200.46 366.91 200.26 373.00 C 200.16 376.22 199.25 379.60 200.75 382.66 C 202.14 386.94 203.15 391.33 204.40 395.66 C 203.44 395.01 202.49 394.36 201.55 393.71 C 201.39 390.78 201.47 387.61 199.65 385.13 C 197.45 382.20 198.55 378.39 198.76 375.05 C 200.04 366.24 198.38 357.33 199.56 348.51 C 199.92 348.14 200.64 347.41 201.00 347.04 C 201.18 344.90 201.38 342.77 201.65 340.65 C 203.17 338.99 203.44 336.76 203.73 334.64 Z" />
<path fill="#3a4444" opacity="0.13" d=" M 853.44 329.15 C 854.27 330.11 854.99 331.17 855.60 332.30 C 860.22 336.63 865.32 340.82 871.71 342.11 C 874.50 342.47 877.34 342.16 880.10 341.64 C 880.41 341.58 881.04 341.46 881.35 341.40 C 883.89 348.01 884.18 355.38 887.54 361.67 C 889.82 365.67 894.10 367.87 898.46 368.84 C 898.47 369.17 898.49 369.83 898.50 370.17 C 898.52 370.99 898.57 372.63 898.59 373.46 C 895.02 374.30 891.36 374.46 887.71 374.37 C 885.17 376.46 883.88 379.51 883.20 382.66 C 880.57 385.20 878.35 388.37 874.90 389.85 C 868.89 394.20 864.28 400.10 858.78 405.02 C 858.10 404.99 856.73 404.91 856.05 404.88 C 860.01 400.28 864.32 395.97 868.76 391.84 C 873.95 388.88 878.18 384.61 882.10 380.14 C 883.70 378.43 883.40 375.88 883.79 373.73 C 887.57 373.23 891.37 372.95 895.19 372.96 C 895.84 372.28 896.50 371.59 897.17 370.91 C 895.55 368.88 893.06 368.50 890.63 368.33 C 889.05 366.62 887.44 364.94 885.84 363.26 C 885.48 361.17 884.97 359.08 883.67 357.37 C 883.38 355.24 883.18 353.11 883.01 350.98 C 882.66 350.62 881.95 349.89 881.60 349.53 C 881.40 347.34 881.20 345.15 881.03 342.97 C 876.25 342.80 871.44 343.06 866.69 342.44 C 866.23 342.07 865.30 341.33 864.84 340.96 C 859.86 338.88 853.19 335.34 853.44 329.15 Z" />
<path fill="#3a4444" opacity="0.13" d=" M 136.72 371.54 C 138.33 371.52 139.95 371.49 141.56 371.45 C 143.34 374.59 145.46 377.52 148.00 380.09 C 149.46 381.29 149.65 383.21 149.97 384.95 L 150.20 386.30 C 149.47 386.30 148.00 386.29 147.27 386.29 C 143.82 386.34 140.30 386.00 136.94 386.97 C 135.44 387.54 133.93 388.06 132.42 388.61 C 132.29 388.04 132.04 386.91 131.92 386.34 C 132.31 385.81 133.09 384.75 133.47 384.22 C 133.44 384.73 133.39 385.73 133.36 386.23 C 134.49 385.98 135.63 385.76 136.75 385.45 C 140.81 385.19 144.88 384.91 148.96 384.95 C 145.24 381.30 142.85 376.62 139.35 372.80 C 137.71 374.07 136.05 375.30 134.32 376.45 C 134.71 374.63 135.77 373.09 136.72 371.54 Z" />
<path fill="#3a4444" opacity="0.13" d=" M 824.46 397.86 C 824.89 397.79 825.74 397.65 826.17 397.58 C 829.32 399.15 832.36 400.97 835.20 403.07 C 835.78 403.24 836.92 403.58 837.50 403.75 C 841.91 405.85 845.19 410.75 850.65 409.55 L 849.84 410.50 C 844.01 411.91 840.28 406.11 835.13 404.62 C 832.49 402.75 829.84 400.91 827.06 399.28 C 826.51 399.17 825.40 398.95 824.85 398.85 C 824.75 398.60 824.56 398.10 824.46 397.86 Z" />
<path fill="#3a4444" opacity="0.13" d=" M 947.66 399.63 C 948.03 398.76 948.57 398.01 949.26 397.36 C 950.17 399.14 951.18 400.87 952.28 402.56 C 952.48 403.95 952.70 405.35 952.95 406.75 C 953.88 408.00 954.51 409.42 954.99 410.91 C 955.33 411.28 956.00 412.03 956.34 412.40 C 956.45 413.04 956.67 414.31 956.78 414.95 C 957.18 415.30 958.00 416.00 958.40 416.35 C 958.52 417.90 958.65 419.46 958.80 421.03 C 959.25 421.41 960.14 422.17 960.59 422.56 C 960.53 424.20 960.46 425.84 960.41 427.49 C 959.85 426.82 959.31 426.16 958.78 425.50 C 958.25 422.49 957.07 419.66 956.19 416.75 C 955.76 416.39 954.91 415.66 954.48 415.30 C 954.50 414.67 954.54 413.42 954.57 412.79 C 954.11 412.43 953.19 411.71 952.73 411.35 C 952.48 409.15 951.78 407.05 950.70 405.13 C 950.61 404.61 950.42 403.55 950.32 403.03 C 949.41 401.90 948.51 400.77 947.66 399.63 Z" />
<path fill="#3a4444" opacity="0.13" d=" M 960.54 431.43 C 960.49 430.13 960.44 428.84 960.41 427.55 C 963.74 427.78 962.30 431.26 962.41 433.42 C 961.77 432.75 961.15 432.09 960.54 431.43 Z" />
<path fill="#3a4444" opacity="0.13" d=" M 404.95 441.95 C 406.94 439.01 409.59 436.62 411.77 433.84 C 413.71 436.04 411.08 438.14 409.63 439.61 C 406.93 442.04 404.97 445.10 403.14 448.20 C 395.72 455.45 388.32 462.76 381.11 470.23 C 379.03 472.21 376.24 473.20 374.15 475.16 C 371.47 477.37 369.52 481.04 365.51 480.76 C 365.61 480.35 365.83 479.54 365.94 479.13 L 366.23 478.66 C 369.07 477.58 370.88 475.03 373.33 473.36 C 379.69 469.19 384.54 463.26 390.03 458.07 C 395.06 452.76 400.81 448.05 404.95 441.95 Z" />
<path fill="#3a4444" opacity="0.13" d=" M 962.61 437.20 C 962.52 435.95 962.45 434.71 962.41 433.48 C 965.90 434.14 964.49 438.28 964.45 440.73 C 963.84 439.54 963.24 438.36 962.61 437.20 Z" />
<path fill="#3a4444" opacity="0.13" d=" M 218.63 448.73 C 218.89 448.69 219.42 448.60 219.69 448.55 C 220.49 448.53 222.08 448.47 222.88 448.45 C 219.74 451.36 220.51 455.58 221.06 459.38 C 228.37 457.02 236.05 456.54 243.66 457.50 L 242.32 458.29 C 237.88 458.60 233.27 457.68 228.98 459.14 C 226.33 459.88 223.59 460.62 220.81 460.30 C 219.20 459.27 219.78 457.14 219.40 455.57 L 218.58 455.55 C 218.60 453.27 218.61 451.00 218.63 448.73 Z" />
<path fill="#3a4444" opacity="0.13" d=" M 257.73 475.53 C 260.25 475.84 262.77 476.26 265.29 476.61 C 265.65 477.05 266.38 477.94 266.74 478.38 C 267.28 478.43 268.36 478.52 268.90 478.57 C 276.15 483.71 282.90 489.50 289.63 495.30 C 295.27 498.88 299.50 504.20 305.14 507.79 C 309.53 510.75 312.94 516.77 319.03 515.56 C 322.61 512.19 326.85 509.66 330.89 506.89 C 331.33 506.75 332.21 506.46 332.64 506.32 L 332.70 505.43 C 336.02 502.04 340.03 499.48 343.98 496.89 C 347.99 494.36 351.12 490.70 355.12 488.16 C 358.48 486.09 360.71 482.52 364.51 481.14 C 363.31 486.48 357.32 488.38 353.61 491.71 C 350.57 494.90 346.82 497.24 343.43 500.01 C 338.58 501.66 336.06 506.53 331.55 508.77 C 327.68 512.38 322.52 514.16 319.02 518.26 C 318.51 517.88 317.49 517.13 316.97 516.76 C 316.46 517.12 315.43 517.83 314.92 518.19 C 310.28 514.66 305.61 511.22 301.45 507.12 C 296.04 504.89 293.33 499.03 287.93 496.77 C 284.77 495.57 283.19 492.36 280.77 490.22 C 278.28 487.52 274.58 486.40 272.16 483.62 C 270.18 481.38 267.19 480.64 264.78 479.01 C 264.24 478.80 263.15 478.39 262.61 478.18 C 261.51 477.58 260.37 477.07 259.19 476.66 C 259.13 479.78 257.61 482.43 255.49 484.61 C 254.13 484.48 252.78 484.35 251.43 484.24 C 253.89 483.63 256.31 482.50 257.50 480.12 C 257.63 478.59 257.68 477.05 257.73 475.53 Z" />
<path fill="#3a4444" opacity="0.13" d=" M 835.01 571.00 C 835.84 568.75 833.86 563.61 837.66 564.09 C 837.55 564.80 837.32 566.22 837.21 566.93 C 836.32 569.56 835.75 572.28 835.17 575.00 C 834.32 577.61 833.77 580.30 833.13 582.97 C 831.85 586.27 832.55 589.86 832.12 593.30 L 831.37 594.30 C 830.59 589.71 831.13 585.06 831.58 580.48 C 831.94 580.09 832.66 579.30 833.01 578.91 C 833.20 576.75 833.41 574.59 833.61 572.43 C 833.96 572.08 834.66 571.36 835.01 571.00 Z" />
<path fill="#3a4444" opacity="0.13" d=" M 842.10 594.32 C 842.81 594.44 844.25 594.67 844.97 594.79 C 846.12 595.16 847.30 595.52 848.51 595.71 C 849.60 595.76 850.69 595.84 851.80 595.94 C 852.56 600.94 852.24 606.00 852.27 611.04 C 852.26 623.35 852.32 635.66 852.25 647.98 C 852.25 650.09 852.28 652.24 852.76 654.32 C 853.56 657.43 854.31 660.58 854.28 663.83 C 854.24 666.32 854.16 668.82 854.24 671.33 C 852.16 667.54 853.32 663.03 853.39 658.93 C 852.92 658.59 851.98 657.89 851.51 657.55 C 850.48 637.40 851.33 617.19 851.04 597.02 C 848.15 596.83 845.24 596.78 842.37 596.42 C 842.30 595.89 842.16 594.84 842.10 594.32 Z" />
<path fill="#3a4444" opacity="0.13" d=" M 952.67 610.51 C 956.13 610.15 959.70 610.07 962.98 611.45 L 963.75 611.47 C 964.10 611.47 964.82 611.47 965.18 611.47 C 963.93 613.84 960.65 612.19 958.54 612.50 C 958.14 612.07 957.35 611.22 956.96 610.80 C 955.60 612.18 954.25 613.56 952.92 614.96 C 953.05 635.64 952.86 656.32 952.88 677.01 C 953.28 677.38 954.08 678.14 954.48 678.51 C 954.63 680.68 954.78 682.85 954.95 685.03 C 955.31 685.40 956.01 686.13 956.37 686.50 C 956.75 690.80 959.16 694.65 959.04 699.05 C 959.37 699.42 960.03 700.16 960.35 700.52 C 960.54 702.70 960.86 704.95 962.36 706.67 C 962.63 708.78 962.83 710.91 963.03 713.05 C 963.37 713.41 964.05 714.14 964.39 714.50 C 964.46 716.73 964.90 718.94 966.35 720.73 C 966.64 722.81 966.86 724.91 967.10 727.02 C 967.41 727.41 968.05 728.19 968.36 728.58 C 968.54 730.72 968.85 732.94 970.34 734.62 C 970.63 736.76 970.86 738.91 971.10 741.07 C 971.41 741.43 972.02 742.16 972.33 742.52 C 972.57 744.68 972.87 746.93 974.35 748.65 C 974.64 750.77 974.88 752.89 975.11 755.04 C 975.45 755.41 976.12 756.15 976.45 756.52 C 976.62 758.69 976.79 760.87 976.96 763.05 C 977.32 763.40 978.03 764.11 978.39 764.46 C 978.54 766.67 978.79 768.98 980.39 770.69 C 980.63 772.80 980.82 774.92 981.01 777.05 C 981.35 777.42 982.04 778.14 982.38 778.51 C 982.48 780.71 982.91 782.91 984.35 784.69 C 984.63 787.22 984.88 789.81 985.82 792.23 C 987.22 795.65 986.82 799.41 986.91 803.03 C 987.32 803.40 988.14 804.15 988.56 804.52 C 988.54 806.80 988.52 809.09 988.49 811.38 C 983.70 815.36 979.85 820.35 974.99 824.24 L 973.89 823.95 L 973.93 822.71 C 978.52 818.56 983.75 814.96 987.55 810.04 C 986.60 803.14 986.50 795.92 983.66 789.43 C 982.50 784.54 980.43 779.90 979.70 774.91 C 978.06 767.68 976.02 760.51 973.68 753.47 C 966.66 729.34 959.83 705.17 953.01 680.99 C 951.19 675.50 951.79 669.69 951.73 664.02 C 951.69 657.74 951.78 651.45 951.61 645.17 C 952.17 633.63 950.81 621.98 952.67 610.51 Z" />
<path fill="#3a4444" opacity="0.13" d=" M 66.37 642.47 C 67.36 642.47 68.35 642.49 69.34 642.51 C 69.70 643.03 70.40 644.06 70.76 644.58 C 71.41 644.55 72.71 644.49 73.36 644.47 C 73.71 644.97 74.41 645.97 74.76 646.48 C 75.34 646.52 76.50 646.62 77.08 646.67 C 78.96 647.67 80.98 648.36 83.04 648.88 C 85.00 649.72 87.03 650.37 89.11 650.85 C 91.00 651.68 92.95 652.37 94.91 653.02 C 101.04 654.72 107.56 652.52 113.63 654.59 C 113.70 654.14 113.84 653.23 113.91 652.77 C 114.05 653.52 114.32 655.01 114.46 655.75 C 116.36 655.70 118.26 655.66 120.15 655.62 C 120.14 662.15 122.91 668.33 122.34 674.91 C 122.17 683.30 122.29 691.69 122.31 700.09 C 122.26 704.51 122.55 709.02 121.38 713.35 C 118.81 722.40 121.92 732.09 118.90 741.06 C 116.70 745.12 118.19 749.75 118.28 754.09 C 118.36 759.17 118.51 764.39 116.78 769.27 C 115.27 772.39 115.98 775.85 116.29 779.15 C 116.48 784.51 116.37 790.02 114.12 795.00 C 113.21 797.92 111.04 801.74 113.55 804.44 C 118.04 808.34 123.50 810.92 128.41 814.24 C 132.29 818.56 138.33 818.28 143.63 818.34 C 143.95 813.66 145.87 807.75 141.98 804.06 C 137.44 799.87 132.55 796.05 127.53 792.46 C 128.47 788.28 130.13 784.30 131.26 780.18 C 134.00 768.98 138.39 758.27 141.50 747.17 C 143.59 738.43 147.04 730.11 149.44 721.46 C 151.31 713.62 154.24 706.08 156.64 698.40 C 158.12 693.95 157.38 689.16 158.60 684.66 C 159.69 680.46 159.77 676.10 160.79 671.89 C 161.99 667.08 161.69 662.06 162.75 657.23 C 164.30 657.53 165.85 657.35 167.34 656.86 C 168.71 668.73 172.70 680.14 174.22 691.99 C 174.32 696.24 174.13 700.55 175.39 704.68 C 176.84 709.63 175.69 714.89 177.18 719.84 C 178.10 723.21 178.42 726.70 178.32 730.20 C 177.40 732.11 177.07 734.59 179.02 736.01 C 179.68 739.29 180.23 742.60 180.26 745.96 C 180.05 752.13 182.89 757.95 182.31 764.16 C 181.40 766.00 181.33 768.15 182.54 769.89 C 184.33 774.01 184.28 778.56 184.33 782.97 C 184.28 787.73 186.29 792.21 186.35 796.96 C 186.46 800.10 184.82 802.92 184.47 806.00 C 184.19 808.46 184.24 810.94 184.18 813.42 C 188.86 813.65 193.61 813.53 198.16 814.83 C 203.23 816.28 208.54 815.64 213.73 815.70 C 213.73 813.68 213.73 811.67 213.76 809.67 C 211.93 807.85 209.86 806.24 207.27 805.78 C 204.11 802.58 198.14 801.29 197.77 796.05 C 197.79 791.95 199.61 788.09 199.65 783.99 C 199.79 779.30 199.42 774.53 200.70 769.96 C 202.73 762.32 200.64 754.22 203.04 746.63 C 204.16 743.80 203.93 740.76 203.70 737.80 C 203.61 734.07 204.00 730.34 205.00 726.75 C 207.08 723.79 205.95 720.18 205.73 716.88 C 205.50 712.89 205.94 708.90 207.00 705.06 C 208.52 699.47 206.83 693.57 208.53 688.02 C 210.08 684.42 210.54 680.53 209.76 676.69 C 209.58 671.86 209.59 666.90 211.37 662.32 C 212.45 660.74 212.35 658.71 211.86 656.96 C 211.78 655.51 211.71 654.07 211.65 652.64 C 214.00 652.39 216.34 652.14 218.70 652.05 C 222.69 651.98 226.76 652.37 230.66 651.32 L 230.69 652.57 C 226.14 652.87 221.59 652.59 217.05 652.67 C 215.07 652.43 213.05 653.94 212.98 655.99 C 212.86 659.14 212.86 662.32 212.37 665.46 C 211.69 666.54 210.25 667.44 210.62 668.92 C 211.04 675.31 210.86 681.72 210.43 688.11 C 209.00 688.54 208.42 689.50 208.68 691.00 C 208.96 696.56 209.25 702.15 208.45 707.70 C 208.00 708.02 207.10 708.67 206.65 708.99 C 206.93 715.85 206.78 722.70 206.51 729.56 C 206.03 729.90 205.07 730.58 204.59 730.93 C 204.92 737.15 205.32 743.40 204.46 749.61 C 204.00 749.97 203.08 750.70 202.62 751.06 C 202.81 757.89 203.43 764.74 202.48 771.55 C 202.01 771.91 201.07 772.61 200.60 772.96 C 200.89 779.15 201.42 785.39 200.37 791.54 C 197.43 793.56 198.65 797.18 200.95 799.15 C 202.44 799.43 203.96 799.83 204.98 801.06 C 207.48 803.68 210.95 804.91 214.31 806.05 C 214.39 809.41 214.56 812.77 214.79 816.13 C 208.73 816.44 202.63 817.42 196.58 816.47 C 196.20 816.00 195.45 815.07 195.07 814.60 C 191.21 814.95 187.30 815.27 183.45 814.62 C 182.80 809.93 182.89 805.19 183.57 800.51 C 183.92 800.15 184.61 799.44 184.96 799.09 C 185.08 797.04 185.20 795.00 185.31 792.97 C 184.87 792.62 184.00 791.91 183.56 791.56 C 182.80 786.04 182.96 780.48 183.37 774.95 C 182.91 774.60 181.99 773.89 181.53 773.53 C 180.77 768.02 181.07 762.46 181.44 756.94 C 180.96 756.60 180.01 755.93 179.53 755.59 C 178.90 750.73 178.97 745.82 179.40 740.95 C 178.94 740.62 178.01 739.94 177.54 739.60 C 176.77 734.07 177.04 728.50 177.45 722.96 C 176.97 722.62 176.00 721.92 175.52 721.58 C 174.89 716.72 174.98 711.82 175.37 706.96 C 174.91 706.61 173.98 705.91 173.52 705.55 C 172.77 700.02 173.05 694.43 173.44 688.88 C 172.95 688.57 171.96 687.93 171.47 687.61 C 171.15 684.37 171.71 680.90 170.19 677.91 C 169.11 675.73 169.16 673.25 168.91 670.90 C 168.57 670.55 167.90 669.85 167.56 669.50 C 167.25 666.59 167.04 663.67 167.06 660.75 C 165.68 658.91 164.06 659.33 162.54 660.78 C 163.11 665.03 163.01 669.33 162.45 673.57 C 162.04 673.92 161.21 674.61 160.79 674.95 C 160.76 679.02 161.72 683.83 158.80 687.19 C 158.95 691.23 159.10 695.29 158.39 699.29 C 156.87 700.94 156.63 703.19 156.27 705.32 C 154.93 707.09 154.56 709.27 154.26 711.42 C 152.76 713.13 152.52 715.39 152.37 717.58 C 152.04 717.94 151.38 718.66 151.05 719.02 C 150.85 721.12 150.64 723.23 150.37 725.34 C 148.89 727.00 148.59 729.21 148.30 731.34 C 146.94 733.06 146.58 735.22 146.26 737.33 C 144.89 739.10 144.52 741.30 144.35 743.48 C 144.02 743.85 143.36 744.57 143.03 744.93 C 142.84 747.06 142.64 749.20 142.38 751.34 C 140.86 752.99 140.59 755.22 140.26 757.35 C 138.90 759.09 138.58 761.28 138.25 763.41 C 136.83 765.16 136.50 767.38 136.37 769.58 C 136.00 769.92 135.26 770.62 134.89 770.97 C 134.72 772.49 134.57 774.03 134.41 775.57 C 134.08 775.92 133.41 776.62 133.08 776.96 C 132.86 779.08 132.63 781.21 132.33 783.33 C 130.46 785.63 130.84 788.84 129.20 791.26 C 130.91 793.54 133.22 795.15 135.85 796.22 C 138.98 798.68 141.30 802.04 144.37 804.60 C 144.37 809.16 145.87 813.95 144.39 818.38 C 139.82 819.36 135.08 819.03 130.49 818.38 C 127.93 815.20 124.18 813.48 120.42 812.15 C 117.94 809.32 114.45 807.83 111.53 805.56 C 111.43 802.55 111.32 799.54 111.54 796.55 C 113.35 795.01 113.51 792.65 113.59 790.45 C 114.03 790.10 114.93 789.41 115.38 789.06 C 115.04 781.51 115.06 773.95 115.49 766.40 C 116.00 766.08 117.03 765.43 117.54 765.11 C 116.91 756.23 117.30 747.35 117.44 738.46 C 117.94 738.11 118.94 737.42 119.44 737.07 C 119.24 728.85 118.47 720.60 119.54 712.40 C 120.02 712.07 120.98 711.39 121.47 711.06 C 120.95 696.35 120.76 681.61 121.46 666.91 C 120.97 666.58 120.00 665.91 119.51 665.58 C 119.28 662.77 119.06 659.96 118.90 657.16 C 116.10 656.98 113.11 656.97 110.85 655.06 C 104.78 654.77 98.66 655.24 92.62 654.33 C 90.90 652.86 88.70 652.46 86.50 652.36 C 86.11 651.98 85.34 651.21 84.95 650.83 C 83.52 650.68 82.10 650.54 80.67 650.38 C 77.17 647.65 72.23 647.92 68.70 645.03 C 67.21 644.54 65.71 643.95 64.80 642.57 L 66.37 642.47 Z" />
<path fill="#3a4444" opacity="0.13" d=" M 904.68 675.30 C 904.94 675.44 905.45 675.74 905.71 675.89 C 909.20 682.77 912.75 689.63 916.16 696.57 C 933.74 732.52 951.73 768.27 969.55 804.11 C 967.60 808.12 964.45 811.62 963.50 816.07 C 965.59 819.26 969.19 821.01 972.50 822.70 C 970.82 826.02 968.64 821.92 966.81 820.88 C 965.80 820.62 964.82 820.33 963.86 820.01 C 963.15 816.88 963.53 813.64 963.57 810.47 C 964.91 809.09 966.51 807.85 967.40 806.10 C 967.52 804.40 967.43 802.70 967.39 801.02 C 966.93 800.66 966.00 799.92 965.54 799.55 C 965.47 798.92 965.34 797.67 965.27 797.05 C 964.84 796.66 963.98 795.89 963.55 795.51 C 963.47 794.89 963.31 793.65 963.23 793.03 C 962.82 792.65 961.99 791.91 961.58 791.53 C 961.50 790.91 961.32 789.67 961.24 789.05 C 960.82 788.66 959.98 787.87 959.56 787.48 C 959.48 786.88 959.33 785.66 959.25 785.06 C 958.83 784.69 958.00 783.94 957.58 783.57 C 957.49 782.96 957.31 781.72 957.22 781.11 C 956.82 780.71 956.00 779.91 955.59 779.52 C 955.51 778.90 955.33 777.66 955.25 777.04 C 954.82 776.65 953.98 775.88 953.55 775.49 C 953.48 774.90 953.34 773.72 953.28 773.13 C 952.84 772.72 951.98 771.90 951.55 771.49 C 951.47 770.88 951.30 769.65 951.22 769.04 C 950.81 768.66 950.00 767.91 949.60 767.53 C 949.50 766.91 949.30 765.68 949.20 765.06 C 948.80 764.67 948.00 763.89 947.60 763.50 C 947.49 762.88 947.29 761.66 947.18 761.05 C 946.79 760.68 946.01 759.95 945.62 759.58 C 945.52 758.95 945.31 757.69 945.21 757.07 C 944.81 756.69 944.01 755.93 943.61 755.55 C 943.52 754.94 943.34 753.74 943.25 753.13 C 942.83 752.72 942.01 751.90 941.60 751.48 C 941.51 750.87 941.33 749.65 941.24 749.03 C 940.82 748.65 939.99 747.89 939.58 747.51 C 939.49 746.92 939.33 745.72 939.24 745.12 C 938.84 744.72 938.03 743.92 937.62 743.52 C 937.48 742.94 937.20 741.79 937.07 741.21 C 936.12 740.00 935.46 738.62 935.01 737.17 C 934.67 736.75 933.99 735.91 933.64 735.49 C 933.53 734.89 933.30 733.67 933.19 733.07 C 932.80 732.68 932.01 731.91 931.61 731.52 C 931.51 730.91 931.30 729.69 931.20 729.08 C 930.80 728.68 930.00 727.89 929.60 727.49 C 929.51 726.89 929.33 725.69 929.23 725.08 C 928.83 724.69 928.03 723.92 927.62 723.53 C 927.53 722.92 927.33 721.70 927.23 721.09 C 926.83 720.70 926.03 719.93 925.63 719.54 C 925.53 718.93 925.33 717.70 925.23 717.09 C 924.82 716.70 923.99 715.92 923.58 715.53 C 923.48 714.92 923.30 713.71 923.20 713.11 C 922.83 712.70 922.10 711.88 921.73 711.47 C 918.81 703.88 914.60 696.86 911.17 689.50 C 909.13 684.68 904.93 680.79 904.68 675.30 Z" />
<path fill="#3a4444" opacity="0.13" d=" M 899.26 680.23 L 900.17 678.88 C 900.36 680.39 900.47 681.92 900.56 683.45 C 899.67 684.45 898.23 685.39 898.58 686.96 C 898.95 695.11 898.99 703.29 898.41 711.44 C 897.73 712.54 896.29 713.42 896.61 714.91 C 896.79 722.43 897.53 730.00 896.40 737.49 C 894.97 738.58 894.24 740.19 894.58 742.01 C 895.14 749.85 894.62 757.70 894.54 765.56 C 894.04 765.89 893.04 766.55 892.54 766.88 C 892.85 775.13 893.07 783.39 892.49 791.65 C 892.01 791.98 891.06 792.64 890.58 792.97 C 890.45 798.34 891.17 803.72 890.82 809.10 C 890.65 811.26 888.84 812.72 887.61 814.33 C 884.64 815.12 881.84 816.44 879.35 818.24 C 877.83 818.84 876.34 819.56 874.74 819.85 L 874.29 819.46 L 874.36 818.81 L 874.70 818.64 C 879.77 816.05 884.97 813.69 889.72 810.53 C 890.15 805.02 889.58 799.50 889.99 794.00 C 890.29 790.90 891.99 788.09 892.12 784.98 C 891.74 777.81 891.51 770.58 892.31 763.44 C 892.47 763.26 892.79 762.91 892.95 762.74 L 893.94 761.69 C 894.68 757.77 893.94 753.81 893.72 749.89 C 893.59 744.76 893.65 739.56 895.07 734.60 C 896.38 730.78 895.84 726.72 895.70 722.78 C 895.57 717.76 895.74 712.66 897.33 707.85 C 898.64 703.77 897.94 699.40 897.64 695.22 C 897.61 690.19 897.60 685.04 899.26 680.23 Z" />
</g>
<g id="#002b54ff">
<path fill="#002b54" opacity="1.00" d=" M 569.52 292.47 C 578.05 289.83 586.81 288.12 595.58 286.51 C 593.08 289.53 588.89 288.75 585.49 289.65 C 580.13 290.45 575.05 293.41 569.52 292.47 Z" />
<path fill="#002b54" opacity="1.00" d=" M 882.31 294.47 C 888.24 294.78 893.94 292.43 899.89 293.08 C 903.95 292.92 907.35 295.46 911.19 296.32 C 916.30 297.50 921.44 298.60 926.46 300.13 C 932.07 301.61 935.98 306.26 939.49 310.57 C 943.93 317.06 943.35 325.22 943.75 332.70 C 943.72 332.90 943.65 333.29 943.62 333.49 C 939.81 343.99 932.43 352.92 923.36 359.33 C 923.04 357.52 922.79 355.70 922.65 353.88 C 923.58 348.75 924.85 343.41 923.63 338.24 C 921.88 334.21 917.03 332.94 913.03 332.65 C 905.25 332.38 897.28 333.74 890.30 337.28 C 887.34 338.71 884.40 340.19 881.35 341.40 C 881.04 341.46 880.41 341.58 880.10 341.64 C 875.02 342.54 870.18 340.83 865.74 338.52 C 865.22 338.54 864.18 338.57 863.66 338.59 C 861.35 337.03 858.72 335.56 857.46 332.96 C 856.86 331.42 855.77 330.14 854.38 329.26 C 853.92 327.12 853.46 324.95 852.43 323.01 C 852.20 319.91 852.13 316.80 852.42 313.71 C 853.44 310.42 853.03 306.82 854.35 303.58 C 856.34 301.28 858.86 299.54 861.63 298.28 C 862.68 298.22 863.76 298.15 864.85 298.09 C 866.85 296.41 870.27 296.42 872.54 297.60 C 875.19 296.08 878.29 295.70 881.15 294.71 C 881.44 294.65 882.02 294.53 882.31 294.47 Z" />
<path fill="#002b54" opacity="1.00" d=" M 143.97 315.01 C 148.41 310.38 154.11 305.44 161.04 306.58 C 168.05 307.64 172.56 313.57 175.76 319.38 L 175.78 319.49 C 175.76 320.78 175.74 322.06 175.70 323.35 C 179.62 326.51 183.88 329.83 185.58 334.78 C 186.85 338.51 189.25 341.97 189.50 345.98 C 188.85 349.82 187.18 353.49 187.37 357.48 C 186.98 361.31 186.09 365.20 186.84 369.04 C 188.10 371.71 190.55 373.62 191.89 376.28 C 191.81 380.24 191.55 384.20 191.66 388.16 C 190.37 388.72 189.09 389.28 187.79 389.82 C 182.90 389.80 177.54 389.47 173.39 386.64 C 170.47 384.31 172.48 380.51 173.43 377.69 C 180.76 368.24 181.61 355.48 179.46 344.11 C 178.64 340.00 176.21 336.47 173.31 333.54 C 165.42 341.70 152.31 340.44 144.35 348.39 C 140.40 352.30 141.80 358.11 142.04 363.03 C 142.20 366.76 138.24 368.42 136.35 371.11 C 133.72 373.88 133.21 377.74 133.11 381.38 L 131.99 380.80 C 131.75 379.91 131.53 379.02 131.32 378.13 C 131.57 380.66 131.67 383.20 131.73 385.75 C 126.22 385.28 120.63 385.87 115.17 385.07 C 112.06 383.49 109.45 380.92 107.55 378.02 C 106.45 373.70 107.20 369.12 108.52 364.93 C 109.98 359.26 116.16 356.54 117.76 350.93 C 119.28 345.50 118.54 339.76 118.15 334.22 C 118.17 333.84 118.21 333.09 118.23 332.71 C 120.62 329.31 122.61 324.96 126.97 323.76 C 133.04 321.77 139.43 319.75 143.97 315.01 Z" />
<path fill="#002b54" opacity="1.00" d=" M 438.12 424.07 L 438.76 424.02 C 438.87 426.69 439.24 429.35 439.14 432.04 C 438.81 433.24 439.48 435.80 437.38 435.54 C 437.75 431.72 438.51 427.91 438.12 424.07 Z" />
<path fill="#002b54" opacity="1.00" d=" M 852.83 596.11 C 870.28 598.76 887.80 601.02 905.28 603.42 C 920.69 605.54 936.08 607.72 951.49 609.82 C 951.57 621.60 951.32 633.41 951.61 645.17 C 951.78 651.45 951.69 657.74 951.73 664.02 C 951.79 669.69 951.19 675.50 953.01 680.99 C 959.83 705.17 966.66 729.34 973.68 753.47 C 973.44 760.32 976.72 766.62 978.01 773.25 C 978.43 773.66 979.28 774.50 979.70 774.91 C 980.43 779.90 982.50 784.54 983.66 789.43 C 983.80 796.29 987.09 803.08 985.16 809.98 C 981.70 814.40 977.13 817.79 973.09 821.66 C 970.22 819.97 967.17 818.39 965.01 815.80 C 966.16 813.42 967.98 811.43 968.93 808.95 C 969.29 808.51 970.01 807.64 970.37 807.20 C 970.35 805.12 970.33 803.06 970.29 801.00 C 967.34 797.19 965.59 792.69 963.42 788.45 C 953.18 768.02 943.01 747.57 932.76 727.15 C 924.64 711.15 917.09 694.87 908.86 678.93 C 906.81 675.12 905.58 670.70 902.19 667.78 C 901.53 666.44 900.89 665.11 900.24 663.79 C 899.78 669.26 899.75 674.76 899.26 680.23 C 897.60 685.04 897.61 690.19 897.64 695.22 C 897.16 699.40 896.80 703.64 897.33 707.85 C 895.74 712.66 895.57 717.76 895.70 722.78 C 895.51 726.72 895.26 730.65 895.07 734.60 C 893.65 739.56 893.59 744.76 893.72 749.89 C 893.59 754.17 893.31 758.46 892.95 762.74 C 892.79 762.91 892.47 763.26 892.31 763.44 C 892.10 763.67 891.66 764.13 891.45 764.36 C 889.98 772.91 893.58 782.09 889.38 790.15 C 888.77 796.04 889.73 802.02 888.92 807.91 C 888.52 809.32 887.38 810.35 886.63 811.57 C 881.40 812.88 877.04 818.43 871.32 816.75 C 869.15 814.90 866.49 813.00 865.76 810.13 C 866.60 806.11 870.67 803.86 873.39 801.05 C 872.93 798.05 872.45 795.05 872.16 792.04 C 871.80 785.70 869.56 779.58 870.07 773.17 C 869.84 772.85 869.38 772.21 869.15 771.90 C 869.31 762.45 866.75 753.34 866.09 743.99 C 865.53 740.66 864.52 737.41 864.49 734.02 C 864.43 729.25 862.63 724.72 862.49 719.97 C 862.39 715.19 860.63 710.65 860.51 705.89 C 860.36 701.47 859.17 697.15 859.27 692.72 C 859.08 692.64 858.71 692.47 858.52 692.39 C 858.79 687.15 856.34 682.27 856.49 677.06 C 856.67 672.52 855.20 668.20 854.28 663.83 C 854.31 660.58 853.56 657.43 852.76 654.32 C 852.15 634.93 853.20 615.51 852.83 596.11 Z" />
<path fill="#002b54" opacity="1.00" d=" M 208.89 653.11 C 212.04 652.62 215.05 651.51 218.05 650.47 C 218.21 650.87 218.54 651.65 218.70 652.05 C 216.34 652.14 214.00 652.39 211.65 652.64 C 211.71 654.07 211.78 655.51 211.86 656.96 C 210.63 658.49 210.44 660.57 211.37 662.32 C 209.59 666.90 209.58 671.86 209.76 676.69 C 209.38 680.46 209.03 684.25 208.53 688.02 C 206.83 693.57 208.52 699.47 207.00 705.06 C 205.94 708.90 205.50 712.89 205.73 716.88 C 205.61 720.17 205.28 723.46 205.00 726.75 C 204.00 730.34 203.61 734.07 203.70 737.80 C 203.52 740.74 203.27 743.68 203.04 746.63 C 200.64 754.22 202.73 762.32 200.70 769.96 C 199.42 774.53 199.79 779.30 199.65 783.99 C 199.61 788.09 197.79 791.95 197.77 796.05 C 198.14 801.29 204.11 802.58 207.27 805.78 C 209.86 806.24 211.93 807.85 213.76 809.67 C 213.73 811.67 213.73 813.68 213.73 815.70 C 208.54 815.64 203.23 816.28 198.16 814.83 C 193.61 813.53 188.86 813.65 184.18 813.42 C 184.24 810.94 184.19 808.46 184.47 806.00 C 184.82 802.92 186.46 800.10 186.35 796.96 C 186.29 792.21 184.28 787.73 184.33 782.97 C 184.28 778.56 184.33 774.01 182.54 769.89 C 183.69 768.08 183.31 765.91 182.31 764.16 C 182.89 757.95 180.05 752.13 180.26 745.96 C 180.23 742.60 179.68 739.29 179.02 736.01 C 179.45 734.02 179.13 732.02 178.32 730.20 C 178.42 726.70 178.10 723.21 177.18 719.84 C 175.69 714.89 176.84 709.63 175.39 704.68 C 174.13 700.55 174.32 696.24 174.22 691.99 C 172.70 680.14 168.71 668.73 167.34 656.86 C 181.12 655.11 195.07 654.63 208.89 653.11 Z" />
<path fill="#002b54" opacity="1.00" d=" M 120.15 655.62 C 128.77 655.48 137.37 656.24 145.98 656.41 C 151.57 656.69 157.19 656.47 162.75 657.23 C 161.69 662.06 161.99 667.08 160.79 671.89 C 159.77 676.10 159.69 680.46 158.60 684.66 C 157.38 689.16 158.12 693.95 156.64 698.40 C 154.24 706.08 151.31 713.62 149.44 721.46 C 147.04 730.11 143.59 738.43 141.50 747.17 C 138.39 758.27 134.00 768.98 131.26 780.18 C 130.13 784.30 128.47 788.28 127.53 792.46 C 127.72 793.67 128.03 795.02 129.25 795.63 C 133.75 798.74 138.04 802.24 141.65 806.38 C 144.62 809.38 142.67 813.84 142.58 817.49 C 137.56 817.74 133.13 815.41 128.41 814.24 C 123.50 810.92 118.04 808.34 113.55 804.44 C 111.04 801.74 113.21 797.92 114.12 795.00 C 116.37 790.02 116.48 784.51 116.29 779.15 C 116.45 775.85 116.66 772.56 116.78 769.27 C 118.51 764.39 118.36 759.17 118.28 754.09 C 118.42 749.74 118.78 745.40 118.90 741.06 C 121.92 732.09 118.81 722.40 121.38 713.35 C 122.55 709.02 122.26 704.51 122.31 700.09 C 122.79 691.69 123.81 683.28 122.34 674.91 C 122.91 668.33 120.14 662.15 120.15 655.62 Z" />
<path fill="#002b54" opacity="1.00" d=" M 420.58 709.36 C 421.20 706.43 421.94 703.53 422.42 700.58 C 423.05 703.65 423.83 707.46 420.58 709.36 Z" />
<path fill="#002b54" opacity="1.00" d=" M 478.71 749.38 C 481.33 745.48 486.44 747.13 490.28 747.59 C 486.35 747.65 482.53 748.59 478.71 749.38 Z" />
<path fill="#002b54" opacity="1.00" d=" M 558.58 798.51 C 561.57 801.18 560.86 805.49 562.20 808.94 C 563.79 813.61 567.66 818.22 572.96 818.34 C 580.30 818.63 587.65 818.05 594.99 818.29 C 600.48 818.52 606.06 817.87 611.47 819.14 C 597.74 820.19 583.96 818.83 570.21 819.41 C 561.49 816.51 559.86 806.38 558.58 798.51 Z" />
</g>
<g id="#00556bff">
<path fill="#00556b" opacity="1.00" d=" M 595.58 286.51 C 610.38 285.97 625.22 286.50 640.04 286.25 C 645.05 285.91 649.73 288.08 654.67 288.43 C 657.22 291.31 661.17 290.45 664.56 290.43 C 672.89 292.17 680.95 294.88 688.97 297.67 C 693.65 299.48 698.90 300.06 702.96 303.23 C 703.52 303.30 704.64 303.43 705.20 303.50 C 705.56 303.92 706.29 304.76 706.65 305.18 C 710.34 305.74 713.84 307.11 717.14 308.84 C 717.37 309.30 717.62 309.75 717.87 310.21 C 721.06 311.52 724.08 313.20 726.90 315.20 C 727.42 315.29 728.47 315.48 729.00 315.58 C 734.45 319.64 740.50 322.87 745.70 327.28 C 750.55 331.41 755.95 334.95 760.13 339.83 C 767.50 348.14 776.59 354.83 783.10 363.91 C 788.22 370.70 793.34 377.49 798.15 384.51 C 798.48 385.03 799.15 386.08 799.48 386.61 C 808.74 401.73 815.35 418.38 819.59 435.58 C 819.49 438.48 819.31 441.38 819.17 444.28 C 812.16 442.12 805.17 439.91 798.18 437.72 C 796.09 435.08 794.03 432.41 791.99 429.74 C 789.69 431.02 787.40 432.32 785.14 433.66 C 783.32 422.19 780.76 410.48 774.30 400.63 C 767.44 390.14 758.15 381.58 750.14 372.01 C 744.11 364.99 738.92 357.19 731.97 351.01 C 725.89 345.58 718.38 342.01 710.67 339.54 C 702.77 337.05 694.35 337.44 686.36 335.45 C 675.44 333.02 667.73 322.55 656.06 322.53 C 645.20 321.48 636.66 330.07 626.10 330.68 C 617.24 331.52 608.83 327.89 600.08 327.45 C 593.97 327.05 587.63 327.40 582.04 330.09 C 576.27 332.83 571.15 336.75 565.32 339.38 C 555.36 344.19 544.16 345.57 534.12 350.18 C 526.45 353.58 519.55 358.71 514.24 365.22 C 506.89 374.19 501.94 384.79 495.28 394.24 C 488.39 404.54 479.45 413.33 473.16 424.03 C 465.93 436.29 464.75 451.10 466.12 465.00 C 467.26 477.31 472.42 489.76 482.42 497.46 C 494.80 507.10 510.86 509.72 526.02 511.60 C 539.85 513.23 553.82 513.83 567.55 516.29 C 585.53 519.22 604.57 517.16 621.65 524.54 C 632.77 529.59 642.24 538.84 646.54 550.39 C 652.26 565.94 650.13 582.81 649.58 598.99 C 649.02 609.35 653.34 619.40 659.63 627.44 C 665.83 635.42 674.18 641.76 683.67 645.30 C 687.84 646.87 692.53 648.36 696.96 646.96 C 701.48 645.21 703.49 640.35 705.13 636.16 C 708.47 626.96 711.44 617.36 717.56 609.55 C 726.11 598.27 738.79 591.42 749.29 582.23 C 759.96 573.08 767.16 560.72 773.42 548.32 C 779.33 536.50 784.29 524.23 789.02 511.90 C 795.70 493.73 792.67 473.93 788.96 455.46 C 790.22 455.41 791.50 455.38 792.79 455.35 C 792.67 455.80 792.42 456.70 792.29 457.15 C 802.97 462.51 814.02 467.17 824.53 472.86 C 823.97 474.84 823.59 476.87 823.66 478.94 C 823.79 488.62 823.63 498.30 823.74 507.99 C 824.10 514.78 821.88 521.31 820.76 527.94 C 818.21 536.29 817.65 545.42 812.94 552.96 C 812.10 555.70 811.22 558.44 810.27 561.14 C 809.91 561.55 809.20 562.38 808.84 562.79 C 807.38 570.23 803.53 577.08 798.76 582.90 C 798.68 583.44 798.52 584.52 798.44 585.05 C 795.66 588.57 793.66 592.58 791.33 596.39 C 782.48 608.76 772.58 620.32 763.67 632.65 C 760.12 636.86 757.94 641.98 754.70 646.41 C 750.34 649.42 749.79 654.97 747.68 659.42 C 744.50 665.72 744.07 672.90 741.88 679.53 C 740.95 682.48 741.54 685.61 741.64 688.64 C 740.72 698.24 740.57 707.92 741.60 717.52 C 741.48 720.77 741.42 724.02 741.57 727.28 C 742.07 727.71 743.09 728.58 743.60 729.01 C 743.62 729.40 743.67 730.20 743.70 730.59 C 742.88 735.41 744.85 739.94 745.97 744.52 C 747.34 749.59 748.37 754.77 750.30 759.68 C 752.50 765.31 753.33 771.35 755.40 777.02 C 757.43 783.36 759.87 789.59 761.34 796.11 C 762.89 802.78 766.19 808.99 766.69 815.91 C 762.95 818.53 758.25 817.57 754.00 817.71 C 746.84 817.91 739.48 816.84 732.56 819.16 C 701.39 819.32 670.21 819.04 639.04 819.20 C 629.85 819.13 620.66 819.42 611.47 819.14 C 606.06 817.87 600.48 818.52 594.99 818.29 C 587.65 818.05 580.30 818.63 572.96 818.34 C 567.66 818.22 563.79 813.61 562.20 808.94 C 560.86 805.49 561.57 801.18 558.58 798.51 C 557.98 795.16 557.32 791.83 556.47 788.54 C 556.65 785.45 556.64 782.33 555.44 779.44 C 554.08 775.88 555.43 771.47 552.38 768.62 C 552.36 768.35 552.30 767.81 552.27 767.54 C 552.28 763.52 554.10 758.27 550.29 755.38 C 548.04 751.20 545.31 747.29 541.19 744.76 C 539.47 744.42 537.75 744.06 536.03 743.78 C 529.38 742.40 522.57 742.97 515.88 743.67 C 512.32 743.92 508.93 745.12 505.42 745.68 C 501.17 745.66 496.01 744.01 492.67 747.56 C 492.08 747.57 490.88 747.59 490.28 747.59 C 486.44 747.13 481.33 745.48 478.71 749.38 C 477.01 749.61 475.30 749.72 473.59 749.82 C 465.27 748.96 456.85 749.02 448.52 749.78 C 448.23 749.75 447.64 749.69 447.34 749.65 C 444.70 747.09 440.86 746.90 437.57 745.69 C 430.01 743.53 423.15 737.77 420.92 730.08 C 420.22 723.85 421.18 717.54 420.23 711.31 C 420.32 710.82 420.50 709.84 420.58 709.36 C 423.83 707.46 423.05 703.65 422.42 700.58 C 422.43 700.26 422.46 699.63 422.48 699.31 C 425.71 696.56 424.30 692.10 424.43 688.45 C 425.13 683.59 425.42 678.60 424.25 673.79 C 423.93 672.13 423.55 670.49 423.21 668.86 C 420.69 665.40 417.21 662.71 414.98 659.06 C 412.61 653.35 415.43 647.62 418.63 642.94 C 416.04 637.37 409.30 635.53 406.50 630.09 C 405.17 624.85 410.31 621.29 411.89 616.74 C 412.22 616.38 412.88 615.65 413.21 615.28 C 413.54 613.89 413.89 612.51 414.22 611.13 C 415.14 608.06 415.60 604.75 414.17 601.75 C 411.66 595.46 406.78 590.44 401.06 586.95 C 395.44 582.18 387.85 579.06 384.65 572.01 C 384.03 567.74 383.92 563.25 384.88 559.03 C 387.44 553.33 391.34 548.26 395.82 543.92 C 401.74 538.11 407.62 532.26 413.13 526.06 C 417.74 520.83 420.74 514.42 425.25 509.11 C 425.31 508.53 425.42 507.37 425.48 506.79 C 425.95 506.41 426.89 505.65 427.37 505.28 C 427.39 504.67 427.44 503.45 427.46 502.84 C 427.89 502.47 428.74 501.73 429.16 501.36 C 430.23 495.14 433.45 489.57 434.40 483.33 C 437.69 480.49 436.39 475.91 436.33 472.16 C 437.81 460.01 436.28 447.76 437.15 435.58 L 437.38 435.54 C 439.48 435.80 438.81 433.24 439.14 432.04 C 439.24 429.35 438.87 426.69 438.76 424.02 C 439.09 422.61 439.02 421.24 438.54 419.90 C 440.52 415.50 440.07 410.46 441.95 406.01 C 444.87 398.17 446.89 389.99 450.15 382.28 C 456.04 372.38 461.28 361.96 469.10 353.35 C 473.76 350.35 477.13 345.89 481.14 342.15 C 484.99 338.19 489.74 335.31 493.98 331.81 C 498.05 328.46 503.00 326.43 507.08 323.09 C 512.66 318.69 519.37 316.15 525.28 312.28 C 538.38 304.36 552.95 299.46 567.13 293.91 C 567.64 293.56 568.66 292.86 569.16 292.51 L 569.52 292.47 C 575.05 293.41 580.13 290.45 585.49 289.65 C 588.89 288.75 593.08 289.53 595.58 286.51 Z" />
</g>
<g id="#12354c8e">
<path fill="#12354c" opacity="0.56" d=" M 654.67 288.43 C 658.05 288.60 661.33 289.46 664.56 290.43 C 661.17 290.45 657.22 291.31 654.67 288.43 Z" />
<path fill="#12354c" opacity="0.56" d=" M 882.31 294.47 C 889.51 291.28 897.55 292.50 905.17 292.63 C 907.17 293.38 909.41 293.89 910.80 295.69 C 913.74 295.98 916.70 296.11 919.66 296.22 L 919.38 297.76 C 926.35 297.65 933.76 300.18 938.18 305.81 C 944.48 313.13 945.32 323.53 943.75 332.70 C 943.35 325.22 943.93 317.06 939.49 310.57 C 935.98 306.26 932.07 301.61 926.46 300.13 C 921.44 298.60 916.30 297.50 911.19 296.32 C 907.35 295.46 903.95 292.92 899.89 293.08 C 893.94 292.43 888.24 294.78 882.31 294.47 Z" />
<path fill="#12354c" opacity="0.56" d=" M 562.42 294.08 C 564.58 293.23 566.85 292.74 569.16 292.51 C 568.66 292.86 567.64 293.56 567.13 293.91 C 552.95 299.46 538.38 304.36 525.28 312.28 C 519.37 316.15 512.66 318.69 507.08 323.09 C 503.00 326.43 498.05 328.46 493.98 331.81 C 489.74 335.31 484.99 338.19 481.14 342.15 C 477.13 345.89 473.76 350.35 469.10 353.35 C 470.02 351.90 470.90 350.40 472.03 349.09 C 485.53 334.35 502.35 323.10 519.83 313.62 C 527.19 309.24 534.87 305.44 542.60 301.76 L 542.79 301.68 C 549.34 299.16 555.88 296.61 562.42 294.08 Z" />
<path fill="#12354c" opacity="0.56" d=" M 150.11 307.98 C 154.21 304.73 159.88 305.88 164.70 306.13 C 170.28 308.14 174.90 313.45 175.76 319.38 C 172.56 313.57 168.05 307.64 161.04 306.58 C 154.11 305.44 148.41 310.38 143.97 315.01 C 139.43 319.75 133.04 321.77 126.97 323.76 C 122.61 324.96 120.62 329.31 118.23 332.71 C 117.99 326.37 124.07 322.24 129.73 321.35 C 138.15 319.79 143.45 312.61 150.11 307.98 Z" />
<path fill="#12354c" opacity="0.56" d=" M 175.78 319.49 C 176.01 320.51 176.25 321.54 176.50 322.56 C 183.71 326.09 187.16 333.67 189.75 340.82 C 191.19 346.45 189.97 352.38 187.37 357.48 C 187.18 353.49 188.85 349.82 189.50 345.98 C 189.25 341.97 186.85 338.51 185.58 334.78 C 183.88 329.83 179.62 326.51 175.70 323.35 C 175.74 322.06 175.76 320.78 175.78 319.49 Z" />
<path fill="#12354c" opacity="0.56" d=" M 117.88 348.57 C 117.46 343.79 117.57 338.98 118.15 334.22 C 118.54 339.76 119.28 345.50 117.76 350.93 C 116.16 356.54 109.98 359.26 108.52 364.93 C 107.20 369.12 106.45 373.70 107.55 378.02 C 109.45 380.92 112.06 383.49 115.17 385.07 C 120.63 385.87 126.22 385.28 131.73 385.75 C 131.67 383.20 131.57 380.66 131.32 378.13 C 131.53 379.02 131.75 379.91 131.99 380.80 L 133.11 381.38 C 133.38 381.52 133.94 381.80 134.22 381.94 L 134.24 383.76 C 135.03 384.38 135.87 384.95 136.75 385.45 C 135.63 385.76 134.49 385.98 133.36 386.23 C 133.39 385.73 133.44 384.73 133.47 384.22 C 133.09 384.75 132.31 385.81 131.92 386.34 C 131.17 386.35 129.67 386.38 128.92 386.39 C 124.00 385.89 119.04 386.64 114.14 385.96 C 110.68 385.62 108.50 382.63 106.20 380.39 C 106.52 375.56 106.74 370.72 106.50 365.89 C 108.06 362.20 110.22 358.79 113.09 355.97 C 115.23 353.96 116.08 351.08 116.45 348.25 L 117.88 348.57 Z" />
<path fill="#12354c" opacity="0.56" d=" M 819.59 435.58 L 819.68 435.96 C 819.84 436.58 820.15 437.81 820.31 438.42 C 820.41 440.07 820.49 441.71 820.58 443.37 C 822.50 443.46 824.43 443.58 826.38 443.63 C 824.77 443.95 823.18 444.36 821.59 444.71 C 820.77 444.58 819.96 444.44 819.17 444.28 C 819.31 441.38 819.49 438.48 819.59 435.58 Z" />
<path fill="#12354c" opacity="0.56" d=" M 436.05 473.37 L 436.33 472.16 C 436.39 475.91 437.69 480.49 434.40 483.33 C 434.86 479.99 435.37 476.66 436.05 473.37 Z" />
<path fill="#12354c" opacity="0.56" d=" M 747.68 659.42 C 749.79 654.97 750.34 649.42 754.70 646.41 C 753.48 649.76 751.98 652.99 750.55 656.25 C 746.13 666.33 743.69 677.15 741.73 687.93 L 741.64 688.64 C 741.54 685.61 740.95 682.48 741.88 679.53 C 744.07 672.90 744.50 665.72 747.68 659.42 Z" />
<path fill="#12354c" opacity="0.56" d=" M 854.28 663.83 C 855.20 668.20 856.67 672.52 856.49 677.06 C 856.34 682.27 858.79 687.15 858.52 692.39 C 858.71 692.47 859.08 692.64 859.27 692.72 C 859.17 697.15 860.36 701.47 860.51 705.89 C 860.63 710.65 862.39 715.19 862.49 719.97 C 862.63 724.72 864.43 729.25 864.49 734.02 C 864.52 737.41 865.53 740.66 866.09 743.99 C 866.75 753.34 869.31 762.45 869.15 771.90 C 868.74 771.71 867.91 771.33 867.49 771.14 C 867.48 767.04 867.33 762.95 867.52 758.87 C 867.06 758.44 866.14 757.59 865.68 757.16 C 865.37 753.05 865.32 748.93 865.53 744.82 C 865.06 744.46 864.13 743.73 863.67 743.36 C 863.39 739.19 863.30 735.02 863.52 730.85 C 863.06 730.47 862.14 729.72 861.67 729.34 C 861.39 725.17 861.31 720.98 861.50 716.81 C 861.04 716.45 860.13 715.75 859.67 715.39 C 859.40 711.21 859.30 707.02 859.48 702.84 C 859.03 702.48 858.13 701.75 857.68 701.39 C 857.39 697.20 857.30 693.01 857.46 688.83 C 857.01 688.47 856.12 687.77 855.68 687.42 C 855.31 682.64 855.39 677.85 855.43 673.07 C 855.13 672.64 854.54 671.77 854.24 671.33 C 854.16 668.82 854.24 666.32 854.28 663.83 Z" />
<path fill="#12354c" opacity="0.56" d=" M 902.19 667.78 C 905.58 670.70 906.81 675.12 908.86 678.93 C 917.09 694.87 924.64 711.15 932.76 727.15 C 943.01 747.57 953.18 768.02 963.42 788.45 C 965.59 792.69 967.34 797.19 970.29 801.00 C 970.33 803.06 970.35 805.12 970.37 807.20 C 970.01 807.64 969.29 808.51 968.93 808.95 C 967.98 811.43 966.16 813.42 965.01 815.80 C 967.17 818.39 970.22 819.97 973.09 821.66 C 977.13 817.79 981.70 814.40 985.16 809.98 C 987.09 803.08 983.80 796.29 983.66 789.43 C 986.50 795.92 986.60 803.14 987.55 810.04 C 983.75 814.96 978.52 818.56 973.93 822.71 C 973.57 822.71 972.86 822.70 972.50 822.70 C 969.19 821.01 965.59 819.26 963.50 816.07 C 964.45 811.62 967.60 808.12 969.55 804.11 C 951.73 768.27 933.74 732.52 916.16 696.57 C 912.75 689.63 909.20 682.77 905.71 675.89 C 904.31 673.29 903.10 670.59 902.19 667.78 Z" />
<path fill="#12354c" opacity="0.56" d=" M 424.30 689.15 L 424.43 688.45 C 424.30 692.10 425.71 696.56 422.48 699.31 C 422.56 695.84 423.59 692.51 424.30 689.15 Z" />
<path fill="#12354c" opacity="0.56" d=" M 419.62 727.98 C 419.52 722.42 419.27 716.81 420.23 711.31 C 421.18 717.54 420.22 723.85 420.92 730.08 C 423.15 737.77 430.01 743.53 437.57 745.69 C 440.86 746.90 444.70 747.09 447.34 749.65 C 442.25 749.18 437.46 747.23 432.77 745.35 C 425.93 742.28 419.63 735.89 419.62 727.98 Z" />
<path fill="#12354c" opacity="0.56" d=" M 741.60 717.52 L 741.71 718.23 C 742.26 721.83 743.25 725.37 743.60 729.01 C 743.09 728.58 742.07 727.71 741.57 727.28 C 741.42 724.02 741.48 720.77 741.60 717.52 Z" />
<path fill="#12354c" opacity="0.56" d=" M 895.07 734.60 C 895.26 730.65 895.51 726.72 895.70 722.78 C 895.84 726.72 896.38 730.78 895.07 734.60 Z" />
<path fill="#12354c" opacity="0.56" d=" M 178.32 730.20 C 179.13 732.02 179.45 734.02 179.02 736.01 C 177.07 734.59 177.40 732.11 178.32 730.20 Z" />
<path fill="#12354c" opacity="0.56" d=" M 743.70 730.59 C 750.45 757.66 759.53 784.06 767.31 810.84 C 767.87 812.55 767.93 814.46 766.69 815.91 C 766.19 808.99 762.89 802.78 761.34 796.11 C 759.87 789.59 757.43 783.36 755.40 777.02 C 753.33 771.35 752.50 765.31 750.30 759.68 C 748.37 754.77 747.34 749.59 745.97 744.52 C 744.85 739.94 742.88 735.41 743.70 730.59 Z" />
<path fill="#12354c" opacity="0.56" d=" M 203.04 746.63 C 203.27 743.68 203.52 740.74 203.70 737.80 C 203.93 740.76 204.16 743.80 203.04 746.63 Z" />
<path fill="#12354c" opacity="0.56" d=" M 492.67 747.56 C 496.01 744.01 501.17 745.66 505.42 745.68 C 501.17 746.31 496.95 747.12 492.67 747.56 Z" />
<path fill="#12354c" opacity="0.56" d=" M 448.52 749.78 C 456.85 749.02 465.27 748.96 473.59 749.82 C 465.28 750.68 456.83 750.79 448.52 749.78 Z" />
<path fill="#12354c" opacity="0.56" d=" M 973.68 753.47 C 976.02 760.51 978.06 767.68 979.70 774.91 C 979.28 774.50 978.43 773.66 978.01 773.25 C 976.72 766.62 973.44 760.32 973.68 753.47 Z" />
<path fill="#12354c" opacity="0.56" d=" M 550.29 755.38 C 554.10 758.27 552.28 763.52 552.27 767.54 C 551.76 763.46 551.01 759.42 550.29 755.38 Z" />
<path fill="#12354c" opacity="0.56" d=" M 182.31 764.16 C 183.31 765.91 183.69 768.08 182.54 769.89 C 181.33 768.15 181.40 766.00 182.31 764.16 Z" />
<path fill="#12354c" opacity="0.56" d=" M 552.38 768.62 C 555.43 771.47 554.08 775.88 555.44 779.44 C 556.64 782.33 556.65 785.45 556.47 788.54 C 554.50 782.04 553.18 775.35 552.38 768.62 Z" />
<path fill="#12354c" opacity="0.56" d=" M 127.53 792.46 C 132.55 796.05 137.44 799.87 141.98 804.06 C 145.87 807.75 143.95 813.66 143.63 818.34 C 138.33 818.28 132.29 818.56 128.41 814.24 C 133.13 815.41 137.56 817.74 142.58 817.49 C 142.67 813.84 144.62 809.38 141.65 806.38 C 138.04 802.24 133.75 798.74 129.25 795.63 C 128.03 795.02 127.72 793.67 127.53 792.46 Z" />
</g>
<g id="#79989caf">
<path fill="#79989c" opacity="0.69" d=" M 887.00 291.84 C 893.68 291.46 900.38 291.51 907.07 291.82 C 907.60 293.66 909.59 293.73 911.19 293.91 C 913.77 296.97 918.17 294.68 921.24 296.79 C 922.93 297.90 925.06 297.65 927.01 297.89 C 928.65 300.07 931.92 299.36 933.85 301.17 C 936.14 303.19 938.26 305.39 940.29 307.68 C 942.46 309.88 942.31 313.25 944.13 315.69 C 944.67 322.57 944.58 329.49 944.15 336.38 C 943.10 337.75 942.15 339.21 942.02 340.98 C 940.78 342.05 939.97 343.35 940.08 345.03 C 938.60 345.98 937.58 347.39 937.16 349.08 C 934.35 351.66 931.67 354.37 929.09 357.17 C 925.74 358.09 924.07 361.57 921.01 363.01 C 919.17 363.89 917.62 365.17 916.30 366.70 C 916.31 368.34 916.31 369.98 916.32 371.63 C 921.21 371.96 926.41 370.74 931.09 372.62 C 932.21 374.28 933.71 375.63 935.34 376.79 C 935.43 377.31 935.61 378.35 935.70 378.87 C 937.63 381.01 940.02 383.26 939.78 386.43 C 936.85 384.81 935.91 381.40 933.92 378.93 C 932.04 376.59 929.88 374.37 927.24 372.91 C 923.65 372.34 919.99 372.76 916.38 372.71 C 916.41 369.88 914.30 365.80 917.10 363.78 C 922.36 361.99 925.94 357.60 930.20 354.29 C 935.72 348.20 942.28 341.99 943.62 333.49 C 943.65 333.29 943.72 332.90 943.75 332.70 C 945.32 323.53 944.48 313.13 938.18 305.81 C 933.76 300.18 926.35 297.65 919.38 297.76 L 919.66 296.22 C 916.70 296.11 913.74 295.98 910.80 295.69 C 909.41 293.89 907.17 293.38 905.17 292.63 C 897.55 292.50 889.51 291.28 882.31 294.47 C 882.02 294.53 881.44 294.65 881.15 294.71 C 880.24 294.65 878.42 294.54 877.51 294.48 L 877.64 295.53 C 873.29 296.06 868.98 297.42 864.56 296.58 L 864.46 297.49 C 862.60 297.79 860.80 298.28 859.01 298.81 C 857.32 300.17 855.65 301.53 854.01 302.93 C 852.48 306.46 853.01 310.34 852.08 314.00 C 850.95 318.24 852.23 322.56 852.78 326.78 C 853.14 327.31 853.84 328.37 854.20 328.91 C 853.40 328.30 852.62 327.69 851.86 327.08 C 851.06 319.75 851.47 312.39 851.86 305.06 C 853.19 304.14 853.75 302.61 854.11 301.10 C 855.45 300.41 856.42 299.31 857.09 297.96 C 859.14 297.64 861.91 298.14 862.98 295.82 C 867.29 295.29 871.85 296.25 876.02 294.96 C 876.27 294.68 876.78 294.12 877.03 293.84 C 880.29 293.21 884.66 294.82 887.00 291.84 Z" />
<path fill="#79989c" opacity="0.69" d=" M 257.67 294.77 C 261.81 292.95 266.52 293.79 270.91 293.92 C 271.26 294.14 271.97 294.58 272.32 294.80 C 267.44 294.59 262.55 294.42 257.67 294.77 Z" />
<path fill="#79989c" opacity="0.69" d=" M 360.00 297.07 C 360.11 295.37 362.16 295.17 363.10 296.34 C 362.32 296.52 360.77 296.89 360.00 297.07 Z" />
<path fill="#79989c" opacity="0.69" d=" M 150.99 305.88 C 156.34 305.22 161.70 305.27 167.06 305.86 C 167.71 307.46 169.43 307.77 170.93 308.05 C 171.55 309.42 172.58 310.43 173.93 311.09 C 174.33 312.57 174.43 314.41 176.16 314.97 C 176.22 316.37 176.27 317.77 176.32 319.18 C 178.63 322.63 181.74 325.40 184.64 328.34 C 186.67 330.07 185.91 333.35 188.07 334.95 C 188.02 336.65 188.91 337.95 190.12 339.05 C 190.57 343.66 190.57 348.32 190.11 352.93 C 189.73 353.41 188.96 354.36 188.58 354.84 C 188.14 359.63 188.54 364.44 188.34 369.24 C 189.34 370.49 190.36 371.74 191.40 372.96 C 191.45 373.50 191.53 374.57 191.58 375.11 C 192.43 375.65 193.26 376.22 194.09 376.81 C 193.54 376.68 192.44 376.41 191.89 376.28 C 190.55 373.62 188.10 371.71 186.84 369.04 C 186.09 365.20 186.98 361.31 187.37 357.48 C 189.97 352.38 191.19 346.45 189.75 340.82 C 187.16 333.67 183.71 326.09 176.50 322.56 C 176.25 321.54 176.01 320.51 175.78 319.49 L 175.76 319.38 C 174.90 313.45 170.28 308.14 164.70 306.13 C 159.88 305.88 154.21 304.73 150.11 307.98 C 143.45 312.61 138.15 319.79 129.73 321.35 C 124.07 322.24 117.99 326.37 118.23 332.71 C 118.21 333.09 118.17 333.84 118.15 334.22 C 117.57 338.98 117.46 343.79 117.88 348.57 L 116.45 348.25 C 116.08 351.08 115.23 353.96 113.09 355.97 C 110.22 358.79 108.06 362.20 106.50 365.89 C 106.74 370.72 106.52 375.56 106.20 380.39 C 108.50 382.63 110.68 385.62 114.14 385.96 C 119.04 386.64 124.00 385.89 128.92 386.39 C 128.99 390.21 126.53 393.25 123.38 395.13 C 117.55 398.62 113.03 403.78 108.62 408.85 C 107.51 411.55 106.54 414.32 106.05 417.21 C 105.72 417.67 105.07 418.57 104.74 419.02 C 104.59 423.06 104.65 427.11 104.21 431.13 C 103.77 431.41 102.89 431.98 102.44 432.27 C 102.46 431.43 102.48 429.76 102.49 428.93 C 104.42 426.31 103.28 422.93 103.67 419.94 C 103.66 415.84 106.41 412.43 106.58 408.39 C 107.04 408.06 107.94 407.40 108.40 407.06 C 108.46 406.52 108.57 405.42 108.62 404.88 C 112.12 402.40 114.50 398.68 117.98 396.22 C 122.38 394.71 125.59 390.97 127.40 386.78 C 122.89 386.82 118.40 386.39 113.89 386.30 C 110.39 386.31 108.49 382.81 105.95 380.95 C 105.40 375.65 105.52 370.31 105.85 365.01 C 107.78 363.54 108.11 361.08 108.75 358.92 C 111.46 356.75 113.69 354.07 115.62 351.20 C 115.59 349.11 116.48 347.25 117.42 345.45 C 117.70 340.17 117.42 334.88 117.82 329.60 C 118.91 328.08 119.94 326.51 120.89 324.89 C 122.40 324.09 123.78 323.09 125.05 321.94 C 128.46 321.75 131.75 320.62 134.62 318.77 C 139.66 316.91 143.24 312.56 146.93 308.84 C 148.65 308.43 149.98 307.31 150.99 305.88 Z" />
<path fill="#79989c" opacity="0.69" d=" M 312.49 313.48 C 315.41 313.72 316.44 317.15 318.83 318.46 C 321.70 319.29 322.81 315.88 325.30 315.44 C 323.49 318.04 321.50 320.50 319.74 323.13 C 317.70 319.64 315.28 316.39 312.49 313.48 Z" />
<path fill="#79989c" opacity="0.69" d=" M 798.15 384.51 L 799.93 385.07 C 802.41 385.79 804.99 386.16 807.56 386.56 C 807.90 387.01 808.58 387.91 808.92 388.36 C 809.44 388.44 810.47 388.60 810.99 388.68 C 812.86 390.41 814.75 392.49 817.49 392.64 C 817.85 393.01 818.58 393.74 818.95 394.11 C 820.73 394.93 822.45 395.92 824.12 396.97 L 824.46 397.86 C 824.56 398.10 824.75 398.60 824.85 398.85 C 825.40 398.95 826.51 399.17 827.06 399.28 C 829.84 400.91 832.49 402.75 835.13 404.62 C 840.28 406.11 844.01 411.91 849.84 410.50 L 850.65 409.55 C 851.40 408.61 852.13 407.66 852.87 406.71 C 853.85 406.46 855.81 405.98 856.78 405.74 L 856.34 406.25 L 855.92 406.73 C 854.18 408.74 852.55 411.03 850.08 412.18 C 844.96 413.41 840.72 409.47 837.03 406.54 C 836.08 406.36 835.14 406.19 834.22 406.03 C 831.83 404.14 829.36 402.39 826.97 400.53 C 826.06 400.36 825.16 400.20 824.28 400.05 C 821.85 398.21 819.37 396.45 816.99 394.57 C 816.44 394.44 815.33 394.18 814.78 394.05 C 812.16 392.34 809.56 390.58 807.00 388.78 C 805.59 388.14 804.19 387.48 802.81 386.80 C 801.98 386.75 800.31 386.65 799.48 386.61 C 799.15 386.08 798.48 385.03 798.15 384.51 Z" />
<path fill="#79989c" opacity="0.69" d=" M 187.79 389.82 C 189.09 389.28 190.37 388.72 191.66 388.16 C 191.30 389.17 190.86 390.16 190.34 391.11 C 191.23 392.20 192.13 393.29 193.01 394.39 C 193.63 394.40 194.85 394.40 195.46 394.41 C 195.83 394.91 196.58 395.92 196.96 396.42 C 197.59 396.42 198.87 396.42 199.50 396.41 C 199.87 396.93 200.60 397.97 200.96 398.48 C 201.88 398.45 203.71 398.37 204.63 398.33 C 204.81 400.75 202.27 400.17 200.68 400.49 C 200.30 399.96 199.56 398.90 199.19 398.37 C 198.56 398.33 197.29 398.24 196.66 398.20 C 196.28 397.75 195.50 396.84 195.11 396.39 C 194.52 396.34 193.35 396.25 192.76 396.20 C 191.68 395.03 190.60 393.87 189.53 392.71 C 189.44 392.01 189.25 390.62 189.16 389.92 C 188.82 389.90 188.14 389.85 187.79 389.82 Z" />
<path fill="#79989c" opacity="0.69" d=" M 438.12 424.07 C 437.31 422.72 437.55 421.07 438.54 419.90 C 439.02 421.24 439.09 422.61 438.76 424.02 L 438.12 424.07 Z" />
<path fill="#79989c" opacity="0.69" d=" M 819.68 435.96 C 819.21 433.70 821.45 433.00 822.94 431.98 C 824.60 433.60 826.32 435.18 827.81 436.97 C 827.94 437.28 828.20 437.89 828.33 438.19 C 828.00 438.08 827.34 437.86 827.01 437.75 C 826.49 437.59 825.47 437.26 824.96 437.10 C 823.63 435.87 822.16 434.77 820.62 433.86 C 820.54 435.00 820.39 437.28 820.31 438.42 C 820.15 437.81 819.84 436.58 819.68 435.96 Z" />
<path fill="#79989c" opacity="0.69" d=" M 435.81 435.77 L 437.15 435.58 C 436.28 447.76 437.81 460.01 436.33 472.16 L 436.05 473.37 C 435.41 460.85 435.75 448.30 435.81 435.77 Z" />
<path fill="#79989c" opacity="0.69" d=" M 964.45 440.73 C 964.89 440.64 965.76 440.44 966.20 440.35 C 966.55 443.30 965.31 447.06 968.07 449.12 C 968.56 451.82 967.45 455.32 970.11 457.13 C 971.05 461.06 968.83 466.12 972.08 469.14 C 972.59 473.85 972.19 478.59 972.50 483.31 C 972.90 483.77 973.70 484.68 974.10 485.14 C 974.70 499.10 974.24 513.09 974.39 527.06 C 974.24 536.33 974.69 545.62 974.08 554.88 C 973.69 555.33 972.90 556.23 972.51 556.68 C 972.12 563.41 972.70 570.16 972.09 576.88 C 971.69 577.33 970.90 578.22 970.51 578.66 C 970.19 584.10 970.55 589.57 970.17 595.02 C 969.77 595.33 968.99 595.95 968.59 596.26 C 968.24 600.73 968.54 605.26 967.41 609.67 C 966.66 610.27 965.93 610.90 965.18 611.47 C 964.82 611.47 964.10 611.47 963.75 611.47 C 965.28 608.84 966.97 606.11 967.27 603.00 C 967.77 598.93 966.67 594.39 969.11 590.77 C 969.84 585.09 968.56 579.16 970.53 573.67 C 973.04 566.28 969.36 557.83 973.08 550.76 C 973.70 532.51 973.29 514.22 973.37 495.96 C 973.43 493.12 973.29 490.24 972.28 487.57 C 970.88 483.52 971.72 479.20 971.25 475.04 C 970.81 472.68 969.67 470.49 969.58 468.07 C 969.37 464.98 969.56 461.76 967.98 458.97 C 967.30 452.80 964.30 447.01 964.45 440.73 Z" />
<path fill="#79989c" opacity="0.69" d=" M 222.35 447.39 C 226.93 447.70 230.96 444.75 235.59 445.37 C 235.90 445.83 236.51 446.75 236.82 447.21 C 235.49 447.27 234.19 447.09 232.93 446.67 C 229.71 447.87 226.32 448.55 222.88 448.45 C 222.08 448.47 220.49 448.53 219.69 448.55 C 220.35 448.26 221.69 447.68 222.35 447.39 Z" />
<path fill="#79989c" opacity="0.69" d=" M 249.99 483.11 C 252.62 482.48 255.01 481.16 257.50 480.12 C 256.31 482.50 253.89 483.63 251.43 484.24 C 249.30 484.76 246.01 483.53 245.05 486.18 C 242.29 486.29 239.53 486.38 236.77 486.39 C 234.79 487.84 232.54 489.14 231.27 491.32 C 229.89 492.57 230.39 494.43 232.18 494.93 C 233.00 498.92 230.82 504.07 234.09 507.13 C 235.07 511.06 232.85 516.11 236.09 519.13 C 236.59 523.84 236.20 528.59 236.50 533.32 C 236.90 533.77 237.70 534.66 238.10 535.11 C 238.65 540.52 238.13 545.96 238.52 551.37 C 238.91 551.82 239.70 552.70 240.09 553.15 C 240.52 557.20 240.22 561.28 240.50 565.35 C 240.90 565.79 241.69 566.66 242.09 567.10 C 242.81 570.43 241.11 574.71 244.09 577.16 C 244.83 580.46 243.10 584.74 246.09 587.13 C 246.81 590.45 245.14 594.70 248.07 597.16 C 248.55 599.86 247.48 603.29 250.10 605.10 C 251.08 609.04 248.82 614.11 252.08 617.14 C 252.56 625.04 252.52 632.99 252.10 640.89 C 249.90 642.05 248.16 643.84 246.92 645.99 C 245.27 646.00 243.91 646.70 242.91 648.00 C 241.28 648.05 239.76 648.62 238.94 650.11 C 236.13 650.16 233.33 650.39 230.66 651.32 C 226.76 652.37 222.69 651.98 218.70 652.05 C 218.54 651.65 218.21 650.87 218.05 650.47 C 220.94 650.66 223.82 651.04 226.72 651.26 C 231.13 648.66 236.85 649.61 240.87 646.00 C 241.43 645.88 242.55 645.64 243.11 645.52 C 245.95 642.85 249.36 640.51 251.12 636.94 C 251.72 630.27 251.80 623.45 249.70 617.04 C 249.96 611.49 247.47 606.44 247.22 600.97 C 246.86 600.53 246.13 599.65 245.76 599.21 C 245.58 596.46 245.41 593.72 245.26 590.98 C 244.89 590.53 244.15 589.64 243.78 589.20 C 243.61 586.53 243.41 583.87 243.09 581.23 C 240.89 577.96 241.99 573.80 240.52 570.28 C 238.58 565.56 240.30 560.24 238.28 555.54 C 236.33 549.95 238.51 543.82 236.48 538.25 C 234.75 533.43 235.72 528.22 235.15 523.23 C 232.39 519.41 234.33 514.41 232.52 510.27 C 230.99 506.44 231.89 502.18 230.61 498.29 C 229.56 495.22 229.40 491.97 229.46 488.76 C 232.57 485.95 236.67 485.21 240.73 485.08 C 243.50 483.29 246.88 483.69 249.99 483.11 Z" />
<path fill="#79989c" opacity="0.69" d=" M 330.89 506.89 C 331.34 506.52 332.25 505.79 332.70 505.43 L 332.64 506.32 C 332.21 506.46 331.33 506.75 330.89 506.89 Z" />
<path fill="#79989c" opacity="0.69" d=" M 211.37 662.32 C 210.44 660.57 210.63 658.49 211.86 656.96 C 212.35 658.71 212.45 660.74 211.37 662.32 Z" />
<path fill="#79989c" opacity="0.69" d=" M 208.53 688.02 C 209.03 684.25 209.38 680.46 209.76 676.69 C 210.54 680.53 210.08 684.42 208.53 688.02 Z" />
<path fill="#79989c" opacity="0.69" d=" M 897.33 707.85 C 896.80 703.64 897.16 699.40 897.64 695.22 C 897.94 699.40 898.64 703.77 897.33 707.85 Z" />
<path fill="#79989c" opacity="0.69" d=" M 205.00 726.75 C 205.28 723.46 205.61 720.17 205.73 716.88 C 205.95 720.18 207.08 723.79 205.00 726.75 Z" />
<path fill="#79989c" opacity="0.69" d=" M 118.28 754.09 C 118.19 749.75 116.70 745.12 118.90 741.06 C 118.78 745.40 118.42 749.74 118.28 754.09 Z" />
<path fill="#79989c" opacity="0.69" d=" M 892.95 762.74 C 893.31 758.46 893.59 754.17 893.72 749.89 C 893.94 753.81 894.68 757.77 893.94 761.69 L 892.95 762.74 Z" />
<path fill="#79989c" opacity="0.69" d=" M 891.45 764.36 C 891.66 764.13 892.10 763.67 892.31 763.44 C 891.51 770.58 891.74 777.81 892.12 784.98 C 891.99 788.09 890.29 790.90 889.99 794.00 C 889.58 799.50 890.15 805.02 889.72 810.53 C 884.97 813.69 879.77 816.05 874.70 818.64 L 874.36 818.81 C 872.78 817.97 870.99 817.78 869.26 817.55 C 868.75 816.41 868.22 815.28 867.75 814.16 L 866.29 814.77 C 866.24 814.12 866.13 812.82 866.07 812.17 L 864.70 812.51 C 864.55 810.62 864.39 808.72 864.52 806.84 C 867.35 804.79 869.57 802.05 871.61 799.24 C 871.23 795.59 872.47 791.61 870.85 788.23 C 870.58 787.98 870.04 787.49 869.77 787.24 C 869.35 782.13 870.14 776.95 869.15 771.90 C 869.38 772.21 869.84 772.85 870.07 773.17 C 869.56 779.58 871.80 785.70 872.16 792.04 C 872.45 795.05 872.93 798.05 873.39 801.05 C 870.67 803.86 866.60 806.11 865.76 810.13 C 866.49 813.00 869.15 814.90 871.32 816.75 C 877.04 818.43 881.40 812.88 886.63 811.57 C 887.38 810.35 888.52 809.32 888.92 807.91 C 889.73 802.02 888.77 796.04 889.38 790.15 C 893.58 782.09 889.98 772.91 891.45 764.36 Z" />
<path fill="#79989c" opacity="0.69" d=" M 116.29 779.15 C 115.98 775.85 115.27 772.39 116.78 769.27 C 116.66 772.56 116.45 775.85 116.29 779.15 Z" />
</g>
<g id="#ffb200ff">
<path fill="#ffb200" opacity="1.00" d=" M 253.78 295.80 C 254.53 295.63 256.04 295.29 256.80 295.12 L 257.67 294.77 C 262.55 294.42 267.44 294.59 272.32 294.80 L 272.96 295.19 C 276.27 296.01 279.69 296.32 283.04 296.99 C 285.73 298.00 288.45 298.96 291.21 299.79 C 291.59 300.18 292.34 300.97 292.71 301.36 C 293.24 301.46 294.31 301.65 294.84 301.74 C 296.19 302.34 297.62 302.76 299.11 302.73 C 299.67 303.59 300.23 304.45 300.79 305.33 C 305.85 305.50 309.02 310.34 312.49 313.48 C 315.28 316.39 317.70 319.64 319.74 323.13 C 321.50 320.50 323.49 318.04 325.30 315.44 L 325.86 314.64 L 326.50 314.75 L 326.70 313.70 L 327.78 313.45 L 327.42 312.43 L 328.81 312.75 L 328.43 311.30 C 328.95 311.40 329.98 311.61 330.49 311.71 L 330.30 310.31 L 331.16 310.38 L 331.88 309.19 C 334.28 307.34 336.66 305.48 338.97 303.52 C 339.55 303.50 340.69 303.46 341.26 303.43 C 341.65 303.02 342.42 302.20 342.81 301.79 C 348.44 299.89 354.08 297.92 360.00 297.07 C 360.77 296.89 362.32 296.52 363.10 296.34 C 368.40 296.48 373.81 295.76 379.02 297.08 C 382.36 297.99 385.74 298.76 389.08 299.70 C 389.55 300.07 390.50 300.79 390.97 301.15 C 395.56 301.90 399.43 304.61 403.13 307.26 C 403.65 307.35 404.70 307.52 405.23 307.61 C 409.94 311.57 414.17 316.05 418.53 320.39 C 421.66 323.50 423.63 327.50 426.39 330.91 C 426.45 331.46 426.56 332.56 426.62 333.11 C 427.10 333.50 428.06 334.27 428.54 334.66 C 428.54 335.27 428.55 336.48 428.55 337.08 C 429.04 337.47 430.02 338.25 430.50 338.64 C 430.52 339.24 430.56 340.44 430.58 341.04 C 431.01 341.50 431.87 342.43 432.30 342.89 C 434.26 349.48 435.57 356.22 436.88 362.96 C 439.27 375.81 436.44 389.04 432.21 401.21 C 431.79 401.60 430.95 402.37 430.53 402.75 C 430.55 403.36 430.58 404.57 430.60 405.18 C 430.09 405.62 429.07 406.50 428.56 406.95 C 428.55 407.54 428.53 408.74 428.52 409.34 C 428.03 409.68 427.05 410.36 426.56 410.70 C 426.54 411.27 426.49 412.43 426.47 413.00 C 422.82 417.04 420.55 422.06 417.24 426.35 C 415.34 428.79 413.50 431.27 411.77 433.84 C 409.59 436.62 406.94 439.01 404.95 441.95 C 400.81 448.05 395.06 452.76 390.03 458.07 C 384.54 463.26 379.69 469.19 373.33 473.36 C 370.88 475.03 369.07 477.58 366.23 478.66 L 365.94 479.13 C 365.45 479.78 365.03 480.49 364.51 481.14 C 360.71 482.52 358.48 486.09 355.12 488.16 C 351.12 490.70 347.99 494.36 343.98 496.89 C 340.03 499.48 336.02 502.04 332.70 505.43 C 332.25 505.79 331.34 506.52 330.89 506.89 C 326.85 509.66 322.61 512.19 319.03 515.56 C 312.94 516.77 309.53 510.75 305.14 507.79 C 299.50 504.20 295.27 498.88 289.63 495.30 C 282.90 489.50 276.15 483.71 268.90 478.57 C 269.99 478.65 271.08 478.73 272.17 478.82 C 274.69 476.24 277.81 474.09 279.63 470.94 C 279.79 467.65 279.09 464.39 278.78 461.13 C 276.26 461.25 273.75 461.36 271.23 461.42 C 270.00 460.05 268.69 458.77 267.29 457.58 C 264.07 460.18 260.79 462.68 257.56 465.26 C 257.52 462.23 257.51 459.21 257.49 456.18 C 253.97 456.45 250.47 457.04 246.94 457.04 C 245.86 456.96 245.37 455.80 244.60 455.22 C 241.78 452.79 238.91 450.33 236.82 447.21 C 236.51 446.75 235.90 445.83 235.59 445.37 C 228.11 436.07 220.68 426.66 214.56 416.39 C 210.72 409.84 206.69 403.26 204.48 395.94 L 204.40 395.66 C 203.15 391.33 202.14 386.94 200.75 382.66 C 200.25 373.36 200.44 364.04 200.38 354.74 C 200.51 353.45 200.74 352.19 201.09 350.95 C 201.80 348.29 202.36 345.59 203.04 342.93 C 203.97 340.24 204.94 337.56 205.78 334.84 C 206.20 334.39 207.03 333.50 207.45 333.05 C 207.45 332.19 207.46 331.33 207.47 330.47 C 207.90 330.11 208.75 329.39 209.18 329.03 C 209.32 328.48 209.61 327.40 209.75 326.86 C 212.51 323.23 214.61 319.09 217.93 315.91 C 222.66 311.29 227.05 305.94 233.37 303.43 C 238.07 301.92 242.21 299.02 247.11 298.08 C 247.41 297.74 248.01 297.05 248.31 296.71 C 251.47 295.92 254.76 296.33 257.96 296.63 C 256.56 296.35 255.17 296.08 253.78 295.80 M 306.70 352.54 C 306.90 364.43 306.66 376.33 306.83 388.23 C 295.43 388.25 284.03 388.28 272.63 388.21 C 272.56 396.42 272.55 404.63 272.63 412.84 C 284.03 412.77 295.43 412.77 306.83 412.83 C 306.67 424.72 306.90 436.62 306.70 448.51 C 314.61 448.70 322.52 448.69 330.42 448.51 C 330.19 436.64 330.47 424.77 330.26 412.89 C 341.71 412.65 353.17 412.89 364.62 412.77 C 364.55 404.61 364.53 396.44 364.63 388.28 C 353.17 388.13 341.70 388.42 330.25 388.13 C 330.49 376.26 330.18 364.38 330.41 352.51 C 322.51 352.36 314.60 352.31 306.70 352.54 Z" />
</g>
<g id="#d67548ff">
<path fill="#d67548" opacity="1.00" d=" M 234.45 301.76 C 238.99 299.86 243.43 297.62 248.31 296.71 C 248.01 297.05 247.41 297.74 247.11 298.08 C 242.21 299.02 238.07 301.92 233.37 303.43 C 233.64 303.01 234.18 302.17 234.45 301.76 Z" />
<path fill="#d67548" opacity="1.00" d=" M 890.30 337.28 C 897.28 333.74 905.25 332.38 913.03 332.65 C 917.03 332.94 921.88 334.21 923.63 338.24 C 924.85 343.41 923.58 348.75 922.65 353.88 C 922.16 356.04 922.40 358.26 922.54 360.45 C 920.69 361.53 918.82 362.54 917.10 363.78 C 914.30 365.80 916.41 369.88 916.38 372.71 C 916.56 374.09 916.75 375.48 916.94 376.87 C 911.71 377.56 906.47 378.12 901.22 378.49 C 900.45 375.67 899.55 372.89 898.50 370.17 C 898.49 369.83 898.47 369.17 898.46 368.84 C 894.10 367.87 889.82 365.67 887.54 361.67 C 884.18 355.38 883.89 348.01 881.35 341.40 C 884.40 340.19 887.34 338.71 890.30 337.28 Z" />
<path fill="#d67548" opacity="1.00" d=" M 200.26 373.00 C 200.46 366.91 200.12 360.82 200.38 354.74 C 200.44 364.04 200.25 373.36 200.75 382.66 C 199.25 379.60 200.16 376.22 200.26 373.00 Z" />
<path fill="#d67548" opacity="1.00" d=" M 785.14 433.66 C 787.40 432.32 789.69 431.02 791.99 429.74 C 794.03 432.41 796.09 435.08 798.18 437.72 C 796.43 443.61 794.62 449.48 792.79 455.35 C 791.50 455.38 790.22 455.41 788.96 455.46 C 785.42 455.37 781.71 456.20 778.29 455.22 C 775.07 451.32 772.61 446.85 769.59 442.80 C 774.71 439.65 779.98 436.74 785.14 433.66 Z" />
</g>
<g id="#9ddaccff">
<path fill="#9ddacc" opacity="1.00" d=" M 626.10 330.68 C 636.66 330.07 645.20 321.48 656.06 322.53 C 667.73 322.55 675.44 333.02 686.36 335.45 C 694.35 337.44 702.77 337.05 710.67 339.54 C 718.38 342.01 725.89 345.58 731.97 351.01 C 738.92 357.19 744.11 364.99 750.14 372.01 C 758.15 381.58 767.44 390.14 774.30 400.63 C 780.76 410.48 783.32 422.19 785.14 433.66 C 779.98 436.74 774.71 439.65 769.59 442.80 C 772.61 446.85 775.07 451.32 778.29 455.22 C 781.71 456.20 785.42 455.37 788.96 455.46 C 792.67 473.93 795.70 493.73 789.02 511.90 C 784.29 524.23 779.33 536.50 773.42 548.32 C 767.16 560.72 759.96 573.08 749.29 582.23 C 738.79 591.42 726.11 598.27 717.56 609.55 C 711.44 617.36 708.47 626.96 705.13 636.16 C 703.49 640.35 701.48 645.21 696.96 646.96 C 692.53 648.36 687.84 646.87 683.67 645.30 C 674.18 641.76 665.83 635.42 659.63 627.44 C 653.34 619.40 649.02 609.35 649.58 598.99 C 650.13 582.81 652.26 565.94 646.54 550.39 C 642.24 538.84 632.77 529.59 621.65 524.54 C 604.57 517.16 585.53 519.22 567.55 516.29 C 553.82 513.83 539.85 513.23 526.02 511.60 C 510.86 509.72 494.80 507.10 482.42 497.46 C 472.42 489.76 467.26 477.31 466.12 465.00 C 464.75 451.10 465.93 436.29 473.16 424.03 C 479.45 413.33 488.39 404.54 495.28 394.24 C 501.94 384.79 506.89 374.19 514.24 365.22 C 519.55 358.71 526.45 353.58 534.12 350.18 C 544.16 345.57 555.36 344.19 565.32 339.38 C 571.15 336.75 576.27 332.83 582.04 330.09 C 587.63 327.40 593.97 327.05 600.08 327.45 C 608.83 327.89 617.24 331.52 626.10 330.68 Z" />
<path fill="#9ddacc" opacity="1.00" d=" M 827.01 437.75 C 827.34 437.86 828.00 438.08 828.33 438.19 C 831.22 446.57 839.97 450.49 848.06 452.11 C 849.14 451.83 851.31 451.25 852.39 450.96 C 853.43 454.78 849.61 453.51 847.80 453.07 C 839.10 450.18 830.36 447.39 821.59 444.71 C 823.18 444.36 824.77 443.95 826.38 443.63 L 827.53 443.53 C 828.30 441.52 828.90 439.34 827.01 437.75 Z" />
<path fill="#9ddacc" opacity="1.00" d=" M 215.13 443.12 C 217.55 444.51 219.95 445.94 222.35 447.39 C 221.69 447.68 220.35 448.26 219.69 448.55 C 219.42 448.60 218.89 448.69 218.63 448.73 C 218.61 451.00 218.60 453.27 218.58 455.55 L 217.59 455.52 C 217.74 451.24 217.06 446.96 215.13 443.12 Z" />
<path fill="#9ddacc" opacity="1.00" d=" M 845.69 525.75 C 845.92 525.28 846.38 524.33 846.61 523.86 C 847.95 532.72 842.79 540.77 842.35 549.49 C 841.88 549.59 840.93 549.78 840.46 549.88 C 840.85 547.57 841.53 545.33 842.08 543.05 C 842.42 541.58 842.55 540.06 842.65 538.57 L 843.59 538.51 C 843.65 537.33 843.75 536.16 843.87 535.00 C 844.52 533.60 844.56 532.04 844.63 530.54 L 845.66 530.51 C 845.67 528.92 845.68 527.32 845.69 525.75 Z" />
<path fill="#9ddacc" opacity="1.00" d=" M 851.80 595.94 C 852.06 595.98 852.58 596.06 852.83 596.11 C 853.20 615.51 852.15 634.93 852.76 654.32 C 852.28 652.24 852.25 650.09 852.25 647.98 C 852.32 635.66 852.26 623.35 852.27 611.04 C 852.24 606.00 852.56 600.94 851.80 595.94 Z" />
<path fill="#9ddacc" opacity="1.00" d=" M 414.17 601.75 C 415.60 604.75 415.14 608.06 414.22 611.13 C 414.32 608.00 414.30 604.87 414.17 601.75 Z" />
<path fill="#9ddacc" opacity="1.00" d=" M 900.24 663.79 C 900.89 665.11 901.53 666.44 902.19 667.78 C 903.10 670.59 904.31 673.29 905.71 675.89 C 905.45 675.74 904.94 675.44 904.68 675.30 C 904.30 673.47 903.34 671.89 902.39 670.34 C 901.86 670.33 900.81 670.31 900.29 670.29 C 900.21 673.15 900.49 676.04 900.17 678.88 L 899.26 680.23 C 899.75 674.76 899.78 669.26 900.24 663.79 Z" />
<path fill="#9ddacc" opacity="1.00" d=" M 424.25 673.79 C 425.42 678.60 425.13 683.59 424.43 688.45 L 424.30 689.15 C 424.28 684.03 424.31 678.91 424.25 673.79 Z" />
<path fill="#9ddacc" opacity="1.00" d=" M 122.34 674.91 C 123.81 683.28 122.79 691.69 122.31 700.09 C 122.29 691.69 122.17 683.30 122.34 674.91 Z" />
<path fill="#9ddacc" opacity="1.00" d=" M 741.64 688.64 L 741.73 687.93 C 741.69 698.03 741.76 708.13 741.71 718.23 L 741.60 717.52 C 740.57 707.92 740.72 698.24 741.64 688.64 Z" />
<path fill="#9ddacc" opacity="1.00" d=" M 515.88 743.67 C 522.57 742.97 529.38 742.40 536.03 743.78 C 529.31 743.63 522.59 743.78 515.88 743.67 Z" />
</g>
<g id="#fec6abff">
<path fill="#fec6ab" opacity="1.00" d=" M 144.35 348.39 C 152.31 340.44 165.42 341.70 173.31 333.54 C 176.21 336.47 178.64 340.00 179.46 344.11 C 181.61 355.48 180.76 368.24 173.43 377.69 C 170.51 380.56 166.86 382.43 163.36 384.46 C 163.24 386.35 163.24 388.26 163.04 390.16 C 160.05 391.21 156.65 390.52 153.54 390.26 C 151.43 390.17 150.32 388.19 150.20 386.30 L 149.97 384.95 C 149.65 383.21 149.46 381.29 148.00 380.09 C 145.46 377.52 143.34 374.59 141.56 371.45 C 139.95 371.49 138.33 371.52 136.72 371.54 C 135.77 373.09 134.71 374.63 134.32 376.45 C 134.24 378.27 134.23 380.10 134.22 381.94 C 133.94 381.80 133.38 381.52 133.11 381.38 C 133.21 377.74 133.72 373.88 136.35 371.11 C 138.24 368.42 142.20 366.76 142.04 363.03 C 141.80 358.11 140.40 352.30 144.35 348.39 Z" />
<path fill="#fec6ab" opacity="1.00" d=" M 257.56 465.26 C 260.79 462.68 264.07 460.18 267.29 457.58 C 268.69 458.77 270.00 460.05 271.23 461.42 C 273.75 461.36 276.26 461.25 278.78 461.13 C 279.09 464.39 279.79 467.65 279.63 470.94 C 277.81 474.09 274.69 476.24 272.17 478.82 C 271.08 478.73 269.99 478.65 268.90 478.57 C 268.36 478.52 267.28 478.43 266.74 478.38 C 266.38 477.94 265.65 477.05 265.29 476.61 C 262.77 476.26 260.25 475.84 257.73 475.53 C 257.73 472.10 257.61 468.68 257.56 465.26 Z" />
</g>
<g id="#ffffffff">
<path fill="#ffffff" opacity="1.00" d=" M 306.70 352.54 C 314.60 352.31 322.51 352.36 330.41 352.51 C 330.18 364.38 330.49 376.26 330.25 388.13 C 341.70 388.42 353.17 388.13 364.63 388.28 C 364.53 396.44 364.55 404.61 364.62 412.77 C 353.17 412.89 341.71 412.65 330.26 412.89 C 330.47 424.77 330.19 436.64 330.42 448.51 C 322.52 448.69 314.61 448.70 306.70 448.51 C 306.90 436.62 306.67 424.72 306.83 412.83 C 295.43 412.77 284.03 412.77 272.63 412.84 C 272.55 404.63 272.56 396.42 272.63 388.21 C 284.03 388.28 295.43 388.25 306.83 388.23 C 306.66 376.33 306.90 364.43 306.70 352.54 Z" />
<path fill="#ffffff" opacity="1.00" d=" M 898.50 370.17 C 899.55 372.89 900.45 375.67 901.22 378.49 C 906.47 378.12 911.71 377.56 916.94 376.87 C 916.75 375.48 916.56 374.09 916.38 372.71 C 919.99 372.76 923.65 372.34 927.24 372.91 C 929.88 374.37 932.04 376.59 933.92 378.93 C 935.91 381.40 936.85 384.81 939.78 386.43 C 940.20 386.50 941.03 386.64 941.45 386.71 C 941.45 387.46 941.45 388.95 941.45 389.69 L 942.80 389.24 C 942.70 389.75 942.52 390.77 942.43 391.28 C 944.72 391.00 944.64 392.91 944.59 394.63 L 945.43 394.43 C 945.69 394.98 946.22 396.09 946.48 396.64 C 946.82 397.57 947.17 398.50 947.52 399.45 L 947.66 399.63 C 948.51 400.77 949.41 401.90 950.32 403.03 C 950.42 403.55 950.61 404.61 950.70 405.13 C 951.78 407.05 952.48 409.15 952.73 411.35 C 953.19 411.71 954.11 412.43 954.57 412.79 C 954.54 413.42 954.50 414.67 954.48 415.30 C 954.91 415.66 955.76 416.39 956.19 416.75 C 957.07 419.66 958.25 422.49 958.78 425.50 C 959.31 426.16 959.85 426.82 960.41 427.49 L 960.41 427.55 C 960.44 428.84 960.49 430.13 960.54 431.43 C 961.15 432.09 961.77 432.75 962.41 433.42 L 962.41 433.48 C 962.45 434.71 962.52 435.95 962.61 437.20 C 963.24 438.36 963.84 439.54 964.45 440.73 C 964.30 447.01 967.30 452.80 967.98 458.97 C 969.56 461.76 969.37 464.98 969.58 468.07 C 969.67 470.49 970.81 472.68 971.25 475.04 C 971.72 479.20 970.88 483.52 972.28 487.57 C 973.29 490.24 973.43 493.12 973.37 495.96 C 973.29 514.22 973.70 532.51 973.08 550.76 C 969.36 557.83 973.04 566.28 970.53 573.67 C 968.56 579.16 969.84 585.09 969.11 590.77 C 966.67 594.39 967.77 598.93 967.27 603.00 C 966.97 606.11 965.28 608.84 963.75 611.47 L 962.98 611.45 C 959.70 610.07 956.13 610.15 952.67 610.51 C 950.81 621.98 952.17 633.63 951.61 645.17 C 951.32 633.41 951.57 621.60 951.49 609.82 C 936.08 607.72 920.69 605.54 905.28 603.42 C 904.90 569.14 903.44 534.85 903.89 500.57 C 896.99 500.28 890.06 500.80 883.17 500.33 C 878.64 498.93 874.61 496.25 870.21 494.50 C 865.47 515.03 860.44 535.49 855.58 555.99 C 852.05 569.00 850.16 582.36 848.51 595.71 C 847.30 595.52 846.12 595.16 844.97 594.79 C 844.25 594.67 842.81 594.44 842.10 594.32 C 838.82 592.97 835.06 595.12 832.12 593.30 C 832.55 589.86 831.85 586.27 833.13 582.97 C 833.77 580.30 834.32 577.61 835.17 575.00 C 835.75 572.28 836.32 569.56 837.21 566.93 C 837.32 566.22 837.55 564.80 837.66 564.09 C 837.78 563.59 838.02 562.59 838.14 562.10 C 838.27 560.20 838.41 558.31 838.52 556.42 L 839.41 556.66 C 839.37 555.35 839.57 554.10 840.00 552.88 C 840.14 551.87 840.29 550.87 840.46 549.88 C 840.93 549.78 841.88 549.59 842.35 549.49 C 842.79 540.77 847.95 532.72 846.61 523.86 L 846.49 522.43 L 847.44 522.60 C 847.36 521.05 847.58 519.52 848.21 518.10 C 848.33 516.87 848.43 515.65 848.53 514.43 L 849.43 514.63 C 849.35 513.07 849.58 511.54 850.19 510.11 C 850.32 508.87 850.43 507.64 850.53 506.40 L 851.41 506.64 C 851.52 503.20 852.57 499.87 852.53 496.42 L 853.45 496.64 C 853.71 493.28 853.94 489.89 853.47 486.54 C 852.96 486.51 851.95 486.47 851.44 486.44 C 851.48 485.96 851.56 485.00 851.59 484.52 C 850.79 484.57 849.18 484.67 848.38 484.72 L 848.38 483.33 C 847.91 483.42 846.95 483.61 846.48 483.71 L 846.63 482.51 C 845.83 482.49 844.23 482.46 843.43 482.45 C 843.48 481.96 843.57 481.00 843.62 480.52 C 842.81 480.57 841.20 480.68 840.39 480.73 L 840.39 479.37 C 839.91 479.44 838.94 479.59 838.46 479.67 L 838.60 478.53 C 837.08 478.98 835.98 477.92 834.82 477.25 C 833.02 476.23 830.97 475.72 829.17 474.71 C 828.70 474.39 827.75 473.75 827.27 473.43 C 826.83 473.44 825.94 473.44 825.49 473.45 C 825.25 473.30 824.77 473.01 824.53 472.86 C 814.02 467.17 802.97 462.51 792.29 457.15 C 792.42 456.70 792.67 455.80 792.79 455.35 C 794.62 449.48 796.43 443.61 798.18 437.72 C 805.17 439.91 812.16 442.12 819.17 444.28 C 819.96 444.44 820.77 444.58 821.59 444.71 C 830.36 447.39 839.10 450.18 847.80 453.07 C 849.61 453.51 853.43 454.78 852.39 450.96 C 851.31 451.25 849.14 451.83 848.06 452.11 C 839.97 450.49 831.22 446.57 828.33 438.19 C 828.20 437.89 827.94 437.28 827.81 436.97 C 826.32 435.18 824.60 433.60 822.94 431.98 C 821.45 433.00 819.21 433.70 819.68 435.96 L 819.59 435.58 C 815.35 418.38 808.74 401.73 799.48 386.61 C 800.31 386.65 801.98 386.75 802.81 386.80 C 804.19 387.48 805.59 388.14 807.00 388.78 C 809.56 390.58 812.16 392.34 814.78 394.05 C 815.33 394.18 816.44 394.44 816.99 394.57 C 819.37 396.45 821.85 398.21 824.28 400.05 C 825.16 400.20 826.06 400.36 826.97 400.53 C 829.36 402.39 831.83 404.14 834.22 406.03 C 835.14 406.19 836.08 406.36 837.03 406.54 C 840.72 409.47 844.96 413.41 850.08 412.18 C 852.55 411.03 854.18 408.74 855.92 406.73 L 856.34 406.25 C 857.15 405.84 857.96 405.43 858.78 405.02 C 864.28 400.10 868.89 394.20 874.90 389.85 C 878.35 388.37 880.57 385.20 883.20 382.66 C 883.88 379.51 885.17 376.46 887.71 374.37 C 891.36 374.46 895.02 374.30 898.59 373.46 C 898.57 372.63 898.52 370.99 898.50 370.17 M 897.72 379.57 C 891.23 407.36 884.37 435.06 877.92 462.86 C 879.38 463.32 881.06 463.48 882.04 462.02 C 892.81 451.17 903.85 440.60 914.60 429.72 C 915.71 412.51 918.86 395.34 917.44 378.04 C 910.85 376.97 904.25 378.89 897.72 379.57 M 858.41 443.47 C 858.44 443.99 858.52 445.03 858.56 445.56 C 858.04 445.52 856.98 445.44 856.46 445.40 C 856.47 445.93 856.51 446.99 856.52 447.52 C 855.99 447.49 854.91 447.45 854.38 447.42 C 854.43 447.95 854.53 449.01 854.58 449.54 C 854.04 449.50 852.95 449.42 852.41 449.38 C 852.36 451.36 852.34 453.37 852.45 455.36 C 853.65 455.40 854.87 455.47 856.10 455.57 C 858.06 456.97 860.51 456.37 862.76 456.56 L 862.25 455.27 L 863.39 455.62 C 863.75 453.87 864.30 452.16 864.66 450.41 L 865.43 450.65 C 865.51 448.86 865.63 447.07 865.78 445.30 L 864.41 445.48 C 864.51 444.94 864.73 443.87 864.84 443.34 C 862.68 443.34 860.54 443.40 858.41 443.47 Z" />
<path fill="#ffffff" opacity="1.00" d=" M 163.36 384.46 C 166.86 382.43 170.51 380.56 173.43 377.69 C 172.48 380.51 170.47 384.31 173.39 386.64 C 177.54 389.47 182.90 389.80 187.79 389.82 C 188.14 389.85 188.82 389.90 189.16 389.92 C 189.25 390.62 189.44 392.01 189.53 392.71 C 190.60 393.87 191.68 395.03 192.76 396.20 C 193.35 396.25 194.52 396.34 195.11 396.39 C 195.50 396.84 196.28 397.75 196.66 398.20 C 197.29 398.24 198.56 398.33 199.19 398.37 C 199.56 398.90 200.30 399.96 200.68 400.49 C 202.27 400.17 204.81 400.75 204.63 398.33 C 204.59 397.74 204.52 396.54 204.48 395.94 C 206.69 403.26 210.72 409.84 214.56 416.39 C 220.68 426.66 228.11 436.07 235.59 445.37 C 230.96 444.75 226.93 447.70 222.35 447.39 C 219.95 445.94 217.55 444.51 215.13 443.12 C 217.06 446.96 217.74 451.24 217.59 455.52 L 218.58 455.55 L 219.40 455.57 C 219.78 457.14 219.20 459.27 220.81 460.30 C 223.59 460.62 226.33 459.88 228.98 459.14 C 233.27 457.68 237.88 458.60 242.32 458.29 L 243.66 457.50 C 244.22 456.89 244.53 456.13 244.60 455.22 C 245.37 455.80 245.86 456.96 246.94 457.04 C 250.47 457.04 253.97 456.45 257.49 456.18 C 257.51 459.21 257.52 462.23 257.56 465.26 C 257.61 468.68 257.73 472.10 257.73 475.53 C 257.68 477.05 257.63 478.59 257.50 480.12 C 255.01 481.16 252.62 482.48 249.99 483.11 C 246.88 483.69 243.50 483.29 240.73 485.08 C 236.67 485.21 232.57 485.95 229.46 488.76 C 229.40 491.97 229.56 495.22 230.61 498.29 C 231.89 502.18 230.99 506.44 232.52 510.27 C 234.33 514.41 232.39 519.41 235.15 523.23 C 235.72 528.22 234.75 533.43 236.48 538.25 C 238.51 543.82 236.33 549.95 238.28 555.54 C 240.30 560.24 238.58 565.56 240.52 570.28 C 241.99 573.80 240.89 577.96 243.09 581.23 C 243.41 583.87 243.61 586.53 243.78 589.20 C 244.15 589.64 244.89 590.53 245.26 590.98 C 245.41 593.72 245.58 596.46 245.76 599.21 C 246.13 599.65 246.86 600.53 247.22 600.97 C 247.47 606.44 249.96 611.49 249.70 617.04 C 251.80 623.45 251.72 630.27 251.12 636.94 C 249.36 640.51 245.95 642.85 243.11 645.52 C 242.55 645.64 241.43 645.88 240.87 646.00 C 236.85 649.61 231.13 648.66 226.72 651.26 C 223.82 651.04 220.94 650.66 218.05 650.47 C 210.04 633.61 202.57 616.32 198.41 598.07 C 196.22 588.88 196.23 579.40 195.89 570.03 C 195.49 545.54 195.74 521.04 194.90 496.57 C 192.30 497.19 189.70 497.83 187.10 498.46 C 169.74 488.29 152.27 478.30 134.85 468.24 C 133.69 493.44 132.23 518.63 130.29 543.78 C 129.19 556.39 128.24 569.05 125.65 581.45 C 121.27 605.15 117.49 628.94 113.91 652.77 C 113.84 653.23 113.70 654.14 113.63 654.59 C 107.56 652.52 101.04 654.72 94.91 653.02 C 92.95 652.37 91.00 651.68 89.11 650.85 C 87.03 650.37 85.00 649.72 83.04 648.88 C 80.98 648.36 78.96 647.67 77.08 646.67 C 76.50 646.62 75.34 646.52 74.76 646.48 C 74.41 645.97 73.71 644.97 73.36 644.47 C 72.71 644.49 71.41 644.55 70.76 644.58 C 70.40 644.06 69.70 643.03 69.34 642.51 C 68.35 642.49 67.36 642.47 66.37 642.47 L 65.37 641.38 L 64.39 641.62 L 64.61 640.13 L 62.97 640.71 C 63.19 640.15 63.63 639.01 63.85 638.45 L 62.52 638.72 L 62.55 636.33 L 63.52 636.63 C 63.52 635.85 63.52 634.28 63.52 633.50 C 64.05 633.50 65.10 633.51 65.63 633.51 C 65.51 632.97 65.28 631.89 65.17 631.35 L 66.81 631.55 C 66.65 631.04 66.33 630.00 66.17 629.48 L 67.60 629.57 C 67.58 629.05 67.54 628.01 67.52 627.49 C 68.02 627.50 69.03 627.53 69.53 627.54 C 69.48 626.96 69.37 625.81 69.32 625.23 C 69.83 625.29 70.86 625.43 71.38 625.50 C 71.37 624.83 71.35 623.51 71.34 622.84 C 71.69 622.34 72.40 621.33 72.76 620.82 C 73.54 619.53 73.91 618.05 74.66 616.75 L 75.51 616.30 C 75.46 615.89 75.37 615.07 75.32 614.66 L 76.33 614.13 C 76.39 613.71 76.51 612.86 76.56 612.44 L 77.38 612.64 C 77.23 610.11 78.87 607.93 78.66 605.39 L 79.41 605.59 C 79.54 604.38 79.80 603.21 80.18 602.07 C 80.35 596.87 80.14 591.65 80.49 586.46 L 81.43 586.62 C 81.38 585.06 81.57 583.52 82.18 582.09 C 82.26 578.87 82.28 575.66 82.49 572.45 L 83.43 572.61 C 83.49 570.70 83.68 568.81 83.90 566.93 C 84.42 564.12 84.31 561.25 84.49 558.42 L 85.43 558.64 C 85.37 557.07 85.57 555.53 86.19 554.09 C 86.28 551.19 86.29 548.28 86.34 545.38 L 87.35 545.48 C 87.80 540.46 88.44 535.47 88.52 530.42 L 89.43 530.64 C 89.37 529.07 89.56 527.53 90.19 526.10 C 90.26 522.86 90.28 519.63 90.50 516.41 L 91.44 516.63 C 91.36 515.06 91.54 513.51 92.20 512.09 C 92.28 508.20 92.23 504.30 92.50 500.42 L 93.44 500.64 C 93.36 499.07 93.54 497.51 94.25 496.10 C 94.46 494.63 94.25 493.26 93.63 492.00 C 94.65 490.33 94.31 488.27 94.52 486.42 L 95.43 486.63 C 95.48 484.72 95.68 482.82 95.91 480.93 C 96.53 477.46 96.20 473.92 96.49 470.42 L 97.44 470.64 C 97.37 469.08 97.56 467.53 98.18 466.10 C 98.27 462.87 98.28 459.65 98.49 456.44 L 99.44 456.63 C 99.51 454.11 99.69 451.58 100.17 449.11 C 100.26 447.07 100.34 445.03 100.50 443.01 C 100.96 443.17 101.88 443.51 102.34 443.68 C 100.77 442.47 101.28 440.44 102.14 438.97 C 102.30 436.73 102.15 434.48 102.44 432.27 C 102.89 431.98 103.77 431.41 104.21 431.13 C 104.65 427.11 104.59 423.06 104.74 419.02 C 105.07 418.57 105.72 417.67 106.05 417.21 C 106.54 414.32 107.51 411.55 108.62 408.85 C 113.03 403.78 117.55 398.62 123.38 395.13 C 126.53 393.25 128.99 390.21 128.92 386.39 C 129.67 386.38 131.17 386.35 131.92 386.34 C 132.04 386.91 132.29 388.04 132.42 388.61 C 133.93 388.06 135.44 387.54 136.94 386.97 C 140.30 386.00 143.82 386.34 147.27 386.29 C 138.26 396.12 138.01 410.38 137.23 422.95 C 155.83 435.99 174.28 449.26 192.93 462.23 C 191.47 448.95 189.94 435.50 185.29 422.88 C 181.62 412.74 178.61 402.23 173.16 392.85 C 171.04 388.92 167.36 386.24 163.36 384.46 Z" />
<path fill="#ffffff" opacity="1.00" d=" M 570.21 819.41 C 583.96 818.83 597.74 820.19 611.47 819.14 C 620.66 819.42 629.85 819.13 639.04 819.20 C 670.21 819.04 701.39 819.32 732.56 819.16 C 727.78 820.31 722.81 819.51 717.95 819.73 C 695.29 819.74 672.64 819.72 649.98 819.73 C 634.33 819.91 618.66 819.34 603.03 820.09 C 592.11 819.27 581.09 820.32 570.21 819.41 Z" />
</g>
<g id="#00c1c1ff">
<path fill="#00c1c1" opacity="1.00" d=" M 897.72 379.57 C 904.25 378.89 910.85 376.97 917.44 378.04 C 918.86 395.34 915.71 412.51 914.60 429.72 C 903.85 440.60 892.81 451.17 882.04 462.02 C 881.06 463.48 879.38 463.32 877.92 462.86 C 884.37 435.06 891.23 407.36 897.72 379.57 Z" />
<path fill="#00c1c1" opacity="1.00" d=" M 163.36 384.46 C 167.36 386.24 171.04 388.92 173.16 392.85 C 178.61 402.23 181.62 412.74 185.29 422.88 C 189.94 435.50 191.47 448.95 192.93 462.23 C 174.28 449.26 155.83 435.99 137.23 422.95 C 138.01 410.38 138.26 396.12 147.27 386.29 C 148.00 386.29 149.47 386.30 150.20 386.30 C 150.32 388.19 151.43 390.17 153.54 390.26 C 156.65 390.52 160.05 391.21 163.04 390.16 C 163.24 388.26 163.24 386.35 163.36 384.46 Z" />
<path fill="#00c1c1" opacity="1.00" d=" M 134.85 468.24 C 152.27 478.30 169.74 488.29 187.10 498.46 C 189.70 497.83 192.30 497.19 194.90 496.57 C 195.74 521.04 195.49 545.54 195.89 570.03 C 196.23 579.40 196.22 588.88 198.41 598.07 C 202.57 616.32 210.04 633.61 218.05 650.47 C 215.05 651.51 212.04 652.62 208.89 653.11 C 195.07 654.63 181.12 655.11 167.34 656.86 C 165.85 657.35 164.30 657.53 162.75 657.23 C 157.19 656.47 151.57 656.69 145.98 656.41 C 137.37 656.24 128.77 655.48 120.15 655.62 C 118.26 655.66 116.36 655.70 114.46 655.75 C 114.32 655.01 114.05 653.52 113.91 652.77 C 117.49 628.94 121.27 605.15 125.65 581.45 C 128.24 569.05 129.19 556.39 130.29 543.78 C 132.23 518.63 133.69 493.44 134.85 468.24 Z" />
<path fill="#00c1c1" opacity="1.00" d=" M 870.21 494.50 C 874.61 496.25 878.64 498.93 883.17 500.33 C 890.06 500.80 896.99 500.28 903.89 500.57 C 903.44 534.85 904.90 569.14 905.28 603.42 C 887.80 601.02 870.28 598.76 852.83 596.11 C 852.58 596.06 852.06 595.98 851.80 595.94 C 850.69 595.84 849.60 595.76 848.51 595.71 C 850.16 582.36 852.05 569.00 855.58 555.99 C 860.44 535.49 865.47 515.03 870.21 494.50 Z" />
</g>
</svg>
